<svg xmlns="http://www.w3.org/2000/svg" viewBox="0 0 165.66 165.66"><defs><style>.cls-1{fill:#3f3f3f;}</style></defs><g id="Layer_2" data-name="Layer 2"><g id="Layer_1-2" data-name="Layer 1"><path class="cls-1" d="M56.48,49.29a6,6,0,0,1,2.92.76l4.33-6a13.3,13.3,0,0,0-14.5,0l4.33,6A6,6,0,0,1,56.48,49.29Z"/><path class="cls-1" d="M40.74,118.53c0,.11,0,.21,0,.31a25.51,25.51,0,0,0,6-2.25,11.19,11.19,0,0,0-4-6.77l-3.64,5A5,5,0,0,1,40.74,118.53Z"/><path class="cls-1" d="M50.59,56.45a6.34,6.34,0,0,1-.11-1.16A6,6,0,0,1,52.4,50.9l-4.33-6a13.3,13.3,0,0,0-4.94,10.36,13.46,13.46,0,0,0,.45,3.44Z"/><path class="cls-1" d="M107.55,147.83A32.54,32.54,0,1,1,65.84,97.92l.06.1a1,1,0,0,0,.82.41h.18a1,1,0,0,0,.2.44,1,1,0,0,0,.8.38l.23,0a1.07,1.07,0,0,0,.21.41A1,1,0,0,0,69,100a29,29,0,1,0,36.05,45.29,55.21,55.21,0,0,0-16.89-10.34,12.25,12.25,0,0,1-2.2.21,11.67,11.67,0,1,1,10.08-17.51,47.77,47.77,0,0,0,7,2.78L103,120c-.18-.53-.35-1.12-.58-1.75l-.41-1c-.07-.17-.14-.34-.22-.51l-.27-.5a17.06,17.06,0,0,0-3-4.12,17.63,17.63,0,0,0-4.84-3.49A16.95,16.95,0,0,0,80.41,108a16.65,16.65,0,0,0-9.88,9.89,8.39,8.39,0,0,0-.3.84l-.23.85a13.38,13.38,0,0,0-.35,1.69l-.07.42,0,.46c0,.31,0,.62-.07.93l0,.4v.43l0,.86a17.27,17.27,0,0,0,1.65,6.36A17.63,17.63,0,0,0,74.64,136a17.18,17.18,0,0,0,4.13,3l.5.27.5.22,1,.41c.63.23,1.23.4,1.76.57l1.46.32c.42.1.8.11,1.1.16l.93.11-.93,0c-.31,0-.68,0-1.12,0l-1.53-.14c-.57-.11-1.2-.22-1.87-.38l-1-.32c-.18-.06-.37-.11-.55-.18l-.55-.23A16.82,16.82,0,0,1,73.73,137a17.65,17.65,0,0,1-4.14-5,17.83,17.83,0,0,1-2.16-7l-.06-1,0-.48V123l0-.93,0-.47.07-.5a14.68,14.68,0,0,1,.34-2l.24-1c.08-.33.22-.64.33-1a18.22,18.22,0,0,1,11.26-11.26,18.29,18.29,0,0,1,7.79-1,18,18,0,0,1,12.07,6.3,16.53,16.53,0,0,1,2.82,4.66l.24.55c.06.19.12.37.17.55l.32,1c.17.68.27,1.31.39,1.87,0,.23,0,.44.06.65a56.6,56.6,0,0,0,6.25,1.46,12.52,12.52,0,0,0-.16-1.29c-.12-.58-.26-1.25-.41-2s-.44-1.54-.74-2.41c-.18-.42-.36-.86-.55-1.32-.09-.23-.18-.46-.28-.69l-.37-.69a22.93,22.93,0,0,0-4.06-5.71A24,24,0,0,0,96.57,103a22.23,22.23,0,0,0-3.38-1.34.9.9,0,0,0,.19-.15,1.18,1.18,0,0,0,.21-.32,1.05,1.05,0,0,0,.4.07,1,1,0,0,0,.74-.32,1.24,1.24,0,0,0,.21-.35,1.16,1.16,0,0,0,.34.06,1.1,1.1,0,0,0,.36-.07c.59.26,1.18.55,1.74.85a24,24,0,0,1,6.81,5.51,22.73,22.73,0,0,1,3.88,6.25c.11.25.21.49.32.73s.17.5.25.74c.15.49.31,1,.45,1.4.23.92.39,1.77.56,2.53s.15,1.46.22,2.06a12.9,12.9,0,0,1,0,1.35c1.68.29,3.37.51,5,.66A29,29,0,0,0,99.78,98a1.25,1.25,0,0,0,.17-.43h.11a1,1,0,0,0,.85-.43,1.26,1.26,0,0,0,.19-.51h0a1,1,0,0,0,.88-.45,1.07,1.07,0,0,0,.17-.53,1,1,0,0,0,.46-.11A32.66,32.66,0,0,1,115.59,110a.79.79,0,0,0-.18.32.84.84,0,0,0,0,.47.93.93,0,0,0-.23.42.9.9,0,0,0,0,.48.86.86,0,0,0-.2.42.82.82,0,0,0,.06.48.82.82,0,0,0-.09.9.77.77,0,0,0-.16.45.83.83,0,0,0,.11.47.81.81,0,0,0-.14.45.85.85,0,0,0,.14.46.8.8,0,0,0-.11.46.77.77,0,0,0,.16.45.81.81,0,0,0-.09.47.83.83,0,0,0,.18.44.79.79,0,0,0-.06.47.93.93,0,0,0,.2.43.86.86,0,0,0,0,.47.93.93,0,0,0,.23.42.87.87,0,0,0,0,.48.92.92,0,0,0,.25.4.83.83,0,0,0,.28.87.9.9,0,0,0,0,.46.84.84,0,0,0,.3.39.82.82,0,0,0,0,.44.92.92,0,0,0,.33.4.73.73,0,0,0,.06.41.35.35,0,0,0,0,.08l1,.06,0-.06.16-.18-.23,0h-.22l-.08,0h0l-.06,0,0,0,0,0s0,0,0,0,0,0,0-.06v0a.17.17,0,0,1,0-.07.06.06,0,0,1,0,0,.36.36,0,0,1,0-.09s0,0,0,0l.1-.12h0l.17-.16-.23,0h-.28l-.06,0-.05,0s0,0,0,0l0,0a.08.08,0,0,1,0,0,.13.13,0,0,1,0-.06s0,0,0,0,0,0,0-.07,0,0,0,0a.2.2,0,0,1,0-.08l0,0,.11-.13h0l.17-.16h-.42l-.08,0,0,0-.06,0,0,0,0,0s0,0,0,0a.13.13,0,0,1,0-.06s0,0,0,0,0,0,0-.06a.09.09,0,0,0,0,0,.35.35,0,0,0,0-.08l0,0,.12-.12.18-.15h-.23c-.51,0-.63-.37-.22-.68l.19-.13-.24,0c-.51,0-.61-.4-.18-.68l.19-.13-.23,0a.82.82,0,0,1-.3-.09.32.32,0,0,1-.13-.18.28.28,0,0,1,0-.21.31.31,0,0,1,.09-.11.71.71,0,0,1,.14-.1l.2-.12-.22,0c-.32-.05-.46-.22-.41-.4a.55.55,0,0,1,.29-.3l.21-.11-.23,0a.51.51,0,0,1-.36-.22c-.09-.15,0-.35.29-.49l.21-.09-.22-.06c-.25-.07-.38-.2-.38-.34a.34.34,0,0,1,.18-.3l.16-.07.22-.09-.22-.07a.67.67,0,0,1-.28-.16.27.27,0,0,1,0-.4.66.66,0,0,1,.28-.15l.22-.08-.22-.08c-.24-.1-.35-.24-.34-.38s.13-.26.38-.33l.22-.06-.21-.1c-.47-.21-.42-.6.07-.71l.23,0-.21-.11c-.45-.23-.39-.61.12-.7l.22,0-.2-.11c-.44-.26-.35-.64.15-.7l.23,0-.19-.13a.65.65,0,0,1-.22-.22.26.26,0,0,1,0-.22c0-.13.19-.23.44-.25h.24l-.19-.14a.86.86,0,0,1-.21-.23.56.56,0,0,1,0-.12.27.27,0,0,1,.16-.26.68.68,0,0,1,.31-.07h.23l-.18-.15a.68.68,0,0,1-.12-.12l0,0,0-.08a.06.06,0,0,0,0,0s0,0,0-.07,0,0,0,0a.13.13,0,0,1,0-.06.05.05,0,0,1,0,0l0,0,0,0,.06,0,0,0,.08,0h.42l-.17-.16h0l-.11-.12s0,0,0,0l0-.08,0,0s0-.05,0-.07a.06.06,0,0,1,0,0,.13.13,0,0,1,0-.06s0,0,0,0l0,0,0,0,.05,0,.06,0,.07,0h.21l.23,0-.08-.09-.09-.08h0l-.1-.13a.08.08,0,0,1,0,0,.59.59,0,0,1,0-.08.09.09,0,0,1,0-.05.15.15,0,0,1,0-.07v0s0,0,0,0a.05.05,0,0,1,0,0l0-.05,0,0,.06,0,0,0,.08,0h.22l.23,0-.16-.17a.55.55,0,0,1-.09-.14.05.05,0,0,1,0,0l0-.08s0,0,0,0,0,0,0-.06v0a.14.14,0,0,1,0-.06l0,0s0,0,0,0l0,0,.07,0h0l.12,0h0l.17,0,.23,0-.15-.18h0a.51.51,0,0,1-.09-.13s0,0,0,0l0-.09v0a.17.17,0,0,1,0-.07s0,0,0,0a.14.14,0,0,1,0-.06l0,0s0,0,0,0,0,0,0,0l.1,0h.13l.19,0,.22.06-.13-.19a.65.65,0,0,1-.11-.22s0,0,0,0a.33.33,0,0,1,0-.17,0,0,0,0,0,0,0,.24.24,0,0,1,.09-.11h0a.29.29,0,0,1,.17,0h0l.2,0h0l.11,0,.11,0-.13-.19h0a.79.79,0,0,1-.09-.22.06.06,0,0,1,0,0,.48.48,0,0,1,0-.17s0,0,0,0a.28.28,0,0,1,.09-.1h0a.31.31,0,0,1,.17,0h0a.53.53,0,0,1,.23.05l.22.08-.12-.21h0a.9.9,0,0,1-.08-.21s0,0,0,0a.47.47,0,0,1,0-.17h0a.27.27,0,0,1,.08-.1l0,0a.33.33,0,0,1,.15,0h.13l.16.06h0l.1,0,.11,0-.1-.21a.74.74,0,0,1-.07-.21s0,0,0,0a.41.41,0,0,1,0-.16h0a.31.31,0,0,1,.08-.11h0a.24.24,0,0,1,.15,0h.14l.16.06.21.1-.09-.21a.68.68,0,0,1-.06-.21s0,0,0,0a.59.59,0,0,1,0-.14v0a.22.22,0,0,1,.09-.1l0,0a.21.21,0,0,1,.12,0h.17l.16.07.21.12-.09-.22a.86.86,0,0,1,0-.21v0a.27.27,0,0,1,0-.13v0a.18.18,0,0,1,.09-.1l0,0,.1,0h0l.1,0h0l.17.08.19.13-.07-.22a.88.88,0,0,1,0-.21v0a.5.5,0,0,1,0-.12,0,0,0,0,0,0,0,.22.22,0,0,1,.09-.1h0a.19.19,0,0,1,.1,0h0l.1,0,0,0,.17.09.19.13-.06-.22a.81.81,0,0,1,0-.2,2.68,2.68,0,0,0,0-.17l0,0a.27.27,0,0,1,.08-.1h0a.24.24,0,0,1,.12,0,0,0,0,0,1,0,0h0l.11,0,0,0a.42.42,0,0,1,.17.1l.19.15,0-.23h0a.75.75,0,0,1,0-.2.11.11,0,0,0,0,0l0-.11s0,0,0,0a.27.27,0,0,1,.07-.08h0a.27.27,0,0,1,.12,0h0a.27.27,0,0,1,.12,0l0,0a.87.87,0,0,1,.18.11l.17.16,0-.23a.46.46,0,0,1,0-.2s0,0,0-.05l0-.1,0,0a.23.23,0,0,1,.07-.07,0,0,0,0,1,0,0,.21.21,0,0,1,.12,0h0a.33.33,0,0,1,.13,0l0,0,.17.12.16.17v-.23h0a.59.59,0,0,1,0-.19.09.09,0,0,1,0-.05l0-.1,0,0a.17.17,0,0,1,.06-.06l0,0a.2.2,0,0,1,.11,0h0a.53.53,0,0,1,.16,0l0,0a.53.53,0,0,1,.17.14l.16.17v-.23a.56.56,0,0,1,0-.19.08.08,0,0,1,0,0l0-.1,0,0,.06,0,0,0,.08,0h0a.47.47,0,0,1,.16,0l0,0a.76.76,0,0,1,.17.15h0l.08.09.07.09v-.23a1.11,1.11,0,0,1,0-.19l0,0a.36.36,0,0,1,0-.09l0,0,.06-.05,0,0,.07,0h0a.33.33,0,0,1,.16,0l0,0a.9.9,0,0,1,.17.17l.14.19v-.24a.48.48,0,0,1,0-.18l0,0,0-.08,0,0,.06-.05,0,0,.07,0h.08l.07,0,0,0,.07,0,0,0,.11.13.12.19,0-.23a1.16,1.16,0,0,1,0-.18s0,0,0,0l.05-.09,0,0,.06,0,0,0,.06,0H129l.07,0,0,0,.06.06,0,0,.09.13h0l.11.2,0-.12,0-.11a.78.78,0,0,1,.05-.18.08.08,0,0,0,0,0,.56.56,0,0,1,0-.08l0,0,0,0,.05,0,.06,0h.09a.09.09,0,0,1,.06,0,.05.05,0,0,1,0,0l.07.06,0,0a.38.38,0,0,1,.09.14l.11.2.05-.23a.59.59,0,0,1,.06-.16s0,0,0,0l0-.08,0,0,.06,0,0,0h.16l.06,0,0,0,.06.07,0,0s.06.09.09.15l.09.21.07-.22h0l.06-.16,0,0,0-.07s0,0,0,0l.06,0h.2s0,0,.06,0l0,0,.06.07,0,0s.05.09.07.14h0l.08.22.07-.22a1.19,1.19,0,0,1,.08-.16.33.33,0,0,1,.28-.21.28.28,0,0,1,.2.09.74.74,0,0,1,.16.28l.07.22,0-.13,0-.09a1,1,0,0,1,.08-.15l0,0,.06-.07,0,0,.06,0h.2l.06,0s0,0,0,0l.05.07,0,0a.49.49,0,0,1,.06.17l.07.22,0-.1.05-.11h0a.53.53,0,0,1,.08-.15l0,0,.06-.07,0,0,.06,0h.16l0,0,.06,0,0,0a.56.56,0,0,1,0,.08s0,0,0,0a.38.38,0,0,1,.06.16l0,.23.11-.2a.56.56,0,0,1,.09-.14l0,0,.07-.06,0,0a.09.09,0,0,1,.06,0H135l.07,0,0,0a.1.1,0,0,1,0,0l0,0,.05.09s0,0,0,0a.78.78,0,0,1,0,.18l0,.23.06-.1.06-.1h0l.09-.13,0,0,.06-.06,0,0,.07,0h.09l.06,0,0,0,.06,0,0,0,.05.09s0,0,0,0a1.16,1.16,0,0,1,0,.18v0l0,.2.12-.19.11-.13,0,0,.07,0,0,0,.07,0h.09l.06,0,0,0,.06.05,0,0,0,.08,0,0a.48.48,0,0,1,0,.18l0,.24.06-.1.07-.09a.7.7,0,0,1,.18-.17l0,0a.33.33,0,0,1,.16,0h0l.07,0,0,0,.06.05,0,0a.36.36,0,0,1,0,.09l0,0a1.11,1.11,0,0,1,0,.19v.23l.08-.09.07-.09h0a.76.76,0,0,1,.17-.15l0,0a.47.47,0,0,1,.16,0h0l.08,0,0,0,.06,0,0,0,0,.1a.08.08,0,0,1,0,0,.56.56,0,0,1,0,.19v.23l.16-.17a.66.66,0,0,1,.17-.14l0,0a.53.53,0,0,1,.16,0h0a.17.17,0,0,1,.1,0l0,0a.17.17,0,0,1,.06.06l0,0,0,.1a.09.09,0,0,1,0,.05.64.64,0,0,1,0,.2l0,.23.16-.17.17-.12.05,0a.33.33,0,0,1,.13,0h0a.21.21,0,0,1,.12,0,0,0,0,0,1,0,0,.23.23,0,0,1,.07.07s0,0,0,0l0,.1s0,0,0,.05a.67.67,0,0,1,0,.2l0,.23.18-.16a.62.62,0,0,1,.17-.11l0,0a.27.27,0,0,1,.12,0h0a.27.27,0,0,1,.12,0h0a.27.27,0,0,1,.07.08s0,0,0,0l0,.11a.11.11,0,0,0,0,0,.75.75,0,0,1,0,.2h0l0,.14,0,.09.19-.15a.42.42,0,0,1,.17-.1l0,0,.11,0h0a0,0,0,0,1,0,0,.24.24,0,0,1,.12,0h0a.27.27,0,0,1,.08.1l0,0a.43.43,0,0,1,0,.12.07.07,0,0,1,0,0,.81.81,0,0,1,0,.2l-.06.22.19-.13.17-.09.05,0,.1,0h.05a.19.19,0,0,1,.1,0h0a.22.22,0,0,1,.09.1s0,0,0,0a.5.5,0,0,1,0,.12v0a.88.88,0,0,1,0,.21l0,.11,0,.11.19-.13.17-.08h0l.1,0h0l.1,0,0,0a.18.18,0,0,1,.09.1v0a.27.27,0,0,1,0,.13v0a.86.86,0,0,1,0,.21l-.09.22.21-.12.16-.07h.17a.21.21,0,0,1,.12,0l0,0a.22.22,0,0,1,.09.1v0a.59.59,0,0,1,0,.14.09.09,0,0,1,0,0,1,1,0,0,1-.05.21l-.1.21.21-.1h0a.47.47,0,0,1,.15-.06h.14a.24.24,0,0,1,.15,0h0a.31.31,0,0,1,.08.11h0a.41.41,0,0,1,0,.16.09.09,0,0,1,0,0,.74.74,0,0,1-.07.21l-.1.21.21-.09.16-.06h.13a.33.33,0,0,1,.15,0l0,0a.27.27,0,0,1,.08.1h0a.47.47,0,0,1,0,.17s0,0,0,0a.9.9,0,0,1-.08.21l-.12.21.14,0,.08,0h0a.53.53,0,0,1,.23-.05h0a.31.31,0,0,1,.17,0h0a.28.28,0,0,1,.09.1s0,0,0,0a.48.48,0,0,1,0,.17.06.06,0,0,1,0,0,.79.79,0,0,1-.09.22h0l-.13.19.23-.07.2,0h0a.29.29,0,0,1,.17,0h0a.24.24,0,0,1,.09.11,0,0,0,0,0,0,0,.25.25,0,0,1,0,.17s0,0,0,0a.65.65,0,0,1-.11.22l-.13.19.22-.06h0l.19,0h.13l.1,0s0,0,0,0,0,0,.05,0l0,0a.14.14,0,0,1,0,.06s0,0,0,0a.17.17,0,0,1,0,.07v0l0,.09s0,0,0,0a.8.8,0,0,1-.09.14l-.15.18.23,0,.17,0h0l.12,0h0l.06,0,0,0,0,0,0,0a.17.17,0,0,1,0,.05v0s0,0,0,.06,0,0,0,0l0,.08,0,0a.55.55,0,0,1-.09.14h0l-.16.17h0l.2,0h.22l.08,0,0,0,.06,0,0,0,0,.05a.05.05,0,0,1,0,0s0,0,0,0v0a.15.15,0,0,1,0,.07.09.09,0,0,1,0,.05.59.59,0,0,1,0,.08.08.08,0,0,1,0,0,1.13,1.13,0,0,1-.1.13l-.17.17.24,0h.2l.07,0,.06,0,.05,0,0,0,0,0s0,0,0,0,0,0,0,.06v0s0,0,0,.07a.09.09,0,0,0,0,0,.56.56,0,0,0-.05.08s0,0,0,0l-.11.12h0l-.17.16h.42l.08,0,.05,0,.06,0,0,0,0,0a.05.05,0,0,1,0,0s0,0,0,0,0,0,0,.05a.64.64,0,0,0,0,.07.06.06,0,0,0,0,0l0,.08,0,0a.68.68,0,0,1-.12.12l-.18.15h.23c.45,0,.6.29.35.56a.77.77,0,0,1-.13.12l-.18.14h.23c.25,0,.4.12.44.25a.26.26,0,0,1,0,.22.65.65,0,0,1-.22.22l-.19.13.23,0c.32,0,.47.2.43.38a.59.59,0,0,1-.28.32l-.2.11.23,0c.25,0,.39.16.41.3s-.08.29-.3.4l-.21.11.23,0a.76.76,0,0,1,.16.06c.34.15.32.46-.09.65l-.21.1.22.06a.67.67,0,0,1,.17.06c.23.12.28.32.13.48a.69.69,0,0,1-.26.17l-.22.08.23.08a.55.55,0,0,1,.34.25c.06.13,0,.28-.19.39l-.15.07-.06,0-.17,0,.22.09.16.07c.22.15.24.35.08.49l0,0a.73.73,0,0,1-.25.12l-.22.06.21.09c.29.14.38.34.29.49a.51.51,0,0,1-.36.22l-.18,0h0l.21.11.14.09a.35.35,0,0,1,.16.32c0,.13-.16.25-.41.29l-.23,0,.2.12c.22.13.31.28.28.42a.2.2,0,0,1-.05.09.51.51,0,0,1-.38.18l-.23,0,.19.13.14.1a.47.47,0,0,1,.12.23.17.17,0,0,1,0,.1c.43-.12.81-.22,1.15-.33a74.2,74.2,0,0,0,3.44-7.26c0-4.83-1.49-13.74-11.56-16.49-14.08-3.84-22.23,2.17-25.94,6.11l-7.75-7.34,5.72-8.72s14.07,6.59,24.53-2.37c8.23-7.06,17.19-3.41,20.64-1.54a76,76,0,0,0-2.17-16.62c-7.9-14.51-22.55-23.89-22.55-23.89a18.32,18.32,0,0,0-.48-2.68h-.21l-.13,0,.09.1h0a.29.29,0,0,1,.08.14.08.08,0,0,1,0,0,.19.19,0,0,1,0,.08l0,0a.09.09,0,0,1-.06,0l-.05,0h-.14l-.13,0,.08.1a.56.56,0,0,1,.08.15v0a.19.19,0,0,1,0,.08l0,0-.06,0h-.08l-.12,0-.13,0,.08.11a.34.34,0,0,1,.07.15v0a.14.14,0,0,1,0,.07l0,0-.07,0h-.07l-.13,0-.12,0,.07.12a.47.47,0,0,1,.06.15.08.08,0,0,1,0,0,.08.08,0,0,1,0,.07l0,0-.07,0h0l-.15,0-.12,0,.06.12a.26.26,0,0,1,.05.15s0,0,0,0a.19.19,0,0,1,0,.08s0,0,0,0a.2.2,0,0,1-.08,0h0a.62.62,0,0,1-.16,0l-.12-.05.06.11a.34.34,0,0,1,0,.16v0a.09.09,0,0,1,0,.07l0,0a.15.15,0,0,1-.1,0h0a.41.41,0,0,1-.17-.05l-.12-.06,0,.12a.32.32,0,0,1,0,.16v0l0,.07,0,0a.18.18,0,0,1-.1,0h0a.32.32,0,0,1-.17-.06l-.12-.06.05.12a.5.5,0,0,1,0,.16s0,0,0,0a.15.15,0,0,1,0,.08v0a.17.17,0,0,1-.1,0h0a.3.3,0,0,1-.15,0l-.12-.08,0,.13a.31.31,0,0,1,0,.16v0a.19.19,0,0,1-.05.09h0l-.09,0h-.05a.33.33,0,0,1-.14-.06l-.11-.08,0,.13a.3.3,0,0,1,0,.16,0,0,0,0,1,0,0,.13.13,0,0,1,0,.09h0a.1.1,0,0,1-.08,0h-.05a.4.4,0,0,1-.15-.07l-.1-.08,0,.13a.43.43,0,0,1,0,.16v0a.15.15,0,0,1-.06.09h0L130,42H130a.34.34,0,0,1-.14-.08l-.1-.09,0,.13a.39.39,0,0,1,0,.16s0,0,0,0a.16.16,0,0,1-.07.09h-.14a.31.31,0,0,1-.13-.08l-.1-.1,0,.13a.63.63,0,0,1,0,.16v0s0,.07-.07.08h-.06l0,0h0a.22.22,0,0,1-.13-.09l-.09-.1v.13a.37.37,0,0,1,0,.16,0,0,0,0,0,0,0,.18.18,0,0,1-.08.07h-.05l0,0h0a.35.35,0,0,1-.12-.1l-.09-.1v.13a.38.38,0,0,1,0,.16v0a.13.13,0,0,1-.08.07h-.1l0,0a.3.3,0,0,1-.12-.11l-.08-.1v.13a.34.34,0,0,1,0,.16v0a.16.16,0,0,1-.08.06h0l-.06,0,0,0a.34.34,0,0,1-.12-.12l-.07-.11,0,.14h0a.38.38,0,0,1-.06.17l0,0-.07,0h0l-.06,0,0,0a.26.26,0,0,1-.11-.12l-.07-.12,0,.14h0a.54.54,0,0,1-.07.17l0,0a.13.13,0,0,1-.07,0h0l-.07,0,0,0a.49.49,0,0,1-.1-.13l-.06-.12,0,.13a.54.54,0,0,1-.08.17l0,0a.09.09,0,0,1-.07,0h0l-.06,0,0,0a.26.26,0,0,1-.1-.14L126,43l0,.13a.35.35,0,0,1-.09.16l0,0-.08,0h0a.15.15,0,0,1-.07,0l0,0a.36.36,0,0,1-.1-.15l0-.12,0,.12c0,.14-.12.21-.2.21s-.16-.07-.2-.21l0-.12,0,.12a.36.36,0,0,1-.1.15l0,0a.15.15,0,0,1-.07,0h0l-.08,0,0,0a.35.35,0,0,1-.09-.16l0-.13-.06.12a.32.32,0,0,1-.1.14l0,0a.15.15,0,0,1-.07,0h0a.13.13,0,0,1-.08,0l0,0a.38.38,0,0,1-.08-.17l0-.13L124,43a.36.36,0,0,1-.11.13l0,0-.07,0h0a.1.1,0,0,1-.07,0l0,0a.38.38,0,0,1-.07-.17l0-.14-.07.12a.26.26,0,0,1-.11.12l0,0-.06,0h0l-.08,0,0,0a.38.38,0,0,1-.06-.17h0l0-.14-.07.11a.34.34,0,0,1-.12.12l0,0,0,0h0a.16.16,0,0,1-.08-.06v0a.34.34,0,0,1,0-.16V42.6l-.08.1a.3.3,0,0,1-.12.11l0,0h-.1a.13.13,0,0,1-.08-.07v0a.38.38,0,0,1,0-.16v-.13l-.09.1a.35.35,0,0,1-.12.1h0l-.05,0h0a.14.14,0,0,1-.08-.07s0,0,0,0a.26.26,0,0,1,0-.16v-.13l-.09.1a.26.26,0,0,1-.13.09h0l0,0h-.06s0,0-.07-.08v0a.63.63,0,0,1,0-.16l0-.13-.1.1a.31.31,0,0,1-.13.08h-.14a.16.16,0,0,1-.07-.09,0,0,0,0,1,0,0,.39.39,0,0,1,0-.16l0-.13-.1.09a.34.34,0,0,1-.14.08h-.06l-.07,0h0a.15.15,0,0,1-.06-.09v0a.43.43,0,0,1,0-.16l0-.13-.11.08a.31.31,0,0,1-.14.07h-.06a.13.13,0,0,1-.08,0h0a.2.2,0,0,1-.06-.09v0a.3.3,0,0,1,0-.16l0-.13-.11.08a.32.32,0,0,1-.15.06s0,0,0,0h0l-.09,0h0a.19.19,0,0,1,0-.09v0a.3.3,0,0,1,0-.16l0-.13-.11.08a.3.3,0,0,1-.15,0h0a.16.16,0,0,1-.09,0v0a.15.15,0,0,1,0-.08s0,0,0,0a.5.5,0,0,1,0-.16l0-.12-.12.06a.35.35,0,0,1-.17.06h0a.18.18,0,0,1-.1,0s0,0,0,0l0-.07v0a.32.32,0,0,1,0-.16l0-.12-.12.06a.41.41,0,0,1-.17.05h0a.15.15,0,0,1-.1,0l0,0a.09.09,0,0,1,0-.07v0a.34.34,0,0,1,0-.16l.06-.11-.12.05a.62.62,0,0,1-.16,0h0l-.08,0,0,0a.19.19,0,0,1,0-.08s0,0,0,0a.42.42,0,0,1,.06-.15l.06-.12-.12,0-.15,0h-.05l-.07,0,0,0a.64.64,0,0,1,0-.07v0a.47.47,0,0,1,.06-.15l.07-.12-.12,0-.13,0h-.07l-.07,0,0,0a.14.14,0,0,1,0-.07v0a.34.34,0,0,1,.07-.15l.08-.11-.13,0-.12,0h-.08a.09.09,0,0,1-.06,0l0,0a.19.19,0,0,1,0-.08v0a.56.56,0,0,1,.08-.15l.08-.1-.13,0H117l-.06,0a.1.1,0,0,1,0,0l0,0a.19.19,0,0,1,0-.08v0a.46.46,0,0,1,.09-.14h0l.09-.1-.13,0h-.2l0,0,0,0a.11.11,0,0,1,0-.08s0,0,0,0a.28.28,0,0,1,.09-.14l.1-.1h-.19l-.07,0h-.06s0,0-.06,0l0,0a.22.22,0,0,1,0-.08s0,0,0,0a.26.26,0,0,1,.1-.14l.1-.09h-.16l-.09,0h-.07l0-.05s0,0,0,0,0,0,0-.08,0,0,0,0a.42.42,0,0,1,.11-.14l.1-.08h-.13c-.29,0-.36-.21-.13-.38l.11-.08h-.13c-.29,0-.35-.23-.11-.39l.11-.08h-.13c-.29,0-.33-.25-.08-.4l.11-.06-.13,0c-.14,0-.22-.09-.23-.17a.14.14,0,0,1,0-.12.33.33,0,0,1,.14-.11l.12-.06-.13,0c-.29-.07-.31-.29,0-.41l.12,0-.13,0c-.28-.07-.29-.29,0-.4l.12-.05-.13,0c-.27-.09-.27-.31,0-.4l.13-.05-.12,0c-.27-.11-.26-.33,0-.41l.13,0-.12-.06c-.14-.06-.2-.14-.19-.22s.09-.15.23-.18l.13,0-.12-.06c-.26-.13-.22-.35.06-.4l.13,0-.11-.07c-.13-.07-.18-.16-.16-.24a.25.25,0,0,1,.24-.15l.13,0-.11-.07c-.24-.16-.18-.37.11-.39h.13l-.11-.08c-.23-.17-.16-.38.13-.38h.13l-.1-.09a.32.32,0,0,1-.11-.13s0,0,0,0a.21.21,0,0,1,0-.08l0,0,0-.05.07,0,.09,0h.16l-.1-.09a.31.31,0,0,1-.1-.14s0,0,0,0,0-.06,0-.08l0,0s0,0,.06-.05h.06l.07,0h0l.14,0-.1-.1a.33.33,0,0,1-.09-.14s0,0,0,0a.11.11,0,0,1,0-.08l0,0,0-.05h.06l.06,0h.08l.13,0-.09-.1a.46.46,0,0,1-.09-.14v0a.17.17,0,0,1,0-.07l0,0,0,0h.2l.13,0-.08-.11a.41.41,0,0,1-.08-.14v0a.19.19,0,0,1,0-.08l0,0a.09.09,0,0,1,.06,0h.08a.25.25,0,0,1,.12,0l.13,0-.08-.11a.34.34,0,0,1-.07-.15v0a.24.24,0,0,1,0-.08s0,0,0,0l.07,0h.07l.13,0,.12,0-.07-.11a.58.58,0,0,1-.06-.15v0s0-.05,0-.08l0,0s0,0,.07,0h.05l.15,0,.12,0-.06-.11a.4.4,0,0,1-.06-.16v0a.19.19,0,0,1,0-.08l0,0a.19.19,0,0,1,.08,0h0a.37.37,0,0,1,.16,0l.12,0-.06-.12a.34.34,0,0,1,0-.15v0a.11.11,0,0,1,0-.08s0,0,0,0a.15.15,0,0,1,.1,0h0a.41.41,0,0,1,.17.05l.12.06,0-.13a.31.31,0,0,1,0-.15v0l0-.08,0,0a.17.17,0,0,1,.1,0h0a.45.45,0,0,1,.17.05l.11.07,0-.12a.61.61,0,0,1,0-.16s0,0,0,0a.2.2,0,0,1,0-.08h0a.16.16,0,0,1,.09,0h0a.47.47,0,0,1,.15.06l.11.07,0-.12a.3.3,0,0,1,0-.16v0a.22.22,0,0,1,0-.08h0a.12.12,0,0,1,.09,0h0a.34.34,0,0,1,.15.07L120,26l0-.13a.3.3,0,0,1,0-.16v0a.2.2,0,0,1,.06-.09h0l.08,0h.06a.5.5,0,0,1,.14.08l.11.08,0-.13a.43.43,0,0,1,0-.16s0,0,0,0a.15.15,0,0,1,.06-.09h0l.07,0h.06a.25.25,0,0,1,.14.08l.1.09,0-.14a.35.35,0,0,1,0-.15s0,0,0,0a.16.16,0,0,1,.07-.09h0l0,0H121a.51.51,0,0,1,.13.09l.1.09,0-.13a.78.78,0,0,1,0-.16v0s0-.07.07-.08h.14a.38.38,0,0,1,.13.1l.09.1v-.14a.29.29,0,0,1,0-.16v0a.16.16,0,0,1,.08-.08h.1l0,0a.35.35,0,0,1,.12.1l.09.1v-.13a.35.35,0,0,1,0-.16v0a.13.13,0,0,1,.08-.07h0l.05,0h0a.6.6,0,0,1,.12.11l.08.11v-.13a.34.34,0,0,1,0-.16v0a.18.18,0,0,1,.08-.07h0l0,0h0a.68.68,0,0,1,.12.12l.07.11,0-.13a.38.38,0,0,1,.06-.17l0,0s0,0,.08,0h0l.06,0h0a.36.36,0,0,1,.11.13l.07.11,0-.13a.38.38,0,0,1,.07-.17l0,0a.1.1,0,0,1,.07,0h0l.07,0h0a.4.4,0,0,1,.11.14l.06.12,0-.13a.34.34,0,0,1,.08-.17l0,0s0,0,.08,0h0a.15.15,0,0,1,.07,0h0a.39.39,0,0,1,.1.14l.06.12,0-.12a.31.31,0,0,1,.09-.16s0,0,0,0,0,0,.08,0h0a.15.15,0,0,1,.07,0l0,0a.36.36,0,0,1,.1.15l0,.12,0-.13a.27.27,0,0,1,.09-.15.15.15,0,0,1,.22,0,.27.27,0,0,1,.09.15l0,.13,0-.12a.36.36,0,0,1,.1-.15l0,0a.15.15,0,0,1,.07,0h0s0,0,.08,0,0,0,0,0a.31.31,0,0,1,.09.16l0,.12.06-.12a.3.3,0,0,1,.1-.14h0l.06,0h0a.1.1,0,0,1,.07,0l0,0a.45.45,0,0,1,.08.17l0,.13.06-.12a.56.56,0,0,1,.1-.14h0l.07,0h0a.13.13,0,0,1,.07,0l0,0a.54.54,0,0,1,.07.17l0,.13.07-.11a.36.36,0,0,1,.11-.13h0a58.53,58.53,0,0,0-6.37-7.45,76,76,0,0,0-93.63,14.1c1.63,11.63,12.2,15.66,12.2,15.66-8.22,1.19-13.72,3.37-19.24,13.92C14.88,70.46,11.5,73.81,7,75.82c-.21,2.31-.33,4.64-.33,7a76.18,76.18,0,0,0,104.85,70.58A30.8,30.8,0,0,0,107.55,147.83Zm-48.9-46c-.75,0-1.81.08-3.09.11s-2.78.08-4.38.09l-5,0-5,0c-1.6,0-3.09-.07-4.37-.09s-2.35-.09-3.09-.11l-1.17-.06,1.17,0c.74,0,1.81-.09,3.09-.11s2.77-.08,4.37-.09l5,0,5,0c1.6,0,3.1.06,4.38.09s2.34.08,3.09.11l1.17,0Zm-9,4.36A2.26,2.26,0,0,1,52,107.52l-4.29.41A2.26,2.26,0,0,1,49.68,106.17Zm-3.59-2.09-2.48,0-2.48,0c-.79,0-1.53-.07-2.16-.09s-1.16-.09-1.53-.11l-.58-.06.58-.06c.37,0,.9-.08,1.53-.1s1.37-.08,2.16-.09l2.48,0,2.48,0c.79,0,1.53.06,2.16.09s1.16.08,1.53.1l.58.06-.58.06c-.37,0-.9.08-1.53.11S46.88,104.07,46.09,104.08Zm6,4.85a2.26,2.26,0,0,1-4.28.42Zm3.66-42a.94.94,0,0,0,.1.28l-.1.07Zm45.92,28-.34-.17.15.35c.25.56.06.94-.35.94a1.06,1.06,0,0,1-.51-.16l-.34-.19.14.36c.21.56,0,.92-.37.92a1.11,1.11,0,0,1-.54-.18l-.32-.21.12.36c.17.56,0,.91-.39.91a1,1,0,0,1-.56-.22l-.31-.22.1.37c.14.54-.06.88-.4.88a1,1,0,0,1-.58-.25l-.3-.24.08.38c.11.54-.09.86-.42.86a.93.93,0,0,1-.59-.28l-.29-.25.06.38c.08.53-.13.84-.44.84a.9.9,0,0,1-.6-.31l-.27-.27,0,.38c0,.52-.15.81-.45.81a.85.85,0,0,1-.61-.34l-.26-.28,0,.38c0,.51-.19.79-.48.79a.87.87,0,0,1-.61-.37l-.24-.29V101c0,.49-.21.76-.49.76a.86.86,0,0,1-.62-.4l-.22-.31,0,.38c0,.48-.24.74-.51.74a.8.8,0,0,1-.61-.44l-.21-.32,0,.38c0,.47-.27.72-.52.72s-.43-.16-.62-.47l-.19-.33-.06.37c-.08.45-.3.69-.55.69s-.43-.17-.61-.5l-.17-.34-.08.37c-.1.43-.32.66-.56.66s-.44-.18-.6-.54l-.16-.35-.1.37c-.12.42-.34.63-.58.63s-.44-.19-.59-.57l-.14-.35-.12.36c-.13.4-.36.6-.58.6s-.45-.2-.59-.6l-.12-.36-.14.35c-.14.38-.37.57-.59.57s-.46-.21-.57-.63l-.1-.37-.16.35c-.16.36-.39.54-.6.54s-.46-.23-.56-.66l-.08-.37-.18.34c-.17.33-.4.5-.61.5s-.47-.24-.54-.69l-.06-.37-.2.33a.8.8,0,0,1-.61.47c-.26,0-.48-.25-.53-.72l0-.38-.21.32a.81.81,0,0,1-.62.44c-.26,0-.48-.26-.51-.74l0-.38-.23.31a.83.83,0,0,1-.61.4c-.28,0-.49-.27-.5-.76v-.38l-.24.29a.87.87,0,0,1-.62.37c-.28,0-.49-.28-.47-.79l0-.38-.26.28a.87.87,0,0,1-.61.34c-.3,0-.51-.29-.46-.81l0-.38-.27.27a.94.94,0,0,1-.6.31c-.32,0-.52-.31-.44-.84l0-.38-.28.25a1,1,0,0,1-.59.28c-.33,0-.53-.32-.42-.86l.08-.38-.3.24a1,1,0,0,1-.58.25c-.35,0-.54-.34-.4-.88l.09-.37-.31.22a1,1,0,0,1-.56.22c-.36,0-.55-.35-.38-.91l.12-.36-.33.21a1.08,1.08,0,0,1-.54.18c-.38,0-.57-.36-.36-.92l.13-.36-.33.19a1.1,1.1,0,0,1-.52.16c-.4,0-.59-.38-.35-.94l.15-.35-.34.17a1.15,1.15,0,0,1-.49.14c-.43,0-.61-.4-.33-1l.17-.34L63,93.9a1.27,1.27,0,0,1-.46.11c-.46,0-.64-.41-.32-1l.19-.33-.36.13a1.22,1.22,0,0,1-.42.09c-.49,0-.67-.43-.31-1l.2-.32-.36.11a1.14,1.14,0,0,1-.38.07c-.53,0-.71-.45-.31-1l.22-.31-.37.09a1.39,1.39,0,0,1-.33,0c-.56,0-.74-.47-.3-1l.24-.29-.38.07-.28,0c-.6,0-.79-.49-.3-1l.25-.28-.38.05-.21,0c-.66,0-.85-.52-.31-1.06l.26-.27-.38,0H58c-.71,0-.9-.55-.32-1.08l.28-.25h-.45c-.78,0-1-.57-.35-1.09l.3-.24h-.39c-.83,0-1-.61-.36-1.11l.31-.23-.38,0c-.84,0-1-.67-.3-1.13l.32-.21-.38,0c-.83-.1-1-.72-.25-1.14l.33-.2L56,80.07c-.83-.14-.93-.76-.19-1.15l.34-.18-.37-.08c-.82-.18-.88-.81-.12-1.16l.35-.16-.37-.1c-.81-.22-.84-.86-.06-1.16l.35-.14-.36-.12c-.79-.27-.79-.9,0-1.17l.36-.12-.35-.14c-.78-.31-.75-.94.06-1.16l.37-.11L55.67,73c-.76-.35-.7-1,.12-1.16l.37-.09-.34-.17c-.74-.39-.64-1,.19-1.15l.37-.07-.33-.19c-.72-.43-.58-1,.25-1.14l.38,0-.32-.22c-.7-.46-.54-1.07.3-1.12l.38,0-.31-.23c-.67-.5-.47-1.1.36-1.11h.39l-.3-.25c-.63-.51-.43-1.09.35-1.09h.07l.38,0-.28-.26c-.58-.53-.39-1.07.32-1.07h.15l.38,0-.26-.28c-.54-.54-.35-1.05.31-1.05h.21l.38.06-.25-.29c-.49-.54-.3-1,.3-1l.28,0,.38.08-.24-.3c-.44-.55-.26-1,.3-1a1.35,1.35,0,0,1,.33,0l.37.1-.22-.31c-.4-.56-.22-1,.31-1a1.14,1.14,0,0,1,.38.07l.36.11-.2-.32c-.36-.56-.18-1,.31-1a1.18,1.18,0,0,1,.42.08l.36.14-.19-.34c-.32-.56-.14-1,.32-1a1.09,1.09,0,0,1,.46.11l.35.15-.17-.34c-.28-.57-.1-1,.33-1a1.12,1.12,0,0,1,.49.13l.34.18-.15-.36c-.24-.56,0-.94.35-.94a1.1,1.1,0,0,1,.52.16l.33.19-.13-.35c-.21-.56,0-.93.36-.93a1,1,0,0,1,.54.19l.33.21-.12-.37c-.17-.55,0-.9.38-.9a1,1,0,0,1,.56.22l.31.22-.09-.37c-.14-.55,0-.88.4-.88a1,1,0,0,1,.58.24l.3.24-.08-.37c-.11-.54.09-.86.42-.86a.93.93,0,0,1,.59.27l.28.26,0-.38c-.08-.53.12-.84.44-.84a.94.94,0,0,1,.6.31l.27.27,0-.38c0-.52.16-.82.46-.82a.91.91,0,0,1,.61.34l.26.29,0-.39c0-.5.19-.79.47-.79a.86.86,0,0,1,.62.38l.24.29V49.5c0-.49.22-.77.5-.77a.82.82,0,0,1,.61.41l.23.31,0-.38c0-.49.25-.74.51-.74a.82.82,0,0,1,.62.43l.21.32,0-.38c0-.46.27-.71.53-.71a.77.77,0,0,1,.61.47l.2.33.06-.38c.07-.45.29-.68.54-.68s.44.16.61.5l.18.34.08-.37c.1-.44.32-.66.56-.66s.44.18.6.53l.16.35.1-.37c.11-.41.34-.62.57-.62s.45.18.59.56l.14.36.12-.36c.14-.4.36-.6.59-.6s.45.2.58.6l.12.36.14-.36c.15-.38.38-.56.59-.56s.46.21.58.62l.1.37.16-.35c.16-.35.38-.53.6-.53s.46.22.56.66l.08.37.17-.34c.18-.34.41-.5.61-.5s.47.23.55.68l.06.38.19-.33c.19-.32.41-.47.62-.47s.47.25.52.71l0,.38.21-.32a.81.81,0,0,1,.61-.43c.27,0,.48.25.51.74l0,.38.22-.31a.85.85,0,0,1,.62-.41c.28,0,.49.28.49.77v.38l.24-.29a.86.86,0,0,1,.61-.38c.29,0,.5.29.48.79l0,.39.26-.29a.89.89,0,0,1,.61-.34c.3,0,.5.3.45.82l0,.38.27-.27a.9.9,0,0,1,.6-.31c.31,0,.52.31.44.84l-.06.38.29-.26a.91.91,0,0,1,.59-.27c.33,0,.53.32.42.86l-.08.37.3-.24a.94.94,0,0,1,.58-.24c.34,0,.54.33.4.88l-.1.37.31-.22a1,1,0,0,1,.56-.22c.37,0,.56.35.39.9l-.12.37.32-.21a1,1,0,0,1,.54-.19c.39,0,.58.37.37.93l-.14.35.34-.19a1.06,1.06,0,0,1,.51-.16c.41,0,.6.38.35.94l-.15.36.34-.18a1.16,1.16,0,0,1,.49-.13c.43,0,.62.39.34,1l-.17.34.35-.15a1.06,1.06,0,0,1,.46-.11c.45,0,.64.41.32,1l-.19.34.36-.14a1.15,1.15,0,0,1,.42-.08c.49,0,.67.43.31,1l-.21.32.37-.11a1.14,1.14,0,0,1,.38-.07c.52,0,.7.45.3,1L105,60l.37-.1a1.42,1.42,0,0,1,.34,0c.56,0,.74.47.3,1l-.24.3.37-.08.28,0c.61,0,.79.5.31,1l-.26.29.38-.06h.22c.65,0,.84.51.31,1.05l-.27.28.38,0h.15c.71,0,.91.54.33,1.07l-.29.26.39,0h.07c.78,0,1,.58.34,1.09l-.29.25h.38c.84,0,1,.61.36,1.11l-.31.23.39,0c.83,0,1,.66.3,1.12L109,69l.38,0c.37,0,.6.19.67.38l-4.11.64a23.62,23.62,0,0,0-8.17-13.16L90.06,67.45A10.78,10.78,0,0,1,93,72l-4.62.72a6.06,6.06,0,1,0,.3,4.14l4.77-.74a8.69,8.69,0,0,1-.16,1.14l12.45,4a24.06,24.06,0,0,0,.79-6.1q0-.56,0-1.11l4-.62c.26.28.13.67-.43.89l-.36.14.37.12c.79.27.79.9,0,1.17l-.37.12.36.14c.78.3.74.94-.06,1.16l-.37.1.35.16c.76.35.69,1-.13,1.16l-.37.08.34.18c.74.39.64,1-.18,1.15l-.38.06.33.2c.72.42.59,1-.24,1.14l-.38,0,.32.21c.7.46.53,1.08-.3,1.13l-.39,0,.31.23c.67.5.48,1.1-.36,1.11h-.38l.29.24c.63.52.44,1.09-.34,1.09h-.46l.29.25c.58.53.38,1.08-.33,1.08h-.15l-.38,0,.27.27c.53.54.34,1.06-.31,1.06l-.22,0-.38-.05.26.28c.48.55.3,1-.31,1l-.28,0-.37-.07.24.29c.44.56.26,1-.3,1a1.47,1.47,0,0,1-.34,0l-.37-.09.22.31c.4.56.22,1-.3,1a1.14,1.14,0,0,1-.38-.07l-.37-.11.21.32c.36.56.18,1-.31,1a1.18,1.18,0,0,1-.42-.09l-.36-.13.19.33c.32.57.13,1-.32,1a1.23,1.23,0,0,1-.46-.11l-.35-.15.17.34c.28.56.09,1-.34,1A1.19,1.19,0,0,1,101.68,94.91Zm-42.21-.68a2.27,2.27,0,0,1-1.5,2.2l-.13-4.3A2.25,2.25,0,0,1,59.47,94.23Zm51.9-30.95-.1-.11,0,0s0-.05,0-.07l0-.05s0,0,0-.06,0,0,0,0a.11.11,0,0,1,0,0l0,0s0,0,0,0l0,0,0,0,0,0h.25l.21,0-.15-.15a.47.47,0,0,1-.09-.12l0,0a.3.3,0,0,1,0-.08.06.06,0,0,0,0,0s0,0,0-.06,0,0,0,0,0,0,0,0l0,0,0,0,0,0,.05,0h0l.07,0h.2l.2,0-.14-.16a.83.83,0,0,1-.08-.12s0,0,0,0a.21.21,0,0,1,0-.07.08.08,0,0,1,0,0s0-.05,0-.07,0,0,0,0a.43.43,0,0,1,0-.05l0,0,0,0,0,0,.06,0h.15l.16,0,.2,0-.13-.16a.81.81,0,0,1-.11-.2v0a.43.43,0,0,1,0-.16v0a.16.16,0,0,1,.09-.11h0a.38.38,0,0,1,.16,0h0l.17,0,.21,0-.12-.17a.75.75,0,0,1-.1-.2,0,0,0,0,1,0,0,.29.29,0,0,1,0-.16,0,0,0,0,1,0,0,.25.25,0,0,1,.08-.1h0a.33.33,0,0,1,.15,0h0l.18,0,.21.06-.12-.18a.6.6,0,0,1-.08-.19.06.06,0,0,1,0,0,.38.38,0,0,1,0-.15s0,0,0,0a.18.18,0,0,1,.08-.09s0,0,0,0a.33.33,0,0,1,.15,0h0a.59.59,0,0,1,.21,0l.2.08-.11-.19a.56.56,0,0,1-.07-.19.06.06,0,0,1,0,0,.24.24,0,0,1,0-.15h0a.16.16,0,0,1,.07-.09l0,0a.32.32,0,0,1,.14,0h.12l.14,0,.2.09-.1-.19a.82.82,0,0,1-.06-.19s0,0,0,0a.34.34,0,0,1,0-.15h0a.14.14,0,0,1,.08-.09l0,0a.28.28,0,0,1,.13,0h.13l.15,0,.19.1-.09-.2a.77.77,0,0,1,0-.19v0a.28.28,0,0,1,0-.13h0a.23.23,0,0,1,.07-.1h0a.2.2,0,0,1,.11,0h.15a.47.47,0,0,1,.15.06l.18.11-.07-.2a.46.46,0,0,1,0-.19v0a.22.22,0,0,1,0-.12v0l.08-.09h0l.1,0h0l.09,0h0l.15.07.18.12-.06-.2a.72.72,0,0,1,0-.19v0a.45.45,0,0,1,0-.11,0,0,0,0,1,0,0,.18.18,0,0,1,.07-.08h0a.17.17,0,0,1,.1,0h0l.09,0h0l.16.09.17.12,0-.2a.68.68,0,0,1,0-.19s0,0,0,0a.36.36,0,0,1,0-.11v0a.24.24,0,0,1,.08-.09h0a.17.17,0,0,1,.1,0h0l.1,0,0,0,.16.09.16.14,0-.21a.57.57,0,0,1,0-.18v0l0-.1s0,0,0,0a.27.27,0,0,1,.07-.08h0l.11,0h0l.11,0,0,0,.16.11.16.14,0-.21a.54.54,0,0,1,0-.18s0,0,0,0a.16.16,0,0,1,0-.09.08.08,0,0,1,0,0l0-.06,0,0,.1,0h0l.12,0,0,0a.56.56,0,0,1,.16.12l.15.14,0-.21a1,1,0,0,1,0-.17.09.09,0,0,0,0-.05l0-.09,0,0s0,0,0-.06l0,0a.17.17,0,0,1,.1,0h0a.37.37,0,0,1,.14,0l0,0a.61.61,0,0,1,.16.13l.14.16v-.21a1,1,0,0,1,0-.18l0,0,0-.09s0,0,0,0l.06-.06,0,0,.07,0h0a.43.43,0,0,1,.14,0l0,0a.58.58,0,0,1,.15.13l.14.17v-.21a.79.79,0,0,1,0-.17s0,0,0,0l0-.08,0,0,0,0,0,0,.07,0h0a.28.28,0,0,1,.15,0l0,0a.78.78,0,0,1,.15.16l.13.17v-.21a.43.43,0,0,1,0-.17.05.05,0,0,1,0,0l0-.08,0,0,0,0,0,0,.06,0h0a.3.3,0,0,1,.15,0l0,0a.65.65,0,0,1,.15.17l.12.18,0-.21a.71.71,0,0,1,0-.17l0,0a.3.3,0,0,1,0-.08l0,0,0,0,0,0h.14l.06,0,0,0,.07,0,0,0a.5.5,0,0,1,.08.12l.11.18,0-.2a.6.6,0,0,1,0-.16.05.05,0,0,1,0,0,.59.59,0,0,1,0-.08l0,0,0,0,0,0H123l.05,0,0,0,.06.06,0,0a.5.5,0,0,1,.08.12l.1.19,0-.2a.76.76,0,0,1,.06-.16l0,0,0-.07,0,0,0,0h.18l.06,0,0,0,.06.06,0,0a.74.74,0,0,1,.08.13l.08.19.06-.2a.52.52,0,0,1,.06-.15s0,0,0,0l0-.07,0,0a.09.09,0,0,1,.05,0h0l0,0h.09l0,0,0,0a.15.15,0,0,1,0,.06l0,0a.4.4,0,0,1,.07.13l.08.2.07-.2a.55.55,0,0,1,.14-.25.27.27,0,0,1,.18-.08.29.29,0,0,1,.18.08.55.55,0,0,1,.14.25l.07.2.08-.2a.61.61,0,0,1,.07-.14l0,0,.06-.06,0,0,.06,0h.14l0,0a.09.09,0,0,1,0,0l0,0,.05.07,0,0,.06.15.06.2.08-.19a.74.74,0,0,1,.08-.13l0,0,.06-.06,0,0,.06,0H127l0,0,0,0,0,.07,0,0a.75.75,0,0,1,.05.16l0,.2.1-.19a.5.5,0,0,1,.08-.12l0,0,.06-.06,0,0,0,0h.14l0,0,.05,0,0,0a.56.56,0,0,1,.05.08l0,0a.62.62,0,0,1,0,.16l0,.2.11-.18a.5.5,0,0,1,.08-.12l0,0a.18.18,0,0,1,.07,0l0,0,.06,0h.14l0,0,.05,0,0,0s0,.05,0,.08l0,0a.71.71,0,0,1,0,.17l0,.21.12-.18a.65.65,0,0,1,.15-.17l0,0a.3.3,0,0,1,.14,0h0l.06,0,0,0,.05,0a.05.05,0,0,1,0,0,.2.2,0,0,1,0,.08.05.05,0,0,1,0,0,.74.74,0,0,1,0,.17v.21l.13-.17a.78.78,0,0,1,.15-.16l0,0a.28.28,0,0,1,.15,0h0l.07,0,0,0,.05,0,0,0,0,.08s0,0,0,0a.79.79,0,0,1,0,.17v.21l.14-.17a.58.58,0,0,1,.15-.13l0,0a.37.37,0,0,1,.14,0h0l.07,0,0,0,.05.06,0,0,0,.09,0,0a1,1,0,0,1,0,.18v.21l.14-.16a.61.61,0,0,1,.16-.13l0,0a.42.42,0,0,1,.15,0h0a.17.17,0,0,1,.1,0l0,0a.1.1,0,0,1,.05.06s0,0,0,0a.36.36,0,0,1,0,.09.09.09,0,0,0,0,.05,1,1,0,0,1,0,.17l0,.21.15-.14a.56.56,0,0,1,.16-.12l0,0,.12,0h0l.1,0,0,0a.17.17,0,0,1,.06.06.08.08,0,0,1,0,0l0,.09s0,0,0,0a1.21,1.21,0,0,1,0,.18l0,.21.16-.14a.76.76,0,0,1,.16-.11l0,0,.1,0h0l.11,0h0a.24.24,0,0,1,.06.08l0,0,0,.1v0a.57.57,0,0,1,0,.18l0,.21.16-.14.16-.09,0,0,.1,0h0a.19.19,0,0,1,.1,0h0a.24.24,0,0,1,.08.09,0,0,0,0,0,0,0,.36.36,0,0,1,0,.11s0,0,0,0a.68.68,0,0,1,0,.19l0,.2.17-.12.15-.09h.05l.09,0h0a.17.17,0,0,1,.1,0h0a.27.27,0,0,1,.07.08,0,0,0,0,1,0,0,.22.22,0,0,1,0,.11.09.09,0,0,1,0,0,1.62,1.62,0,0,1,0,.19l-.06.2.18-.12.15-.07h0l.09,0h0l.09,0h0l.08.09v0a.22.22,0,0,1,0,.12v0a.72.72,0,0,1,0,.19l-.08.2.19-.11a.47.47,0,0,1,.15-.06h.15a.2.2,0,0,1,.11,0h0a.23.23,0,0,1,.07.1h0a.53.53,0,0,1,0,.13v0a.77.77,0,0,1,0,.19l-.09.2.19-.1.15,0H136a.29.29,0,0,1,.14,0l0,0a.14.14,0,0,1,.08.1h0a.34.34,0,0,1,0,.15s0,0,0,0a.82.82,0,0,1-.06.19l-.1.19.2-.09.14,0h.12a.32.32,0,0,1,.14,0l0,0a.16.16,0,0,1,.07.09h0a.24.24,0,0,1,0,.15v0a.56.56,0,0,1-.07.19l-.11.19.2-.08a.59.59,0,0,1,.21,0h0a0,0,0,0,0,0,0,.33.33,0,0,1,.15,0s0,0,0,0a.18.18,0,0,1,.08.09s0,0,0,0a.38.38,0,0,1,0,.15.06.06,0,0,1,0,0,.6.6,0,0,1-.08.19l-.12.18.2-.06.19,0h0a.35.35,0,0,1,.16,0h0a.25.25,0,0,1,.08.1v0a.43.43,0,0,1,0,.16v0a.75.75,0,0,1-.1.2l-.12.17.21,0,.17,0h0a.38.38,0,0,1,.16,0h0a.19.19,0,0,1,.09.11v0a.43.43,0,0,1,0,.16,0,0,0,0,0,0,0,1.36,1.36,0,0,1-.11.2l-.14.16.21,0,.16,0h.15l.06,0,0,0,0,0s0,0,0,0a.08.08,0,0,1,0,.05v0s0,0,0,.07a.08.08,0,0,1,0,0l0,.07,0,0a.47.47,0,0,1-.09.12l-.14.16.21,0h.2l.07,0h0l0,0,0,0,0,0,0,0s0,0,0,0v.1a.06.06,0,0,0,0,0s0,.05,0,.08l0,0a.94.94,0,0,1-.09.12l-.15.15.21,0h.25l.05,0,.05,0,0,0,0,0,0,0a.11.11,0,0,1,0,0s0,0,0,0a.14.14,0,0,1,0,.06.09.09,0,0,1,0,.05l0,.07,0,0-.1.11-.16.14h.39l.06,0,.05,0,0,0,0,0,0,0,0,0a.07.07,0,0,0,0,0v0s0,0,0,.06l0,0,0,.07,0,0-.11.11-.17.14h.21c.47,0,.58.34.2.61l-.17.13h.21c.47,0,.56.37.17.62l-.18.12.21,0c.46.06.54.4.14.63l-.18.11.2,0c.46.07.52.42.11.63l-.19.1.2,0c.46.1.49.45.07.64l-.19.08.2.06c.45.12.47.48,0,.64l-.2.08.2.07c.44.15.44.5,0,.64l-.2.07.2.08c.43.17.41.52,0,.64l-.2.06.19.08c.42.2.39.55-.07.65l-.2,0,.19.1c.41.21.35.56-.11.64l-.2,0,.18.11c.4.23.32.58-.14.63l-.21,0,.18.12c.39.25.3.59-.17.62h-.21l.17.13c.38.27.27.61-.2.61h-.21l.17.14.11.11,0,0a.3.3,0,0,1,0,.08s0,0,0,0,0,0,0,.06v0a.09.09,0,0,0,0,.05s0,0,0,0l0,0,0,0,0,0-.05,0-.06,0H139l.16.14.1.12s0,0,0,0a.3.3,0,0,1,0,.08s0,0,0,0a.14.14,0,0,1,0,.06s0,0,0,0a.09.09,0,0,1,0,0s0,0,0,0l0,0,0,0-.05,0-.05,0-.07,0h-.18l-.21,0,.15.15a.94.94,0,0,1,.09.12s0,0,0,0l0,.07a.06.06,0,0,0,0,0V76a.43.43,0,0,1,0,0l0,0,0,0,0,0,0,0,0,0h-.27l-.21,0,.14.16a.47.47,0,0,1,.09.12s0,0,0,0l0,.08s0,0,0,0,0,0,0,.06v0a.17.17,0,0,1,0,.05v0l0,0,0,0-.06,0h0l-.11,0h0l-.16,0-.21,0,.14.16a.81.81,0,0,1,.11.2,0,0,0,0,0,0,0,.43.43,0,0,1,0,.16s0,0,0,0a.17.17,0,0,1-.09.11h0a.62.62,0,0,1-.16,0h0a.51.51,0,0,1-.17,0l-.21,0,.12.17a.75.75,0,0,1,.1.2s0,0,0,0a.43.43,0,0,1,0,.16s0,0,0,0a.2.2,0,0,1-.08.1h0l-.16,0h0a.81.81,0,0,1-.19,0l-.2-.06.12.18a.6.6,0,0,1,.08.19.08.08,0,0,1,0,0,.38.38,0,0,1,0,.15v0a.18.18,0,0,1-.08.09s0,0,0,0a.33.33,0,0,1-.15,0,0,0,0,0,0,0,0h0a.59.59,0,0,1-.21,0l-.2-.07.11.18a.56.56,0,0,1,.07.19s0,0,0,0a.24.24,0,0,1,0,.15v0a.28.28,0,0,1-.07.09h0a.33.33,0,0,1-.14,0h-.12l-.14,0-.2-.09.1.19a1,1,0,0,1,.06.19.09.09,0,0,0,0,0,.32.32,0,0,1,0,.14h0a.18.18,0,0,1-.08.09l0,0a.29.29,0,0,1-.14,0h-.12l-.15-.06-.19-.1.09.2a.77.77,0,0,1,0,.19v0a.49.49,0,0,1,0,.13v0a.16.16,0,0,1-.07.09l0,0-.11,0h0l-.09,0h0a.47.47,0,0,1-.15-.06l-.19-.1.08.19a.72.72,0,0,1,0,.19v0a.2.2,0,0,1,0,.11v0a.24.24,0,0,1-.08.09h0a.14.14,0,0,1-.09,0h0l-.09,0h0a.51.51,0,0,1-.15-.07l-.18-.11.06.2c0,.07,0,.13,0,.18a.09.09,0,0,1,0,0,.2.2,0,0,1,0,.11,0,0,0,0,1,0,0l-.07.09s0,0,0,0l-.1,0h0l-.09,0H134l-.15-.08-.17-.13,0,.21a.67.67,0,0,1,0,.18s0,0,0,0a.3.3,0,0,1,0,.1,0,0,0,0,0,0,0,.24.24,0,0,1-.08.09h0a.19.19,0,0,1-.1,0h0l-.1,0,0,0-.16-.09-.16-.13,0,.2a.57.57,0,0,1,0,.18v0l0,.1s0,0,0,0a.24.24,0,0,1-.06.08h0a.2.2,0,0,1-.11,0h0l-.1,0,0,0a.7.7,0,0,1-.16-.1l-.16-.14,0,.2a1.21,1.21,0,0,1,0,.18s0,0,0,0a.94.94,0,0,1,0,.09.05.05,0,0,1,0,0,.17.17,0,0,1-.06.06s0,0,0,0a.17.17,0,0,1-.1,0h0l-.12,0,0,0a.76.76,0,0,1-.16-.11l-.15-.15,0,.21a1.08,1.08,0,0,1,0,.18.06.06,0,0,0,0,0,.36.36,0,0,1,0,.09.08.08,0,0,1,0,0,.12.12,0,0,1-.05,0l0,0a.17.17,0,0,1-.1,0h0a.42.42,0,0,1-.15,0l0,0a.61.61,0,0,1-.16-.13l-.14-.15v.21a.91.91,0,0,1,0,.17s0,0,0,0l0,.09,0,0s0,0-.05,0l0,0-.07,0h0a.25.25,0,0,1-.14,0l0,0a1,1,0,0,1-.15-.14l-.14-.17v.22a.88.88,0,0,1,0,.17l0,0,0,.08,0,0s0,0-.05,0l0,0h-.1a.44.44,0,0,1-.15-.05l0,0a.78.78,0,0,1-.15-.16l-.13-.17v.22a.76.76,0,0,1,0,.16.05.05,0,0,1,0,0,.36.36,0,0,1,0,.09l0,0-.05,0,0,0-.06,0h0a.3.3,0,0,1-.14,0l0,0a.65.65,0,0,1-.15-.17l-.12-.17,0,.21a.75.75,0,0,1,0,.16s0,0,0,0l0,.08,0,0-.05,0,0,0h-.06s0,0,0,0h-.06l-.06,0,0,0a.18.18,0,0,1-.07,0l0,0a.36.36,0,0,1-.08-.12l-.11-.18,0,.21a.54.54,0,0,1,0,.15l0,0-.05.07,0,0a.1.1,0,0,1-.05,0l0,0h-.14l-.06,0,0,0-.06,0,0,0a.36.36,0,0,1-.08-.12l-.1-.19,0,.21a.66.66,0,0,1-.05.15s0,0,0,0l0,.07,0,0,0,0h0l0,0h-.09l-.06,0,0,0-.06-.06,0,0s0-.09-.08-.14l-.08-.19-.06.21-.06.14,0,0-.05.07,0,0,0,0H126l-.06,0,0,0-.06-.06s0,0,0,0a.61.61,0,0,1-.07-.14l-.08-.2-.07.2a.55.55,0,0,1-.14.25.24.24,0,0,1-.36,0,.55.55,0,0,1-.14-.25l-.07-.2-.08.2a.61.61,0,0,1-.07.14s0,0,0,0l-.06.06,0,0-.06,0h-.18l-.05,0,0,0,0-.07a.05.05,0,0,1,0,0,.59.59,0,0,1-.06-.14l-.06-.21-.08.19s-.05.1-.08.14l0,0-.06.06,0,0-.06,0h-.09l0,0h0l0,0,0,0,0-.07s0,0,0,0a.67.67,0,0,1-.06-.15l0-.21-.1.19a.36.36,0,0,1-.08.12l0,0-.06,0a.05.05,0,0,1,0,0l-.05,0h-.14l0,0a.1.1,0,0,1,0,0l0,0a.59.59,0,0,1,0-.08.05.05,0,0,1,0,0,.54.54,0,0,1,0-.15l0-.21-.11.18a.36.36,0,0,1-.08.12l0,0-.07,0,0,0-.06,0H122l0,0,0,0,0,0a.2.2,0,0,1,0-.08.08.08,0,0,1,0,0,.75.75,0,0,1,0-.16l0-.21-.12.17a.65.65,0,0,1-.15.17l0,0a.3.3,0,0,1-.15,0h0l-.06,0,0,0,0,0,0,0a.36.36,0,0,1,0-.09.05.05,0,0,1,0,0,.41.41,0,0,1,0-.16v-.22l-.13.17a.78.78,0,0,1-.15.16l0,0a.44.44,0,0,1-.15.05h-.1l0,0s0,0,0,0l0,0,0-.08s0,0,0,0a.88.88,0,0,1,0-.17v-.22l-.14.17a1,1,0,0,1-.15.14l0,0a.27.27,0,0,1-.14,0h0l-.07,0,0,0-.06,0a.08.08,0,0,0,0,0,.46.46,0,0,1,0-.09s0,0,0,0a.91.91,0,0,1,0-.17v-.21l-.14.15a.61.61,0,0,1-.16.13l0,0a.37.37,0,0,1-.14,0h0a.17.17,0,0,1-.1,0l0,0,0,0,0,0,0-.09a.06.06,0,0,0,0,0,1.08,1.08,0,0,1,0-.18l0-.21-.15.15a.76.76,0,0,1-.16.11l0,0a.27.27,0,0,1-.12,0h0a.17.17,0,0,1-.1,0l0,0,0-.06a.05.05,0,0,1,0,0,.14.14,0,0,1,0-.09s0,0,0,0a.54.54,0,0,1,0-.18l0-.2-.16.14a1,1,0,0,1-.16.1l0,0-.11,0h0a.2.2,0,0,1-.11,0h0a.27.27,0,0,1-.07-.08s0,0,0,0l0-.1v0a.57.57,0,0,1,0-.18l0-.2-.16.13-.16.09,0,0-.1,0h0a.17.17,0,0,1-.1,0h0a.24.24,0,0,1-.08-.09s0,0,0,0a.3.3,0,0,1,0-.1s0,0,0,0a.67.67,0,0,1,0-.18l0-.21-.17.13-.16.08h0l-.09,0h0l-.1,0s0,0,0,0a.28.28,0,0,1-.07-.09,0,0,0,0,1,0,0,.35.35,0,0,1,0-.11v0a.74.74,0,0,1,0-.18l.06-.2L116,81a.51.51,0,0,1-.15.07h0l-.09,0h0a.38.38,0,0,1-.1,0h0a.24.24,0,0,1-.08-.09v0a.2.2,0,0,1,0-.11v0a.46.46,0,0,1,0-.19l.07-.19-.18.1a.47.47,0,0,1-.15.06h0l-.09,0h0l-.11,0,0,0a.16.16,0,0,1-.07-.09v0a.27.27,0,0,1,0-.13v0a.77.77,0,0,1,0-.19l.09-.2-.19.1-.15.06h-.13a.28.28,0,0,1-.13,0l0,0a.14.14,0,0,1-.08-.09h0a.32.32,0,0,1,0-.14s0,0,0,0a1,1,0,0,1,.06-.19l.1-.19-.2.09-.14,0H114a.33.33,0,0,1-.14,0h0a.28.28,0,0,1-.07-.09v0a.24.24,0,0,1,0-.15.08.08,0,0,1,0,0,.56.56,0,0,1,.07-.19l.11-.18-.2.07a.59.59,0,0,1-.21,0h0a.33.33,0,0,1-.15,0s0,0,0,0a.18.18,0,0,1-.08-.09s0,0,0,0a.38.38,0,0,1,0-.15.08.08,0,0,1,0,0,.6.6,0,0,1,.08-.19l.12-.18-.21.06a.74.74,0,0,1-.18,0h0l-.15,0h0a.2.2,0,0,1-.08-.1v0a.29.29,0,0,1,0-.16,0,0,0,0,1,0,0,.75.75,0,0,1,.1-.2l.12-.17-.21,0-.17,0h0a.62.62,0,0,1-.16,0h0a.14.14,0,0,1-.09-.11s0,0,0,0a.43.43,0,0,1,0-.16s0,0,0,0a.81.81,0,0,1,.11-.2l.13-.16-.2,0-.16,0h0l-.11,0h0l-.06,0,0,0s0,0,0,0l0,0a.43.43,0,0,0,0-.05s0,0,0,0,0,0,0-.06,0,0,0,0,0,0,0-.08l0,0a.83.83,0,0,1,.08-.12l.14-.16-.2,0h-.27l0,0-.05,0,0,0,0,0,0,0a.43.43,0,0,1,0,0s0,0,0,0,0,0,0-.06a.06.06,0,0,0,0,0,.25.25,0,0,1,0-.07l0,0a.47.47,0,0,1,.09-.12l.15-.15-.21,0h-.18l-.07,0,0,0,0,0,0,0h0a1.23,1.23,0,0,0,0-.2s0-.09,0-.14,0,0,0,0a.53.53,0,0,1,.1-.12l.16-.14h-.37a1,1,0,0,0-.21-.3,1.1,1.1,0,0,0,.21-.36l.09-.07h-.07a.85.85,0,0,0,0-.32.82.82,0,0,0-.08-.35l6.13-1-4.22,1.38a13.09,13.09,0,0,0,11.51,8.36V75a5.89,5.89,0,0,1-4.4-3l2.82-.44a3.35,3.35,0,1,0,2.28-5.8,3.33,3.33,0,0,0-2.91,1.71l-2.85.44a6,6,0,0,1,1.76-3.1L117,59a13,13,0,0,0-4.83,10.1l-1.55.24a1,1,0,0,0-.34-.53l.11,0-.2-.08h0a1,1,0,0,0,.12-.66l.13,0-.15-.06h0a1,1,0,0,0-.29-.47.47.47,0,0,1,.31-.18l.21,0-.19-.1c-.41-.21-.35-.56.1-.63l.21,0-.18-.11c-.4-.23-.33-.57.13-.63l.21,0-.17-.12c-.39-.25-.3-.59.16-.62H111l-.17-.13c-.38-.27-.27-.61.19-.61h.22l-.17-.14L111,63.9l0,0,0-.07s0,0,0,0,0,0,0-.07v0a.11.11,0,0,1,0,0l0,0,0,0,0,0,0,0,.06,0,.06,0h.39ZM83.05,77.16l-.22,0a1.48,1.48,0,0,1-.23-2.94L125,67.65a1.48,1.48,0,1,1,.46,2.92ZM101.4,66.87l-.31.06c-.2,0-.48.08-.83.11s-.74.08-1.16.09l-1.34,0-1.34,0c-.43,0-.83-.07-1.17-.09s-.63-.09-.82-.11l-.32-.06.32-.06c.19,0,.48-.08.82-.11s.74-.07,1.17-.09l1.34,0,1.34,0c.42,0,.82.07,1.16.09s.63.09.83.11Zm-45,25.3.13,4.31a2.27,2.27,0,0,1-.13-4.31ZM69.9,107.4a23.05,23.05,0,0,0-5.33,8.36c-.13.39-.31.76-.41,1.16l-.31,1.19a16.7,16.7,0,0,0-.47,2.36l-.1.58c0,.21,0,.42-.05.63,0,.42,0,.84-.08,1.26l0,.57,0,.6c0,.4,0,.79,0,1.19a23.2,23.2,0,0,0,2.34,8.76,24.06,24.06,0,0,0,4.86,6.62,22.93,22.93,0,0,0,5.71,4.06l.69.37.69.28,1.32.55c.87.29,1.68.51,2.41.74l2,.4c.58.13,1.1.13,1.51.19l1.26.13H84.71c-.41,0-.92,0-1.52,0l-2.07-.22c-.76-.17-1.61-.32-2.52-.56l-1.4-.45c-.24-.08-.49-.15-.74-.25l-.74-.32a22.6,22.6,0,0,1-6.24-3.88,24.22,24.22,0,0,1-8.36-16.22L61,124.17l0-.65v-.69c0-.42,0-.84,0-1.26,0-.21,0-.42,0-.63l.09-.68a20,20,0,0,1,.47-2.68l.33-1.31c.1-.44.29-.85.43-1.28a25.54,25.54,0,0,1,5.81-9.27,25.09,25.09,0,0,1,5.23-3.94,1,1,0,0,0,.89.54,1.11,1.11,0,0,0,.49-.12,1,1,0,0,0,.88.53,1.14,1.14,0,0,0,.54-.14.93.93,0,0,0,.21.23A23.13,23.13,0,0,0,69.9,107.4ZM151,68c-.22.25-.5.63-.88,1s-.81.92-1.3,1.42-1,1-1.53,1.59l-1.58,1.52c-.5.49-1,.92-1.42,1.3s-.79.67-1,.88l-.4.32.32-.4c.22-.25.51-.62.89-1s.8-.91,1.29-1.42l1.53-1.58,1.58-1.53c.5-.49,1-.91,1.42-1.29s.79-.67,1-.89l.4-.32Zm2.52,9.33a2.29,2.29,0,0,1-1.27-2.35l3.88,1.87A2.28,2.28,0,0,1,153.56,77.29Zm2-4.11a2.28,2.28,0,0,1,1.27,2.34l-3.89-1.86A2.26,2.26,0,0,1,155.52,73.18Zm-8.35-5.54,1.77-1.82,1.82-1.76c.57-.56,1.15-1.06,1.62-1.5s.9-.78,1.18-1l.46-.38-.37.46c-.25.29-.59.71-1,1.19s-.94,1-1.5,1.62l-1.77,1.82L147.54,68c-.58.57-1.16,1.06-1.63,1.5s-.9.78-1.18,1l-.46.38.38-.46c.25-.28.59-.7,1-1.18S146.61,68.22,147.17,67.64Zm-1.92-5.44a2.26,2.26,0,0,1-2.48,1l2.33-3.63A2.27,2.27,0,0,1,145.25,62.2Zm-1.35-3.42-2.32,3.62a2.26,2.26,0,0,1,2.32-3.62Zm-30.42-43c.31.18.78.41,1.31.72s1.16.67,1.82,1.08l2,1.29,2,1.35c.64.43,1.21.87,1.72,1.23s.9.69,1.19.91l.44.35-.51-.26c-.31-.17-.77-.41-1.31-.72S121,21,120.38,20.6l-2-1.29-2-1.35c-.64-.43-1.22-.87-1.72-1.23s-.9-.69-1.19-.9l-.45-.36Zm-5.85-1.51c.4.23,1,.55,1.66,1s1.48.89,2.32,1.43l2.62,1.7,2.58,1.75c.82.56,1.57,1.13,2.22,1.59s1.17.88,1.54,1.15l.58.45-.64-.35c-.4-.24-1-.56-1.67-1s-1.48-.88-2.32-1.43l-2.62-1.69-2.58-1.76c-.82-.56-1.56-1.12-2.21-1.58s-1.17-.88-1.55-1.16l-.57-.45ZM95.69,11.3c3.32-2.31,5.62.16,8.57,4.3s8.94,3.17,10.2,7.17-4.43,3.17-6,5.24-1.77,8.35,5,14.86,11.53,1.92,19.66,4.88,9.24,9.53,9.24,9.53l-6.21-.67s-3.25-5.61-8.43-5.54a8.39,8.39,0,0,0-6.41,2.58h0a.85.85,0,0,0-.58.24l-.18,0a.85.85,0,0,0-.61.28h-.14a.83.83,0,0,0-.59.25l0,.06h-.1a.8.8,0,0,0-.6.27l-.06.07h-.05a.77.77,0,0,0-.62.29l-.07.09h0a.8.8,0,0,0-.63.3.83.83,0,0,0-.08.12.78.78,0,0,0-.61.31.55.55,0,0,0-.09.14.79.79,0,0,0-.58.33.51.51,0,0,0-.09.16.77.77,0,0,0-.55.34.81.81,0,0,0-.1.18.83.83,0,0,0-.52.35,1,1,0,0,0-.1.21.81.81,0,0,0-.49.36.79.79,0,0,0-.09.23.79.79,0,0,0-.46.36.77.77,0,0,0-.1.25.82.82,0,0,0-.43.37.71.71,0,0,0-.09.28.73.73,0,0,0-.4.37.86.86,0,0,0-.09.3.8.8,0,0,0-.37.38.72.72,0,0,0-.08.32.74.74,0,0,0-.35.37.84.84,0,0,0-.07.35.83.83,0,0,0-.32.37,1,1,0,0,0,0,.24l-2.1,1.63s0-.05,0-.07a1.06,1.06,0,0,0-.6-.59,1.07,1.07,0,0,0,0-.73,1,1,0,0,0-.64-.58,1.08,1.08,0,0,0,0-.71,1,1,0,0,0-.69-.56,1,1,0,0,0-.07-.68,1.11,1.11,0,0,0-.22-.29c3.67-1.75,10.83-5.34,11.27-7.1.59-2.36-4.36-5.39-7.92-8.49s-2.58-9.46-6.72-11.16a8.84,8.84,0,0,0-7.24,0l-.07-5.92L93.1,24.39s3.11-1,3.14-3.32S91.61,14.12,95.69,11.3Zm16.55,21.43c0,.53,0,1.07,0,1.57s-.06,1-.09,1.37-.08.74-.1,1L112,37l-.06-.37c0-.23-.08-.56-.11-1s-.08-.87-.09-1.37,0-1,0-1.57,0-1.08,0-1.58.07-1,.09-1.37.09-.74.11-1l.06-.37,0,.37c0,.23.09.57.11,1s.08.87.09,1.37S112.23,32.19,112.24,32.73Zm-1.48-.1c0,.52,0,1,0,1.54s-.07.94-.09,1.34-.09.72-.11,1l-.06.36-.06-.36c0-.23-.08-.56-.11-1s-.08-.85-.09-1.34,0-1,0-1.54,0-1.05,0-1.54.07-.95.09-1.34.09-.72.11-.95l.06-.36s0,.13.06.36.08.56.11.95.07.85.09,1.34S110.75,32.1,110.76,32.63ZM99.28,35.3a2.26,2.26,0,0,1,3,3.12Zm1.94,4.1a2.26,2.26,0,0,1-3-3.12ZM106.5,44c8,3.82.6,13.53-5.37,6.75s-12.46-6.61-27.22-8.7-10.2-15.2-6.86-19c7.37-8.37,2,5.26,7.45,9.56s8.86,6.16,17.59,7.44C97.26,40.82,98.49,40.18,106.5,44ZM59.66,18.14c-2.26.47-3.79.69-3.79.69s1.43-.6,3.61-1.35c1.09-.38,2.37-.8,3.75-1.22.69-.21,1.4-.44,2.13-.64L67.57,15l2.22-.6c.73-.2,1.46-.36,2.15-.54,1.41-.34,2.72-.64,3.85-.87,2.26-.48,3.8-.7,3.8-.7s-1.43.6-3.62,1.35c-1.09.38-2.37.8-3.75,1.22-.69.21-1.4.44-2.13.64l-2.21.64-2.21.59c-.73.2-1.46.36-2.16.54C62.11,17.6,60.79,17.9,59.66,18.14ZM75,29.56a2.27,2.27,0,0,1,2.33-3.63Zm3.52-2.86a2.26,2.26,0,0,1-2.32,3.62Zm8-16.62a3.25,3.25,0,0,1,3.61,1.22l-5.89,1.84A3.26,3.26,0,0,1,86.56,10.08Zm4.22,3.17a3.24,3.24,0,0,1-5.89,1.83Zm-6.69,8.43c.22.2.57.46.94.8s.84.72,1.3,1.17L87.77,25l1.38,1.44c.45.45.83.91,1.17,1.29s.6.72.79.95l.29.37L91,28.79c-.23-.19-.57-.45-1-.79s-.83-.73-1.29-1.17l-1.44-1.38L86,24c-.45-.46-.83-.92-1.17-1.3s-.6-.72-.79-.94l-.29-.38ZM84.22,25c.86.88,1.72,1.75,2.52,2.58s1.53,1.62,2.17,2.29S90,31.15,90.4,31.55l.56.63-.64-.55c-.4-.36-1-.87-1.65-1.5S87.2,28.78,86.38,28L83.8,25.45l-2.52-2.58c-.81-.82-1.53-1.62-2.16-2.29s-1.14-1.26-1.5-1.65l-.56-.64.64.56c.4.36,1,.86,1.65,1.49s1.47,1.36,2.29,2.17S83.34,24.17,84.22,25Zm-30-9.1c1.49-.49,3.24-1,5.12-1.6.94-.28,1.91-.58,2.9-.86l3-.85,3-.81c1-.27,2-.51,2.93-.76,1.9-.48,3.68-.91,5.22-1.25,3.06-.7,5.13-1.07,5.13-1.07s-2,.75-5,1.72c-1.5.49-3.24,1-5.12,1.61-1,.27-1.91.58-2.91.85l-3,.85-3,.81c-1,.27-2,.51-2.92.76-1.91.48-3.69.91-5.22,1.25-3.06.7-5.13,1.07-5.13,1.07S51.19,16.9,54.18,15.93ZM38.37,25.25A2.83,2.83,0,0,1,40,28.13l-4.91-2.19A2.84,2.84,0,0,1,38.37,25.25Zm-4,2.31,4.91,2.19a2.83,2.83,0,0,1-4.91-2.19Zm4.73,12.11A2.26,2.26,0,0,1,41.42,41l-4.28.41A2.28,2.28,0,0,1,39.13,39.67Zm-1.86,3.18,4.29-.41a2.26,2.26,0,0,1-4.29.41ZM18.68,70.14c4.73-8.65,7.39-12.49,10.71-16.34,2.63-3,9.9-4.78,12.34-3.52a.54.54,0,0,1,.24-.05h.21L42,50.09c-.37-.3-.24-.63.23-.61h.22l-.16-.15c-.35-.32-.2-.64.27-.6l.21,0-.15-.15c-.33-.34-.17-.66.3-.59l.21,0L43,47.89c-.31-.35-.13-.66.33-.57l.21,0-.13-.17c-.3-.37-.1-.67.35-.55l.21.05-.12-.17c-.28-.39-.07-.68.38-.54l.21.07-.12-.18c-.25-.4,0-.68.42-.51l.2.07-.11-.19c-.23-.41,0-.67.44-.48l.2.08-.1-.19c-.21-.42,0-.68.47-.47l.19.1-.09-.2c-.18-.43.08-.67.49-.44l.19.11-.07-.2c-.17-.44.11-.67.51-.42l.18.12-.07-.21c-.14-.45.15-.66.53-.38l.18.12,0-.21c-.12-.45.18-.65.55-.35l.17.13-.05-.21c-.09-.46.22-.64.57-.33l.16.14,0-.21c-.07-.47.25-.63.59-.3l.15.15,0-.21c0-.35.14-.52.36-.44a.24.24,0,0,1,0-.09l0-.13-.07.11a.81.81,0,0,1-.11.13h0L50,41h0l-.07,0s0,0,0,0a.38.38,0,0,1-.06-.17v-.14l-.07.12h0a.29.29,0,0,1-.11.11l0,0-.06,0h0a.18.18,0,0,1-.08-.07v0a.5.5,0,0,1-.05-.16V40.5l-.08.11a.6.6,0,0,1-.12.11h0l-.06,0h0a.11.11,0,0,1-.08-.07v0a.34.34,0,0,1,0-.16v-.13l-.08.1a.38.38,0,0,1-.13.1h0l0,0h-.06a.1.1,0,0,1-.07-.07,0,0,0,0,1,0,0,.33.33,0,0,1,0-.15v-.14l-.09.1a.5.5,0,0,1-.13.1H48s-.06,0-.08-.08,0,0,0,0a.42.42,0,0,1,0-.16V40l-.09.1a.34.34,0,0,1-.14.08h-.14a.22.22,0,0,1-.07-.09,0,0,0,0,0,0,0,.42.42,0,0,1,0-.16l0-.13-.1.09h0a.41.41,0,0,1-.14.08h-.07l-.07,0h0a.22.22,0,0,1-.07-.09v0a.29.29,0,0,1,0-.16l0-.13-.1.08a.37.37,0,0,1-.14.07h-.06a.11.11,0,0,1-.08,0h0a.15.15,0,0,1-.06-.09s0,0,0,0a.3.3,0,0,1,0-.16l0-.13-.1.08a.48.48,0,0,1-.15.07h0a.11.11,0,0,1-.08,0h0a.13.13,0,0,1,0-.09s0,0,0,0a.5.5,0,0,1,0-.16l0-.12-.11.07-.16.06h0a.12.12,0,0,1-.09,0h0a.3.3,0,0,1,0-.08v0a.5.5,0,0,1,0-.16l.05-.12-.12.06a.32.32,0,0,1-.17.06h0a.13.13,0,0,1-.1,0l0,0a.09.09,0,0,1,0-.07.08.08,0,0,1,0,0,.55.55,0,0,1,0-.16l.06-.12-.12.06a.45.45,0,0,1-.17,0h0l-.1,0,0,0,0-.08v0a.31.31,0,0,1,0-.15l.06-.12-.12.05a.34.34,0,0,1-.16,0h0l-.08,0,0,0a.11.11,0,0,1,0-.08v0a.37.37,0,0,1,.05-.15l.07-.12-.13,0-.14,0h-.06l-.07,0,0,0a.14.14,0,0,1,0-.07v0a.24.24,0,0,1,.06-.15l.07-.11-.13,0-.13,0h-.07s-.05,0-.06,0l0,0a.15.15,0,0,1,0-.07s0,0,0,0a.47.47,0,0,1,.06-.15l.08-.11-.13,0-.11,0h-.09l-.06,0s0,0,0,0a.19.19,0,0,1,0-.08s0,0,0,0a.48.48,0,0,1,.07-.15l.09-.1-.13,0h-.2s0,0-.06-.05l0,0s0,0,0-.08,0,0,0,0a.41.41,0,0,1,.08-.14l.09-.1-.13,0h-.19s0,0-.06,0l0,0v-.12a.53.53,0,0,1,.1-.14l.09-.1-.13,0h0l-.08,0H43.2a.12.12,0,0,1-.05-.05s0,0,0,0a.11.11,0,0,1,0-.08v0a.33.33,0,0,1,.1-.14l.1-.09h-.24l-.07,0a.08.08,0,0,1,0-.05s0,0,0,0a.25.25,0,0,1,0-.08v0a.42.42,0,0,1,.11-.13l.11-.09H43c-.29,0-.35-.21-.12-.38l.11-.08h-.14c-.29,0-.34-.23-.1-.39l.11-.07-.13,0c-.29,0-.34-.25-.09-.39l.12-.07-.13,0c-.15,0-.23-.09-.24-.17s.05-.17.17-.23l.12-.06-.13,0a.48.48,0,0,1-.16-.07c-.11-.1-.08-.24.12-.33l.12-.06-.13,0c-.28-.08-.29-.3,0-.41l.13-.05-.13,0c-.28-.09-.28-.31,0-.4l.13,0-.13-.05c-.27-.11-.26-.33,0-.41l.13,0-.12-.06c-.26-.12-.24-.34,0-.4l.13,0-.12-.06c-.12-.06-.18-.15-.17-.23s.09-.14.24-.17l.13,0-.12-.07c-.25-.14-.2-.36.09-.39l.13,0-.11-.07c-.24-.16-.19-.37.1-.39H43l-.11-.08c-.23-.17-.17-.38.12-.38h.14L43,28.36a.42.42,0,0,1-.11-.13v0a.28.28,0,0,1,0-.09l0,0A.08.08,0,0,1,43,28l.07,0h.24l-.1-.09a.33.33,0,0,1-.1-.14v0a.11.11,0,0,1,0-.08s0,0,0,0a.12.12,0,0,1,.05-.05h.06l.08,0h0l.13,0-.09-.1a.53.53,0,0,1-.1-.14v0s0-.06,0-.08l0,0s0,0,.06-.05h.19l.13,0-.09-.1a.41.41,0,0,1-.08-.14s0,0,0,0a.11.11,0,0,1,0-.08l0,0s0,0,.06,0h.2l.13,0-.09-.1a.48.48,0,0,1-.07-.15s0,0,0,0a.11.11,0,0,1,0-.08s0,0,0,0l.06,0H44l.11,0,.13,0-.08-.11a.47.47,0,0,1-.06-.15s0,0,0,0a.15.15,0,0,1,0-.07l0,0s0,0,.06,0h.07l.13,0,.13,0-.07-.11a.24.24,0,0,1-.06-.15v0a.14.14,0,0,1,0-.07l0,0,.07,0h.06l.14,0,.13.05-.07-.12a.37.37,0,0,1-.05-.15v0a.11.11,0,0,1,0-.08,0,0,0,0,1,0,0,.15.15,0,0,1,.08,0h0a.34.34,0,0,1,.16,0l.12.05L45.11,25a.31.31,0,0,1,0-.15v0l0-.08,0,0,.1,0h0a.45.45,0,0,1,.17,0l.12.06-.06-.12a.55.55,0,0,1,0-.16v0a.16.16,0,0,1,0-.07s0,0,0,0a.13.13,0,0,1,.1,0h0a.32.32,0,0,1,.17.06l.12.06-.05-.12a.5.5,0,0,1,0-.16v0a.3.3,0,0,1,0-.08h0A.12.12,0,0,1,46,24h0l.16.06.11.07,0-.12a.5.5,0,0,1,0-.16v0a.13.13,0,0,1,0-.09,0,0,0,0,1,0,0,.11.11,0,0,1,.08,0h0a.48.48,0,0,1,.15.07l.1.08,0-.13a.3.3,0,0,1,0-.16s0,0,0,0a.15.15,0,0,1,.06-.09h0a.11.11,0,0,1,.08,0h.06a.37.37,0,0,1,.14.07l.1.08,0-.13a.29.29,0,0,1,0-.16v0a.22.22,0,0,1,.07-.09h0l.07,0h.07a.41.41,0,0,1,.14.08h0l.1.09,0-.13a.42.42,0,0,1,0-.16,0,0,0,0,0,0,0,.22.22,0,0,1,.07-.09h.14a.34.34,0,0,1,.14.08l.09.1V23a.42.42,0,0,1,0-.16s0,0,0,0,0-.07.08-.08h.14a.5.5,0,0,1,.13.1l.09.1v-.14a.33.33,0,0,1,0-.15,0,0,0,0,1,0,0,.1.1,0,0,1,.07-.07h.06l0,0h0a.38.38,0,0,1,.13.1l.08.1v-.13a.34.34,0,0,1,0-.16s0,0,0,0a.11.11,0,0,1,.08-.07h0l.06,0h0a.6.6,0,0,1,.12.11l.08.11v-.13h0a.5.5,0,0,1,.05-.16v0a.18.18,0,0,1,.08-.07h0l.06,0,0,0a.29.29,0,0,1,.11.11h0l.08.11v-.13a.38.38,0,0,1,.06-.17s0,0,0,0l.07,0h0l.06,0h0a.81.81,0,0,1,.11.13l.07.11,0-.13a.29.29,0,0,1,.07-.17l0,0s0,0,.08,0h0l.06,0,0,0a.5.5,0,0,1,.11.13l.06.12,0-.13a.34.34,0,0,1,.07-.17l0,0,.07,0h0L51,22s0,0,0,0a.42.42,0,0,1,.1.14l.05.12,0-.13a.4.4,0,0,1,.08-.16l0,0a.13.13,0,0,1,.07,0h0l.07,0,0,0a.35.35,0,0,1,.09.15l0,.12,0-.13c.05-.13.13-.2.2-.2s.16.07.21.2l0,.13,0-.12a.35.35,0,0,1,.09-.15l0,0,.07,0h0a.13.13,0,0,1,.07,0l0,0a.4.4,0,0,1,.08.16l0,.13,0-.12a.65.65,0,0,1,.1-.15h0l.07,0h0L53,22l0,0a.34.34,0,0,1,.07.17l0,.13.06-.12a.36.36,0,0,1,.11-.13l0,0,.06,0h0s0,0,.08,0l0,0a.38.38,0,0,1,.07.17l0,.13.07-.11a.5.5,0,0,1,.11-.13h0l.06,0h0l.07,0s0,0,0,0a.38.38,0,0,1,.07.17v.13l.07-.11a.4.4,0,0,1,.12-.11l0,0,.06,0h0a.18.18,0,0,1,.08.07v0a.34.34,0,0,1,0,.16h0v.13l.08-.11a.6.6,0,0,1,.12-.11h0l0,0h.05a.11.11,0,0,1,.08.07v0a.53.53,0,0,1,0,.16v.13l.08-.1a.38.38,0,0,1,.13-.1h0l.05,0h.06a.12.12,0,0,1,.07.07v0a.33.33,0,0,1,0,.15V23l.09-.1a.5.5,0,0,1,.13-.1h.14a.15.15,0,0,1,.08.08v0A.29.29,0,0,1,56,23v.14l.09-.1a.34.34,0,0,1,.14-.08h.14a.22.22,0,0,1,.07.09v0a.27.27,0,0,1,0,.16h0l0,.13.1-.09a.41.41,0,0,1,.14-.08h.07l.06,0h0a.15.15,0,0,1,.06.09,0,0,0,0,1,0,0,.29.29,0,0,1,0,.16l0,.13.1-.08a.37.37,0,0,1,.14-.07h.06a.11.11,0,0,1,.08,0h0a.15.15,0,0,1,.06.09,0,0,0,0,0,0,0,1,1,0,0,1,0,.16l0,.13.11-.08a.4.4,0,0,1,.15-.07h.05a.11.11,0,0,1,.08,0,0,0,0,0,1,0,0,.13.13,0,0,1,0,.09v0a.5.5,0,0,1,0,.16l0,.12.11-.07.15-.06h0a.12.12,0,0,1,.09,0h0l0,.08v0a.5.5,0,0,1,0,.16l0,.12.11-.06h0a.38.38,0,0,1,.18-.06h0a.15.15,0,0,1,.1,0l0,0a.09.09,0,0,1,0,.07.06.06,0,0,1,0,0,.37.37,0,0,1,0,.16l0,.12.12-.06a.41.41,0,0,1,.17,0h0l.1,0a0,0,0,0,0,0,0,.24.24,0,0,1,0,.08s0,0,0,0a.31.31,0,0,1,0,.15h0l-.06.12.12-.05a.34.34,0,0,1,.16,0h0a.2.2,0,0,1,.08,0,0,0,0,0,1,0,0s0,.05,0,.08v0a.65.65,0,0,1,0,.15l-.07.12.13-.05.14,0h.06l.07,0,0,0a.14.14,0,0,1,0,.07v0a.32.32,0,0,1-.06.15h0l-.07.11.13,0,.13,0h.07s.05,0,.06,0,0,0,0,0a.15.15,0,0,1,0,.07v0a.34.34,0,0,1-.07.15l-.07.11.13,0,.11,0h.08l.07,0s0,0,0,0a.19.19,0,0,1,0,.08s0,0,0,0a.37.37,0,0,1-.07.14h0l-.09.1.13,0h.2l.06,0s0,0,0,0a.19.19,0,0,1,0,.08v0a.41.41,0,0,1-.08.14l-.09.1.13,0h.19s0,0,.06.05,0,0,0,0a.19.19,0,0,1,0,.08v0a.53.53,0,0,1-.1.14l-.09.1.13,0h.05l.07,0h.07a.12.12,0,0,1,0,.05s0,0,0,0a.11.11,0,0,1,0,.08v0a.33.33,0,0,1-.1.14l-.1.09h.24l.07,0a.08.08,0,0,1,0,.05s0,0,0,0a.11.11,0,0,1,0,.08v.05a.36.36,0,0,1-.12.13l-.1.09h.13a.3.3,0,0,1,.18,0c.13.06.12.21-.05.34l-.11.08H61c.28,0,.34.23.1.39l-.11.07.13,0c.15,0,.23.08.24.15s0,.17-.15.24l-.12.07.13,0c.29.05.32.27.06.4l-.11.06.13,0c.28.06.3.28,0,.4l-.12.06.13,0c.28.08.29.3,0,.41l-.13.05.13,0c.27.09.27.31,0,.4l-.13,0,.13.05c.27.11.26.33,0,.41l-.13,0,.12.06c.2.09.23.23.12.33a.48.48,0,0,1-.16.07l-.11,0h0l.11.06c.26.13.23.35-.06.4l-.13,0,.12.07c.12.07.17.16.15.24s-.09.14-.24.15l-.13,0,.11.07c.24.16.18.37-.1.39h-.14l.11.08c.17.13.18.28.05.34a.3.3,0,0,1-.18,0h-.13l.1.09a.36.36,0,0,1,.12.13v0a.11.11,0,0,1,0,.08s0,0,0,0a.08.08,0,0,1,0,.05l-.07,0h-.24l.1.09a.33.33,0,0,1,.1.14v0a.11.11,0,0,1,0,.08s0,0,0,0a.12.12,0,0,1,0,.05H60.6l-.07,0h-.05l-.13,0,.09.1a.53.53,0,0,1,.1.14v0a.19.19,0,0,1,0,.08l0,0s0,0-.06,0h-.19l-.13,0,.09.1a.41.41,0,0,1,.08.14v0a.19.19,0,0,1,0,.08s0,0,0,0l-.06.05H60l-.13,0,.09.1h0a.37.37,0,0,1,.07.14s0,0,0,0a.19.19,0,0,1,0,.08s0,0,0,0l-.07,0h-.08l-.11,0-.13,0,.07.11a.34.34,0,0,1,.07.15v0a.15.15,0,0,1,0,.07l0,0s0,0-.06,0h-.07l-.13,0-.13,0,.07.11h0a.32.32,0,0,1,.06.15v0a.14.14,0,0,1,0,.07l0,0-.07,0h-.06l-.14,0-.13,0,.07.12a.65.65,0,0,1,0,.15v0s0,.06,0,.08l0,0-.08,0h0a.34.34,0,0,1-.16,0L58.7,38l.06.12h0a.31.31,0,0,1,0,.15s0,0,0,0a.24.24,0,0,1,0,.08,0,0,0,0,0,0,0l-.1,0h0a.41.41,0,0,1-.17,0l-.12-.06,0,.12a.37.37,0,0,1,0,.16.08.08,0,0,1,0,0,.09.09,0,0,1,0,.07l0,0a.15.15,0,0,1-.1,0h0a.38.38,0,0,1-.18-.06h0L58,38.65l0,.12a.5.5,0,0,1,0,.16v0A.16.16,0,0,1,58,39l0,0a.12.12,0,0,1-.09,0h0L57.72,39,57.61,39l0,.12a.5.5,0,0,1,0,.16s0,0,0,0a.13.13,0,0,1,0,.09h0a.11.11,0,0,1-.08,0h-.05a.4.4,0,0,1-.15-.07l-.11-.08,0,.13a1,1,0,0,1,0,.16,0,0,0,0,0,0,0,.16.16,0,0,1,0,.07c.16-.06.32.06.4.34l.06.2.09-.19c.19-.43.55-.4.65.07l.05.21.1-.2c.22-.41.57-.36.65.11l0,.21.11-.19c.24-.4.59-.33.65.14l0,.22.12-.18c.26-.4.61-.31.63.17l0,.21.12-.17c.29-.38.63-.27.63.2V41l.14-.17c.3-.36.63-.24.61.23v.22l.15-.16c.32-.35.64-.2.6.27l0,.21.15-.15c.34-.33.66-.17.59.3l0,.21.16-.14c.35-.31.66-.13.57.33l0,.21.17-.13c.37-.3.67-.1.55.35l-.05.21.17-.12c.39-.28.68-.07.54.38l-.07.21.18-.12c.4-.25.68,0,.51.42l-.07.2.19-.11c.41-.23.67,0,.48.44l-.08.2.19-.1c.42-.21.68.05.47.47l-.1.19.2-.08c.43-.19.67.07.44.48l-.11.19.2-.07c.44-.17.67.11.42.51l-.12.18.21-.07c.45-.14.66.15.38.54L69,46.7l.21-.05c.45-.12.65.18.35.55l-.13.17.21,0c.46-.09.64.22.33.57l-.14.16L70,48c.47-.07.63.25.3.59l-.15.15.21,0c.47,0,.62.28.27.6l-.16.15h.22a.78.78,0,0,1,.22,0,1.23,1.23,0,0,0-.21.34,1.16,1.16,0,0,0-.34-.05,1,1,0,0,0-.76.35,1.17,1.17,0,0,0-.22.37,1.33,1.33,0,0,0-.28,0,.5.5,0,0,0-.18,0,13.36,13.36,0,0,0-4-5.57l-4.33,6a6,6,0,0,1,1.92,4.39c0,.11,0,.22,0,.33a.93.93,0,0,0,0,.25,1,1,0,0,0-.84.5,1.1,1.1,0,0,0-.14.59,1.05,1.05,0,0,0-.81.52,1.12,1.12,0,0,0-.12.63,1,1,0,0,0-.76.54,1,1,0,0,0-.1.65,1,1,0,0,0-.81,1.24,1,1,0,0,0-.63.48,5.68,5.68,0,0,1-1,.22v2a1,1,0,0,0-.37.45,1.1,1.1,0,0,0,0,.76,1,1,0,0,0-.53,1.37,1,1,0,0,0-.52.61.38.38,0,0,0,0,.1V61.24a2.66,2.66,0,0,1-.37-.07L57,58.66a3.4,3.4,0,1,0-3.64-2l-1.53,2.39A6.34,6.34,0,0,1,51,57.81l-7,2.28a13.37,13.37,0,0,0,3.75,5.31l-1.25,2a.54.54,0,0,1,0-.34l.07-.2-.19.11h0a.66.66,0,0,1,.05.36v.18L45.34,69.2a14.47,14.47,0,0,0-13.87,1l4.71,6.48a6.45,6.45,0,0,1,4.76-.63l-1.68,2.61a3.71,3.71,0,1,0,3.8,3.71,3.67,3.67,0,0,0-.31-1.48l1.66-2.6a6.44,6.44,0,0,1,1.46,4.08,6.57,6.57,0,0,1-.13,1.26l7.62,2.47a14.48,14.48,0,0,0-4.53-14.7l2.46-3.85a13.09,13.09,0,0,0,4.15,1l0,.08a1,1,0,0,0-.45.65,1,1,0,0,0,.15.79,1.06,1.06,0,0,0-.43.68v.08a.49.49,0,0,1-.19-.33l0-.21-.1.19c-.22.42-.57.36-.65-.11l0-.21-.11.19c-.24.4-.59.33-.65-.14l0-.21-.12.18c-.26.39-.61.3-.63-.17l0-.22L52,70c-.28.38-.62.27-.62-.2v-.21l-.14.16c-.15.19-.31.24-.43.19a.68.68,0,0,1-.07.29l-.09.22.21-.11c.46-.22.73,0,.5.51l-.1.21.21-.09c.47-.21.73.08.48.53l-.12.2.22-.08c.48-.18.73.12.45.55l-.12.2.22-.07c.49-.15.72.16.42.58l-.14.19.23-.06c.5-.13.71.2.39.6l-.15.18.23-.05c.51-.1.7.24.36.62l-.16.18.24,0c.27,0,.45,0,.49.2a.84.84,0,0,0-.14.41l0,0-.16.17.18,0a1,1,0,0,0,.31.68l-.14.12h0a1,1,0,0,0-.19.63,1.08,1.08,0,0,0,.35.72,1,1,0,0,0-.23.77,1.08,1.08,0,0,0,.39.7,1,1,0,0,0-.2.77,1.09,1.09,0,0,0,.43.68,1,1,0,0,0-.15.79,1,1,0,0,0,.45.65,1.05,1.05,0,0,0-.11.79,1,1,0,0,0,.5.63,1,1,0,0,0-.07.8,1,1,0,0,0,.28.43l-.16,0-.23,0,.21.11c.45.23.39.62-.11.7l-.23,0,.2.12c.44.26.36.64-.15.7l-.23,0,.19.13c.43.28.33.66-.18.69l-.24,0,.19.14c.41.3.29.67-.22.67h-.23l.18.15c.39.32.25.68-.26.66h-.23l.17.16c.38.35.22.7-.29.65l-.23,0,.16.17c.36.36.18.71-.32.63l-.24,0,.16.17c.34.39.15.72-.36.62l-.23,0,.15.19c.32.4.11.73-.39.6l-.23-.06.14.19c.3.42.07.73-.42.58l-.22-.07.12.19c.28.43,0,.74-.45.56l-.22-.08.12.2c.25.45,0,.73-.48.53l-.21-.09.1.21c.23.45,0,.73-.5.5l-.21-.1.09.21c.21.47-.08.73-.53.48l-.2-.12.08.22c.18.48-.12.73-.56.45l-.19-.12.07.22c.15.49-.16.72-.58.42L48.68,96l.06.23c.13.5-.2.71-.6.39L48,96.44l0,.23c.11.5-.23.7-.62.36l-.17-.16,0,.24c.08.5-.27.68-.63.32l-.17-.16,0,.23c0,.51-.3.67-.65.29l-.16-.17v.23c0,.51-.34.65-.66.26l-.15-.18v.23c0,.51-.38.63-.68.22L44,98.19l0,.24c0,.51-.4.61-.69.18l-.13-.2,0,.24c-.06.51-.44.59-.7.15l-.12-.21,0,.24c-.08.5-.47.56-.7.11l-.11-.21,0,.23c-.11.5-.5.54-.71.07l-.1-.21-.06.22c-.14.5-.53.52-.71,0l-.09-.22-.07.23c-.17.48-.56.48-.72,0l-.07-.23-.09.22c-.19.48-.57.46-.71,0l-.06-.22L38,99c-.21.47-.6.43-.71-.07l0-.23-.11.21c-.24.45-.62.39-.7-.11l0-.24-.12.21c-.26.44-.64.36-.7-.15l0-.24-.13.2c-.28.43-.65.33-.69-.18v-.24l-.14.19c-.3.41-.67.29-.68-.22v-.23l-.15.18c-.32.39-.69.25-.67-.26l0-.23-.16.17c-.35.38-.7.22-.66-.29l0-.23-.17.16c-.36.36-.71.18-.64-.32l0-.24-.18.16c-.38.34-.72.14-.61-.36l0-.23-.18.15c-.4.32-.73.11-.6-.39L30,96l-.19.14c-.42.3-.73.07-.58-.42l.07-.22-.2.12c-.43.28-.73,0-.55-.45l.08-.22-.2.12c-.45.25-.74,0-.53-.48l.09-.21-.21.1c-.46.23-.73,0-.5-.5l.1-.21-.21.09c-.47.2-.73-.08-.48-.53l.11-.2-.22.08c-.48.18-.72-.13-.45-.56l.13-.19-.22.07c-.49.15-.72-.16-.42-.58l.13-.19-.22.06c-.5.13-.71-.2-.39-.6L25.3,91l-.23,0c-.5.1-.69-.23-.35-.62l.15-.17-.23,0c-.51.08-.68-.27-.32-.63l.16-.17-.23,0c-.51,0-.67-.3-.29-.65l.17-.16H23.9c-.52,0-.65-.34-.26-.66l.18-.15h-.23c-.51,0-.64-.37-.22-.67l.19-.14-.24,0c-.51,0-.61-.41-.18-.69l.19-.13-.23,0c-.51-.06-.59-.44-.15-.7l.2-.12-.23,0c-.5-.08-.56-.47-.11-.7l.21-.11-.23,0c-.5-.11-.54-.5-.08-.71l.22-.1-.23-.06c-.49-.14-.51-.53,0-.72l.22-.08-.22-.07c-.49-.17-.49-.56,0-.72l.22-.07-.22-.09c-.47-.19-.45-.58,0-.71l.23-.06-.22-.1c-.46-.21-.42-.6.08-.71l.23,0-.21-.11c-.45-.24-.39-.62.11-.71l.23,0-.2-.12c-.44-.26-.36-.64.15-.7l.23,0-.19-.13c-.43-.28-.33-.66.18-.69h.24l-.19-.14c-.42-.3-.29-.67.22-.68h.23l-.18-.15c-.39-.32-.26-.69.26-.67h.23L24,75.94c-.38-.35-.22-.71.29-.66l.23,0-.16-.17c-.36-.37-.19-.71.32-.64l.23,0-.15-.18c-.34-.38-.15-.72.35-.62l.23.05-.14-.18c-.32-.4-.11-.73.39-.6l.22.06-.13-.19c-.3-.42-.07-.73.42-.58l.22.07-.13-.2c-.27-.43,0-.73.45-.55l.22.08-.11-.2c-.25-.45,0-.74.48-.53l.21.09-.1-.21c-.23-.46,0-.73.5-.51l.21.11-.09-.22c-.21-.46.08-.73.53-.47l.2.11-.08-.22c-.18-.48.12-.72.55-.45l.2.13-.07-.22c-.15-.49.16-.72.58-.42l.19.13L30,68.6c-.13-.5.2-.71.6-.39l.18.14,0-.23c-.11-.5.23-.69.61-.35l.18.15,0-.23c-.07-.51.28-.68.64-.32l.17.16,0-.23c0-.51.31-.67.66-.29l.16.17L33,67c0-.52.35-.66.67-.26l.15.18v-.23c0-.52.38-.64.68-.22l.14.18v-.23c0-.51.41-.61.69-.18l.13.19,0-.23c.06-.51.44-.59.7-.15l.12.2,0-.23c.08-.5.46-.57.7-.11l.11.21,0-.23c.11-.5.5-.54.71-.08l.1.22.06-.23c.14-.49.52-.51.71,0l.09.22.07-.22c.16-.49.55-.49.72,0l.07.22.09-.22c.18-.47.57-.45.71,0l.06.23.1-.22c.21-.46.6-.42.71.08l0,.23.11-.21c.23-.46.62-.39.7.11l0,.23.12-.2c.26-.44.64-.36.7.15l0,.23.13-.19c.29-.43.66-.33.69.18l0,.23.14-.18c.3-.42.67-.3.68.22v.23l.15-.18c.32-.4.69-.26.66.26v.23l.16-.17a.6.6,0,0,1,.12-.11.5.5,0,0,1,0-.41l.09-.2-.19.1c-.42.21-.68,0-.47-.47l.1-.19-.2.09c-.43.18-.67-.08-.44-.49l.11-.19-.2.08c-.45.16-.67-.12-.42-.52l.12-.18-.21.07c-.45.14-.66-.15-.38-.53l.12-.18-.21,0c-.45.12-.65-.18-.35-.55l.13-.17-.21,0c-.46.09-.64-.22-.33-.57l.14-.16-.21,0c-.47.07-.63-.25-.3-.59l.15-.15-.21,0c-.47,0-.62-.28-.27-.6l.16-.15h-.22c-.47,0-.6-.31-.23-.61l.16-.14H42a.68.68,0,0,1-.27-.05c-3.73,2.79-12,3.69-15.7,6-4.14,2.59-8.5,11.46-7.47,20S24.33,99,24.33,99a3.94,3.94,0,0,0-3.16,2s-2.42-1.54-4.11-8.63-5-8-5.84-12S14,78.78,18.68,70.14Zm21.91,13A1.48,1.48,0,0,1,38.1,81.6L55.29,54.75a1.48,1.48,0,1,1,2.49,1.6Zm-12.32,20a3.41,3.41,0,0,1-6.2,1.92ZM21.43,103a3.41,3.41,0,0,1,6.2-1.93Zm-5.3-2.18c0,.43,0,.85,0,1.25s-.06.77-.09,1.09a7,7,0,0,1-.11.77l-.05.29-.06-.29c0-.19-.08-.45-.11-.77s-.08-.69-.09-1.09,0-.82,0-1.25,0-.85,0-1.25.07-.77.09-1.09.08-.58.11-.77l.06-.29.05.29c0,.19.08.46.11.77s.08.69.09,1.09S16.12,100.42,16.13,100.84ZM9.84,91a2.28,2.28,0,0,1,1.5-2.2l.13,4.31A2.28,2.28,0,0,1,9.84,91Zm3.05,2.06-.13-4.3a2.26,2.26,0,0,1,.13,4.3Zm1.41,13.06c0,.28-.05.45-.05.45l-.06-.45c0-.29-.08-.7-.11-1.2s-.08-1.07-.09-1.68,0-1.28,0-1.94,0-1.31,0-1.93.07-1.19.09-1.69.09-.9.11-1.19l.06-.45.05.45c0,.29.09.7.11,1.19s.08,1.07.09,1.69,0,1.27,0,1.93,0,1.32,0,1.94-.06,1.19-.09,1.68S14.33,105.83,14.3,106.12Zm2.15,1.44a2.26,2.26,0,0,1,2.3,1.35l-4.29.41A2.26,2.26,0,0,1,16.45,107.56Zm-1.85,3.18,4.28-.42a2.26,2.26,0,0,1-4.28.42Zm1.56,3.78a48.67,48.67,0,0,0,6.81,3l-.14-.06c-.36-.17-.33-.47.06-.55l.17,0-.16-.09c-.35-.18-.3-.48.09-.54l.18,0-.16-.09c-.34-.2-.28-.5.12-.54l.18,0-.15-.1c-.33-.22-.26-.51.14-.54h.18l-.15-.11c-.31-.23-.22-.52.17-.52h.19l-.14-.12c-.31-.25-.2-.53.19-.51h.19l-.14-.12c-.29-.27-.17-.54.23-.5h.18l-.13-.13c-.28-.28-.14-.55.25-.49l.18,0-.12-.14c-.26-.29-.11-.55.28-.47l.17,0-.11-.14c-.25-.31-.08-.56.3-.46l.18,0-.11-.15c-.23-.32-.05-.56.33-.44l.17,0-.1-.15c-.21-.34,0-.57.35-.43l.17.06-.09-.15c-.2-.35,0-.57.37-.42l.17.08-.09-.16c-.17-.36,0-.57.4-.4l.16.09-.08-.17c-.15-.36.07-.57.42-.37l.15.09-.06-.17c-.14-.37.09-.56.43-.35l.15.1-.05-.17c-.12-.38.12-.56.44-.33l.15.11,0-.18c-.1-.38.15-.55.46-.3l.14.11,0-.17c-.07-.39.19-.54.48-.28l.14.12,0-.18c-.06-.39.21-.53.49-.25l.13.13v-.18c0-.4.23-.52.5-.23l.12.14v-.19c0-.39.26-.5.51-.19l.12.14v-.18c0-.4.29-.49.52-.18l.11.15v-.18c0-.4.32-.47.54-.14l.1.15,0-.18c0-.4.34-.46.54-.12l.09.16,0-.18c.06-.39.36-.44.54-.09l.09.16,0-.17c.08-.39.38-.42.55-.06l.07.16,0-.17c.1-.38.41-.4.55,0l.07.17.05-.17c.13-.38.43-.38.56,0l.05.17.07-.17c.15-.37.45-.35.55,0l.05.17.08-.16c.16-.36.46-.33.55.06l0,.17.09-.16c.18-.35.48-.3.54.09l0,.18.1-.16c.2-.34.49-.28.54.12l0,.18.1-.15c.21-.33.51-.26.53.14v.18l.11-.15c.23-.31.52-.22.52.18v.18l.11-.14c.25-.31.53-.2.52.19v.19l.12-.14c.27-.29.54-.17.51.23l0,.18.13-.13c.28-.28.55-.14.49.25l0,.18.14-.12c.29-.26.56-.11.48.28l0,.17.14-.11c.31-.25.57-.08.47.3l0,.18.15-.11c.32-.23.56,0,.44.33l0,.17.15-.1c.34-.21.57,0,.43.35l-.06.17.16-.09c.34-.2.57,0,.41.37l-.08.17.17-.09c.35-.17.56,0,.39.4l-.08.16.16-.08c.37-.15.57.07.37.42l-.09.15.17-.06c.37-.14.56.09.35.43l-.1.15.18,0c.37-.12.55.12.32.44l-.11.15.18,0c.38-.1.55.15.3.46l-.11.14.18,0c.38-.08.54.18.27.47l-.12.14.18,0c.39-.06.53.21.25.49l-.13.13h.19c.39,0,.51.23.22.5l-.13.12h.18c.39,0,.5.26.2.51l-.14.12h.18c.39,0,.49.29.17.52l-.15.11h.18c.4,0,.48.32.15.54l-.16.1.18,0a.43.43,0,0,1,.17,0,17,17,0,0,0,3-2.34s-3.39,9.76-.39,19.07a66,66,0,0,1,3.35,18.21C28.19,139.57,16.16,114.52,16.16,114.52Zm40.72,34.34a2.27,2.27,0,0,1,1.5-2.2l.13,4.3A2.25,2.25,0,0,1,56.88,148.86Zm3,2.06-.13-4.31a2.27,2.27,0,0,1,.13,4.31Z"/><path class="cls-1" d="M30.66,118.53a5,5,0,0,1,1.62-3.69l-3.65-5A11.16,11.16,0,0,0,24.5,118a35.79,35.79,0,0,0,6.23,1.33A5.55,5.55,0,0,1,30.66,118.53Z"/><path class="cls-1" d="M35.7,113.49a4.94,4.94,0,0,1,2.45.64l3.65-5a11.24,11.24,0,0,0-12.2,0l3.65,5A4.94,4.94,0,0,1,35.7,113.49Z"/><path class="cls-1" d="M50.67,69.52V69.3l-.15.16a.42.42,0,0,1-.4.18h0l-.08.22.2-.11a.5.5,0,0,1,.42-.08A.85.85,0,0,1,50.67,69.52Z"/><path class="cls-1" d="M24.85,82.4a14.34,14.34,0,0,0,.49,3.73L33,83.66a6.57,6.57,0,0,1-.13-1.26,6.49,6.49,0,0,1,2.09-4.77l-4.71-6.49A14.49,14.49,0,0,0,24.85,82.4Z"/><path class="cls-1" d="M40.13,88.86v8a14.52,14.52,0,0,0,12.75-9.27l-7.63-2.47A6.5,6.5,0,0,1,40.13,88.86Z"/><path class="cls-1" d="M33.44,85.14l-7.62,2.47a14.52,14.52,0,0,0,12.75,9.27v-8A6.53,6.53,0,0,1,33.44,85.14Z"/><path class="cls-1" d="M38.46,119.27a2.94,2.94,0,0,0,.11-.74,2.87,2.87,0,1,0-5.74,0,2.83,2.83,0,0,0,.19,1A27.88,27.88,0,0,0,38.46,119.27Z"/><path class="cls-1" d="M82.83,0A82.83,82.83,0,0,0,24.26,141.4,82.83,82.83,0,0,0,141.4,24.26,82.32,82.32,0,0,0,82.83,0Zm79.08,82.83A79.08,79.08,0,1,1,82.83,3.75,79.18,79.18,0,0,1,161.91,82.83Z"/><path class="cls-1" d="M56.06,40.08l0,.05v0Z"/><path class="cls-1" d="M50.53,41.12l.15.16v-.22a.44.44,0,0,1,0-.2l0,.06a.5.5,0,0,1-.11.13l0,0h0A.1.1,0,0,1,50.53,41.12Z"/><path class="cls-1" d="M56.79,39.89l0,0,.07.2.08-.2a.54.54,0,0,1,.18-.26h-.09a.37.37,0,0,1-.14-.07l-.1-.08,0,.13a.29.29,0,0,1,0,.16,0,0,0,0,1,0,0S56.8,39.87,56.79,39.89Z"/><path class="cls-1" d="M51.93,33.66a2.1,2.1,0,1,0-2.09-2.1A2.1,2.1,0,0,0,51.93,33.66Zm0-3.15a1.05,1.05,0,1,1-1,1A1,1,0,0,1,51.93,30.51Z"/><path class="cls-1" d="M55.28,33.11a3.73,3.73,0,0,1-2.9,2.11v4.53a8.19,8.19,0,0,0,7.21-5.24Z"/><path class="cls-1" d="M50.14,28.34a3.66,3.66,0,0,1,3.59,0l2.66-3.67a8.18,8.18,0,0,0-8.91,0Z"/><path class="cls-1" d="M51.49,35.22a3.71,3.71,0,0,1-2.9-2.11l-4.31,1.4a8.19,8.19,0,0,0,7.21,5.24Z"/><path class="cls-1" d="M44,33.67l4.32-1.4a3.35,3.35,0,0,1-.07-.71,2.55,2.55,0,0,1,0-.39,3.67,3.67,0,0,1,.67-1.75,3.71,3.71,0,0,1,.49-.56l-2.67-3.67a8.2,8.2,0,0,0-3,6.37,7.64,7.64,0,0,0,.07,1.08A8.53,8.53,0,0,0,44,33.67Z"/><path class="cls-1" d="M54.93,29.42a3.6,3.6,0,0,1,.69,2.14,3.35,3.35,0,0,1-.07.71l4.31,1.4a8.18,8.18,0,0,0-2.75-8.48l-2.67,3.67A3.71,3.71,0,0,1,54.93,29.42Z"/><path class="cls-1" d="M121.92,35.21l-4.32,1.4a8.21,8.21,0,0,0,7.22,5.24V37.32A3.7,3.7,0,0,1,121.92,35.21Z"/><path class="cls-1" d="M120.8,26.77l2.67,3.67a3.64,3.64,0,0,1,3.58,0l2.19-3c-.27-.44-.55-.89-.85-1.35a8.15,8.15,0,0,0-7.59.69Z"/><path class="cls-1" d="M117.33,35.77l4.31-1.4a4.17,4.17,0,0,1-.07-.71,4,4,0,0,1,.08-.78,4.34,4.34,0,0,1,.24-.72,3.94,3.94,0,0,1,.86-1.2l-2.66-3.67a8.18,8.18,0,0,0-3,5.42,7.46,7.46,0,0,0-.06.95A8.14,8.14,0,0,0,117.33,35.77Z"/><path class="cls-1" d="M133.69,37.67h0l0,0Z"/><path class="cls-1" d="M122.4,64a5.83,5.83,0,0,1,5.72,0l4.25-5.85a13,13,0,0,0-14.22,0Z"/><path class="cls-1" d="M131.14,69.11a6.12,6.12,0,0,1-.11,1.14l6.88,2.23a13.3,13.3,0,0,0,.44-3.37A13.07,13.07,0,0,0,133.51,59l-4.26,5.86A5.84,5.84,0,0,1,131.14,69.11Z"/><path class="cls-1" d="M130.59,71.58A5.89,5.89,0,0,1,126,75v7.23a13.1,13.1,0,0,0,11.51-8.36Z"/><path class="cls-1" d="M145.77,120l-7.52-2.44a7.3,7.3,0,0,1-.87,1.38,6.54,6.54,0,0,1-1.87,1.56,7.12,7.12,0,0,1-.74.35,5.93,5.93,0,0,1-1.62.41v1A112,112,0,0,0,145.77,120Z"/><path class="cls-1" d="M131.6,122.48v-1.21a5.67,5.67,0,0,1-.84-.15,6.55,6.55,0,0,1-3.4-2.17,7.3,7.3,0,0,1-.87-1.38l-5.72,1.86-1.86.6c.12.32.26.64.41,1a13.3,13.3,0,0,0,1.16,2A90.52,90.52,0,0,0,131.6,122.48Z"/><path class="cls-1" d="M118.07,116.74a14,14,0,0,0,.36,1.82l7.58-2.47c0-.2-.07-.41-.09-.61s0-.42,0-.64A6.43,6.43,0,0,1,128,110.1l-2.72-3.74-2-2.72a14.58,14.58,0,0,0-4.22,5.62c-.1.25-.2.5-.29.75a14.58,14.58,0,0,0-.83,4.83A14.91,14.91,0,0,0,118.07,116.74Z"/><path class="cls-1" d="M132.37,111.15a3.69,3.69,0,0,0-3.67,3.31c0,.13,0,.25,0,.38a3.69,3.69,0,0,0,7.38,0c0-.13,0-.25,0-.38A3.69,3.69,0,0,0,132.37,111.15Z"/><path class="cls-1" d="M131.53,108.41a7.58,7.58,0,0,1,.84,0,6.42,6.42,0,0,1,3.15.82l4.69-6.45a14.45,14.45,0,0,0-6.77-2.28c-.35,0-.71,0-1.07,0a14.41,14.41,0,0,0-7.84,2.32l4.69,6.45A6.5,6.5,0,0,1,131.53,108.41Z"/><path class="cls-1" d="M138,111.62a6.54,6.54,0,0,1,.3.59,6.39,6.39,0,0,1,.56,2.63c0,.22,0,.43,0,.64s0,.41-.09.61l7.58,2.47a14.87,14.87,0,0,0,.46-2.76q0-.48,0-1a14.07,14.07,0,0,0-1.82-7c-.12-.23-.26-.46-.4-.68a14.56,14.56,0,0,0-3.12-3.52l-2,2.72-2.71,3.74A6.59,6.59,0,0,1,138,111.62Z"/><path class="cls-1" d="M72.19,75.23a10.6,10.6,0,0,1,3.41-7.78L67.91,56.86a23.64,23.64,0,0,0-8,24.47l12.44-4A10.74,10.74,0,0,1,72.19,75.23ZM68.94,60.09l-2.72-.88c.38-.39.77-.76,1.17-1.13l.88.29,2.47,3.4a.49.49,0,0,1-.36.07l-.21,0,.15.15c.33.34.17.66-.3.59l-.21,0,.14.16c.31.35.13.66-.33.57l-.21,0,.13.17c.3.37.1.67-.35.55l-.21,0,.12.18c.28.38.07.67-.38.53l-.21-.07.12.18c.25.4,0,.68-.42.52l-.2-.08.11.19c.23.41,0,.67-.44.49l-.2-.09.1.19c.21.42,0,.68-.47.47l-.19-.1.08.2c.19.43-.07.67-.48.44l-.19-.11.07.2c.17.45-.11.67-.51.42l-.18-.12.07.21c.14.45-.15.66-.54.38l-.17-.12.05.21c.12.45-.18.65-.55.36l-.17-.14,0,.21c.09.46-.22.64-.57.33l-.16-.14,0,.21c.07.47-.25.63-.59.3L63,69l0,.21c0,.47-.28.62-.6.27l-.15-.16v.22c0,.47-.31.6-.61.23l-.14-.16v.21c0,.47-.34.58-.63.2l-.12-.17,0,.22c0,.39-.27.52-.51.31a23.46,23.46,0,0,1,.68-2.49A13.4,13.4,0,0,0,68.94,60.09Zm2.87,8.33-.37.42c-.25.25-.58.64-1,1.07s-.91,1-1.47,1.47L67.22,73,65.44,74.6c-.57.5-1.13.94-1.59,1.33s-.88.69-1.16.91l-.45.34.37-.42c.25-.26.58-.64,1-1.07s.92-1,1.48-1.47l1.72-1.64L68.61,71c.56-.51,1.13-.94,1.59-1.34s.88-.69,1.16-.91Z"/><path class="cls-1" d="M92.47,79.7a10.66,10.66,0,0,1-8.37,6.09V98.87a23.68,23.68,0,0,0,20.82-15.12ZM86,94.48c-.43,0-.86,0-1.29,0V91c.43,0,.86,0,1.29,0A32.36,32.36,0,0,1,97.5,93a22.76,22.76,0,0,1-3.73,2.51A29,29,0,0,0,86,94.48Z"/><path class="cls-1" d="M77.65,66A10.53,10.53,0,0,1,88,66l7.69-10.59a23.68,23.68,0,0,0-25.73,0Zm3.8-4.69-.33.21s.1-.1.26-.29.4-.46.7-.75.64-.66,1-1,.8-.74,1.22-1.11l1.28-1.06c.41-.33.81-.61,1.15-.87s.64-.44.84-.59l.33-.21-.25.3c-.17.18-.4.46-.7.75s-.64.66-1,1l-1.22,1.11-1.28,1c-.41.34-.82.62-1.15.88S81.66,61.12,81.45,61.26Zm5.62-7.18c-.24.24-.57.6-1,1s-.9.88-1.45,1.36L82.94,58,81.19,59.4c-.55.46-1.1.86-1.56,1.22s-.86.63-1.13.83l-.44.31.37-.39c.24-.24.56-.6,1-1s.9-.88,1.44-1.36l1.69-1.51,1.75-1.45c.55-.47,1.1-.87,1.56-1.23S86.72,54.2,87,54l.44-.3ZM71.82,55h0c.45.15.45.51,0,.66l-.2.07.2.08c.44.17.42.53,0,.65l-.21.06.19.09c.34.15.39.4.18.55l-1.16-1.59C71.14,55.32,71.48,55.14,71.82,55Z"/><path class="cls-1" d="M81.56,98.87V85.79a10.66,10.66,0,0,1-8.37-6.09l-12.45,4A23.67,23.67,0,0,0,81.56,98.87ZM74.62,96.8a22.92,22.92,0,0,1-4-2A32.23,32.23,0,0,1,81,91.32v3.6A28.82,28.82,0,0,0,74.62,96.8Zm-7.26-8.9c.28,0,.68-.08,1.16-.11s1-.08,1.64-.09l1.88,0,1.88,0c.6,0,1.16.07,1.64.09s.88.09,1.16.11l.44.06-.44.05c-.28,0-.68.09-1.16.11s-1,.08-1.64.09l-1.88,0-1.88,0c-.6,0-1.16-.06-1.64-.09S67.64,88,67.36,88L66.92,88ZM77,86.83l-1.29,0-1.28,0c-.41,0-.79-.06-1.12-.09s-.6-.08-.79-.1l-.3-.06.3-.06c.19,0,.46-.08.79-.11s.71-.08,1.12-.09l1.28,0,1.29,0c.41,0,.79.07,1.12.09s.6.09.79.11l.3.06-.3.06c-.19,0-.46.08-.79.1S77.43,86.82,77,86.83Z"/><path class="cls-1" d="M95.48,123.48A9.5,9.5,0,1,0,86,133,9.5,9.5,0,0,0,95.48,123.48ZM86,130a6.55,6.55,0,1,1,6.54-6.54A6.56,6.56,0,0,1,86,130Z"/><path class="cls-1" d="M86,119.52a4,4,0,1,0,4,4A4,4,0,0,0,86,119.52Zm0,5.54a1.59,1.59,0,1,1,1.59-1.58A1.59,1.59,0,0,1,86,125.06Z"/><path class="cls-1" d="M138.35,31.59h-6.89c-.49-1.05-1.06-2.16-1.73-3.33l-2,2.7a3.54,3.54,0,0,1,.53.63h-2.75a2.85,2.85,0,0,0-.29,0,2,2,0,0,0-1.17.36,2.1,2.1,0,0,0,1.17,3.84,2.85,2.85,0,0,0,.29,0h2.75a3.69,3.69,0,0,1-2.6,1.59v4.53a8.21,8.21,0,0,0,7.22-5.24l-2.72-.88h2.86l.06,0v0h5.24a2.07,2.07,0,0,0,0-4.14Zm0,3.55H125.26a1.48,1.48,0,0,1,0-3h13.09a1.48,1.48,0,0,1,0,3Z"/><path class="cls-1" d="M108.35,73c1.32-.2,2.61-.43,3.86-.63,2.51-.42,4.84-.84,6.84-1.22s3.66-.73,4.83-1,1.82-.39,1.82-.39-.68,0-1.86.17-2.87.27-4.89.51-4.37.52-6.89.86c-1.26.17-2.56.33-3.88.53l-4,.59-4,.62c-1.32.2-2.61.43-3.86.64-2.51.42-4.85.84-6.84,1.21s-3.66.73-4.83,1l-1.82.39,1.86-.16c1.18-.13,2.87-.28,4.89-.52S94,75,96.47,74.69c1.26-.17,2.56-.33,3.88-.53l4-.58Z"/><path class="cls-1" d="M51.82,65.05c.88-1.45,1.67-2.81,2.33-4,1.34-2.35,2.14-4,2.14-4s-1.14,1.41-2.71,3.6c-.79,1.1-1.69,2.39-2.64,3.78-.46.71-1,1.42-1.44,2.17L48,68.9l-1.43,2.27c-.48.74-.92,1.49-1.36,2.21-.87,1.45-1.67,2.8-2.33,4-1.34,2.35-2.14,4-2.14,4s1.13-1.41,2.71-3.6c.79-1.1,1.69-2.39,2.63-3.79.47-.7,1-1.41,1.45-2.16L49,69.53l1.43-2.27C50.94,66.52,51.38,65.76,51.82,65.05Z"/><path class="cls-1" d="M134.21,33.84c-.77,0-1.59-.07-2.41-.07s-1.63,0-2.4.08-1.48.1-2.1.18a20.18,20.18,0,0,0-2,.33,18.33,18.33,0,0,0,2,.34c.62.08,1.33.14,2.1.18s1.58.08,2.4.08,1.64,0,2.41-.07,1.48-.11,2.09-.19a18.28,18.28,0,0,0,2-.34,20.11,20.11,0,0,0-2-.33C135.69,34,135,33.89,134.21,33.84Z"/><path class="cls-1" d="M50.43,135.24c-.13-.49-.26-1-.41-1.48L49.8,133l-.11-.37-.09-.33c-.13-.48-.31-1-.4-1.45s-.22-.92-.28-1.4-.16-.95-.21-1.42-.11-.94-.13-1.4c-.06-.92-.09-1.82-.09-2.68s0-1.66.09-2.41c.1-1.5.25-2.76.37-3.64.07-.44.12-.79.16-1l.06-.36s-.23.46-.56,1.3a23.06,23.06,0,0,0-1,3.59,23.41,23.41,0,0,0-.4,2.48,23.89,23.89,0,0,0,.06,5.84c.06.51.19,1,.28,1.57s.26,1,.38,1.49l.12.39.11.36.23.72c.16.47.29.95.43,1.42.27.95.56,1.88.78,2.8s.47,1.79.66,2.63.38,1.65.54,2.39c.63,3,1,5,1,5s.07-.51.11-1.41c0-.45,0-1,0-1.62s0-1.34-.09-2.1-.12-1.61-.24-2.48-.24-1.8-.44-2.75q-.13-.7-.3-1.44C50.68,136.22,50.57,135.73,50.43,135.24Z"/><path class="cls-1" d="M20.45,38.81a3.2,3.2,0,1,0,4.42-1A3.2,3.2,0,0,0,20.45,38.81Zm4.22,2.73a1.84,1.84,0,0,1-1.87.8l1.83-2.84A1.84,1.84,0,0,1,24.67,41.54Zm-1.2-2.78-1.83,2.83a1.82,1.82,0,0,1,1.83-2.83Z"/><path class="cls-1" d="M140.28,36.81a2.74,2.74,0,1,0,.81,3.79A2.75,2.75,0,0,0,140.28,36.81Zm-2.8,1.45a1.54,1.54,0,0,1,1.6-.68L137.51,40A1.57,1.57,0,0,1,137.48,38.26ZM140.1,40a1.56,1.56,0,0,1-1.6.69l1.57-2.43A1.55,1.55,0,0,1,140.1,40Z"/><path class="cls-1" d="M30.13,123a3.2,3.2,0,1,0-2.73,3.6A3.2,3.2,0,0,0,30.13,123Zm-3.42-1.37a1.83,1.83,0,0,1,1.83.89L25.2,123A1.83,1.83,0,0,1,26.71,121.6Zm-1.32,2.72,3.34-.47a1.82,1.82,0,0,1-3.34.47Z"/><path class="cls-1" d="M115.21,89.32a3.7,3.7,0,1,0,4.17,3.16A3.71,3.71,0,0,0,115.21,89.32Zm.22,1.58a2.1,2.1,0,0,1,2.11,1l-3.87.54A2.11,2.11,0,0,1,115.43,90.9Zm.58,4.18a2.12,2.12,0,0,1-2.12-1l3.87-.53A2.1,2.1,0,0,1,116,95.08Z"/><path class="cls-1" d="M95,136.42a2.73,2.73,0,1,0-1.41-3.6A2.74,2.74,0,0,0,95,136.42Zm1.71-3.93a1.57,1.57,0,0,1,.94,1.47L95,132.8A1.56,1.56,0,0,1,96.72,132.49Zm.47,2.54a1.54,1.54,0,0,1-1.71.31,1.56,1.56,0,0,1-.94-1.46Z"/><path class="cls-1" d="M145.89,125.72a2.73,2.73,0,1,0-3.6,1.41A2.73,2.73,0,0,0,145.89,125.72ZM144,123.2a1.54,1.54,0,0,1,.93,1.47l-2.64-1.16A1.57,1.57,0,0,1,144,123.2Zm-1.25,2.86a1.54,1.54,0,0,1-.93-1.47l2.64,1.16A1.56,1.56,0,0,1,142.76,126.06Z"/><path class="cls-1" d="M102.82,125.61a2.73,2.73,0,1,0-3.68,1.17A2.73,2.73,0,0,0,102.82,125.61Zm-1.24-2.26a1.54,1.54,0,0,1,.2,1.72,1.58,1.58,0,0,1-1.53.84Zm-2.57.29a1.54,1.54,0,0,1,1.52-.83l-1.32,2.56A1.56,1.56,0,0,1,99,123.64Z"/><path class="cls-1" d="M155.65,97.13a2.73,2.73,0,1,0,1.17,3.68A2.73,2.73,0,0,0,155.65,97.13Zm-2.44,3.44a1.56,1.56,0,0,1-.2-1.73,1.58,1.58,0,0,1,1.53-.84Zm2.57-.3a1.56,1.56,0,0,1-1.52.84l1.32-2.57A1.56,1.56,0,0,1,155.78,100.27Z"/><path class="cls-1" d="M115.23,150.49a2.73,2.73,0,1,0-3.72-1.05A2.75,2.75,0,0,0,115.23,150.49Zm-.57-1a1.57,1.57,0,0,1-1.74-.15l2.52-1.41A1.58,1.58,0,0,1,114.66,149.47Zm-1.53-2.73a1.56,1.56,0,0,1,1.73.15l-2.51,1.41A1.56,1.56,0,0,1,113.13,146.74Z"/><path class="cls-1" d="M43.84,137.29a3.19,3.19,0,1,0,4.32,1.32A3.19,3.19,0,0,0,43.84,137.29ZM43.73,141a1.82,1.82,0,0,1,.21-2l1.58,3A1.82,1.82,0,0,1,43.73,141Zm3,.32-1.59-3a1.82,1.82,0,0,1,1.59,3Z"/><path class="cls-1" d="M10.92,69.23a3.2,3.2,0,1,0-2.43-3.81A3.21,3.21,0,0,0,10.92,69.23ZM12,64.32a1.84,1.84,0,0,1,1.4,1.47l-3.29-.72A1.82,1.82,0,0,1,12,64.32Zm1.11,2.82a1.83,1.83,0,0,1-3.3-.73Z"/><path class="cls-1" d="M156.58,81.69a3.19,3.19,0,1,0,2.44,3.8A3.18,3.18,0,0,0,156.58,81.69Zm-1.07,4.9a1.83,1.83,0,0,1-1.41-1.47l3.3.72A1.82,1.82,0,0,1,155.51,86.59Zm-1.11-2.81a1.83,1.83,0,0,1,1.89-.75,1.8,1.8,0,0,1,1.4,1.47Z"/><path class="cls-1" d="M17.91,60.24c.18-.34.39-.72.64-1.12a23.86,23.86,0,0,1,1.72-2.71,28.27,28.27,0,0,1,2.28-2.86,28.84,28.84,0,0,1,2.55-2.62,27,27,0,0,1,2.47-2c.37-.3.72-.55,1-.77s.59-.42.83-.56l.73-.5-.83.29c-.27.1-.58.24-.94.4s-.76.35-1.18.59a25,25,0,0,0-2.77,1.82,29.45,29.45,0,0,0-2.78,2.62,28.25,28.25,0,0,0-2.24,3.08,26.22,26.22,0,0,0-1.47,3c-.18.45-.31.87-.43,1.25s-.22.7-.28,1l-.19.87.41-.79C17.57,60.88,17.72,60.58,17.91,60.24Z"/><path class="cls-1" d="M108.53,145l.37.32-.19-.46c-.14-.27-.35-.67-.62-1.13s-.66-.94-1.07-1.47-.93-1-1.45-1.51-1.11-.89-1.66-1.27-1.11-.66-1.58-.9-.9-.38-1.2-.49l-.47-.14.36.34c.23.2.57.49,1,.85s.85.72,1.32,1.16,1,.86,1.5,1.33,1,.89,1.49,1.34.93.82,1.3,1.19S108.3,144.74,108.53,145Z"/><path class="cls-1" d="M107.68,124.52l-1.34-.16,1.3.38c.41.12.92.25,1.5.38s1.24.3,2,.45c1.45.28,3.15.52,5,.74s3.81.26,5.78.29,3.94-.17,5.78-.35,3.53-.5,5-.8c.73-.16,1.38-.32,2-.47s1.09-.27,1.5-.4l1.29-.4-1.34.18c-.42.07-.94.14-1.53.21s-1.25.16-2,.22c-1.45.19-3.15.33-5,.44s-3.76.19-5.7.19-3.88,0-5.69-.13-3.52-.2-5-.38c-.73,0-1.4-.13-2-.2S108.1,124.58,107.68,124.52Z"/><path class="cls-1" d="M140.84,132l-.83.78c-.52.5-1.26,1.21-2.17,2s-2,1.82-3.11,2.82-2.38,2.08-3.65,3.1-2.53,2.06-3.76,3-2.35,1.79-3.37,2.49-1.82,1.32-2.42,1.73l-.92.66,1-.46c.65-.32,1.57-.78,2.66-1.37s2.31-1.38,3.61-2.22,2.6-1.87,3.91-2.9,2.48-2.19,3.6-3.26,2.07-2.17,2.89-3.11,1.42-1.77,1.86-2.34Z"/><path class="cls-1" d="M38.11,137c-.45-.45-1-1-1.5-1.57s-1.16-1.15-1.75-1.76-1.22-1.15-1.79-1.71-1.13-1-1.59-1.46l-1.17-1-.47-.37.29.52c.2.32.49.77.85,1.31s.85,1.1,1.35,1.73,1.12,1.23,1.71,1.85,1.27,1.14,1.88,1.67,1.23.94,1.75,1.31,1,.64,1.32.83l.53.28-.38-.46C38.89,137.89,38.53,137.49,38.11,137Z"/><path class="cls-1" d="M44.06,120c-.63.19-1.36.37-2.16.54s-1.62.38-2.47.53-1.68.35-2.48.47-1.55.27-2.19.33-1.2.18-1.58.23l-.6.09.6.14c.38.06.93.14,1.6.2s1.44,0,2.28,0,1.72-.18,2.61-.33,1.73-.45,2.53-.71,1.5-.61,2.1-.9,1.06-.61,1.39-.81l.5-.36-.59.15C45.23,119.74,44.7,119.88,44.06,120Z"/><path class="cls-1" d="M17,44.82c.52-.94,1-1.7,1.31-2.23l.5-.85-.68.71c-.42.47-1,1.15-1.68,2s-1.36,1.89-2.1,3-1.38,2.42-2,3.71-1.12,2.66-1.57,3.93-.75,2.5-1,3.55-.37,1.94-.46,2.56l-.11,1,.33-.92c.2-.6.49-1.44.88-2.43s.8-2.16,1.32-3.38S12.78,53,13.4,51.7s1.21-2.55,1.84-3.71S16.45,45.72,17,44.82Z"/><path class="cls-1" d="M74.38,39.8a14.35,14.35,0,0,1-3.84-1.57A8.34,8.34,0,0,1,67.3,35a7.13,7.13,0,0,1-.8-4.41,12.62,12.62,0,0,1,1.1-4c.47-1.15,1-2.08,1.29-2.73l.52-1-.71.91A29.17,29.17,0,0,0,67,26.36a13.3,13.3,0,0,0-1.52,4.14,8.15,8.15,0,0,0,.78,5.12A9.51,9.51,0,0,0,70,39.13a15.15,15.15,0,0,0,4.2,1.32c1.26.18,2.31.25,3.05.29l1.15,0-1.12-.26C76.6,40.36,75.57,40.15,74.38,39.8Z"/><path class="cls-1" d="M93.45,44.08c.26.1.56.22.88.37a20.78,20.78,0,0,1,2.14,1,22.23,22.23,0,0,1,2.34,1.34A22.78,22.78,0,0,1,101,48.31a20.73,20.73,0,0,1,1.84,1.49q.41.33.72.63c.21.19.4.36.54.51l.48.44-.3-.58c-.1-.19-.24-.4-.4-.64s-.34-.53-.56-.81a20.08,20.08,0,0,0-1.66-1.83,21.33,21.33,0,0,0-2.26-1.73,21.49,21.49,0,0,0-2.54-1.27,20,20,0,0,0-2.37-.7c-.35-.07-.68-.12-1-.15s-.54-.07-.75-.08l-.66,0,.61.24Z"/><path class="cls-1" d="M102.71,44.28l1.37.83c.52.26,1.06.54,1.56.85a8.15,8.15,0,0,1,1.46.9,5.23,5.23,0,0,1,1.13,1,3.81,3.81,0,0,1,.69.84c.15.22.23.37.23.37a3,3,0,0,0,0-.45,4.26,4.26,0,0,0-.35-1.14,6.31,6.31,0,0,0-1-1.37,9,9,0,0,0-1.55-1.14c-.58-.29-1.16-.53-1.71-.75s-1.07-.34-1.5-.5-.82-.24-1.08-.33l-.42-.13.31.32A10.24,10.24,0,0,0,102.71,44.28Z"/><path class="cls-1" d="M72.77,32.6a9.39,9.39,0,0,1-1.34-1.82,7.17,7.17,0,0,1-.72-1.47c-.16-.37-.23-.59-.23-.59s0,.23,0,.64a7.45,7.45,0,0,0,.34,1.69A10.36,10.36,0,0,0,72,33.23a13.79,13.79,0,0,0,1.92,2.07,19.7,19.7,0,0,0,2.33,1.52c.79.39,1.54.71,2.19,1l1.6.53.62.17-.52-.38-1.4-.91c-.59-.36-1.27-.78-2-1.26a18.21,18.21,0,0,1-2.11-1.56A11.69,11.69,0,0,1,72.77,32.6Z"/><path class="cls-1" d="M96.46,24.43a2.73,2.73,0,0,0,1.18-.8,4,4,0,0,0,.82-1.89,7.14,7.14,0,0,0-.22-2.3c-.24-.73-.54-1.4-.82-2s-.64-1.17-.92-1.65-.58-.83-.78-1.09l-.33-.39.13.5c.1.3.24.74.38,1.26s.38,1.11.57,1.76a18.82,18.82,0,0,1,.63,2,5.53,5.53,0,0,1,.33,1.91,3.22,3.22,0,0,1-.34,1.59,2.37,2.37,0,0,1-.74,1,2.2,2.2,0,0,1-.41.29l.14,0A1.34,1.34,0,0,0,96.46,24.43Z"/><path class="cls-1" d="M103.67,31.28a7.37,7.37,0,0,0-1.11-.69,8.65,8.65,0,0,0-1.44-.43,9.39,9.39,0,0,0-1.5,0,8.37,8.37,0,0,0-1.26.35,6.25,6.25,0,0,0-.79.44l-.27.22h.34a5.84,5.84,0,0,1,.86,0,6.56,6.56,0,0,1,1.16,0,8.2,8.2,0,0,1,1.29.14,7.43,7.43,0,0,1,1.28.23,7.23,7.23,0,0,1,1.12.3,5.55,5.55,0,0,1,.83.26l.33.1-.2-.29A6.23,6.23,0,0,0,103.67,31.28Z"/><path class="cls-1" d="M101.66,15.09c.1.22.23.47.38.73a12.9,12.9,0,0,0,1.23,1.63A15,15,0,0,0,105.06,19a14.34,14.34,0,0,0,2.1,1.07,12.17,12.17,0,0,0,2,.52,6.32,6.32,0,0,0,.81.08l.62,0,.54,0-.5-.19-.58-.2c-.21-.09-.46-.18-.72-.31a13.08,13.08,0,0,1-1.73-.81A13.91,13.91,0,0,1,105.72,18,14.65,14.65,0,0,1,104,16.71a13.06,13.06,0,0,1-1.41-1.3c-.21-.19-.39-.38-.55-.55l-.41-.45-.37-.4.18.52C101.47,14.69,101.56,14.88,101.66,15.09Z"/><path class="cls-1" d="M130,49a22.39,22.39,0,0,1,2.33.8,16.24,16.24,0,0,1,2.51,1.17,11.87,11.87,0,0,1,2.27,1.53,10.19,10.19,0,0,1,1.71,1.7,8.07,8.07,0,0,1,1,1.42,6.17,6.17,0,0,1,.34.59s0-.25-.13-.68a8.42,8.42,0,0,0-.66-1.7,11,11,0,0,0-1.57-2.09,13.23,13.23,0,0,0-2.39-1.8,16.25,16.25,0,0,0-2.76-1.11,23.27,23.27,0,0,0-2.52-.48c-.74-.06-1.36-.08-1.8-.09l-.68,0,.65.21C128.68,48.56,129.27,48.73,130,49Z"/><path class="cls-1" d="M149.15,95.59a24.88,24.88,0,0,0-2.76-1.65,28.07,28.07,0,0,0-4.28-1.63,30.27,30.27,0,0,0-5.18-.86,32.4,32.4,0,0,0-5.25.2,35.29,35.29,0,0,0-4.45,1c-1.28.4-2.31.8-3,1.1l-1.1.51s.42-.12,1.17-.29,1.81-.46,3.1-.68a35.94,35.94,0,0,1,4.41-.58,30.56,30.56,0,0,1,5.07,0,28.81,28.81,0,0,1,5,.68,26.36,26.36,0,0,1,4.25,1.24A23.13,23.13,0,0,1,149,95.79c.35.16.62.3.8.39l.29.15-.25-.2C149.7,96,149.47,95.81,149.15,95.59Z"/><path class="cls-1" d="M151.4,81.9l-.33-.13a8.22,8.22,0,0,0-1-.28,9.64,9.64,0,0,0-3.58.06,18.14,18.14,0,0,0-4.72,1.87c-1.61.9-3.23,2-4.94,2.75a29.4,29.4,0,0,1-10,2.84,25.87,25.87,0,0,1-3.49.15c-.43,0-.76,0-1,0H122l.35.07c.22,0,.55.13,1,.19a26,26,0,0,0,3.54.28,26.47,26.47,0,0,0,5-.55,26.91,26.91,0,0,0,5.5-1.88c1.78-.9,3.39-2,4.94-2.93a16.82,16.82,0,0,1,4.36-2.11,9,9,0,0,1,3.39-.48,6.24,6.24,0,0,1,1,.11Z"/><path class="cls-1" d="M124.56,141.22c.46-.28,1-.59,1.56-1s1.13-.79,1.71-1.22,1.1-.9,1.61-1.34.95-.88,1.33-1.25.67-.72.88-.95l.32-.38-.4.3c-.25.18-.6.45-1,.78l-1.44,1.11c-.51.41-1.07.84-1.64,1.26s-1.11.88-1.65,1.27l-1.44,1.1-1,.79L123,142l.44-.21C123.7,141.68,124.1,141.49,124.56,141.22Z"/><path class="cls-1" d="M118.35,128.84c1,.06,2,.11,3,.14s2,0,3,0,1.84-.12,2.59-.19,1.38-.17,1.82-.23l.69-.11h-2.53c-.75,0-1.63,0-2.58,0s-2,0-3,0-2,0-3-.06-1.83-.05-2.58-.09l-1.83-.07-.7,0,.69.14c.43.07,1.06.19,1.81.28S117.4,128.78,118.35,128.84Z"/><path class="cls-1" d="M107.57,139c-.35-.28-.71-.54-1.06-.77a9.56,9.56,0,0,0-1-.56,6.09,6.09,0,0,0-.74-.32l-.29-.1.23.2.62.5c.27.19.55.45.87.7s.66.52,1,.8.67.55,1,.81.61.51.85.73l.61.51.24.2-.15-.27c-.11-.16-.25-.41-.46-.67a9.92,9.92,0,0,0-.73-.87C108.23,139.62,107.91,139.31,107.57,139Z"/><path class="cls-1" d="M119.25,136.12l.78.18-.74-.29c-.48-.18-1.16-.45-2-.73s-1.78-.64-2.82-1l-3.24-1.05-3.27-1c-1-.32-2-.57-2.87-.8s-1.55-.4-2-.53l-.78-.18.75.29c.48.18,1.15.45,2,.73s1.77.64,2.81,1l3.24,1.05,3.27,1c1,.32,2,.57,2.87.8S118.76,136,119.25,136.12Z"/><path class="cls-1" d="M41.39,127.38l1.41-1.75c.45-.55.84-1.1,1.19-1.56s.61-.86.8-1.13l.3-.44-.39.37c-.23.24-.58.57-1,1s-.86.9-1.32,1.44L40.94,127l-1.41,1.75c-.45.55-.84,1.1-1.19,1.56s-.61.86-.8,1.13l-.3.44.38-.37c.24-.24.59-.57,1-1s.86-.9,1.33-1.44Z"/><path class="cls-1" d="M16.76,86.79l.14.6s0-.22,0-.61,0-1-.05-1.62,0-1.44.06-2.26.12-1.71.24-2.58.26-1.75.44-2.56.34-1.57.54-2.2.34-1.18.46-1.55l.19-.59-.29.55a12.39,12.39,0,0,0-.67,1.48,18.08,18.08,0,0,0-.73,2.19,25.44,25.44,0,0,0-.52,2.6c-.1.9-.16,1.8-.18,2.64a22,22,0,0,0,.13,2.3C16.57,85.86,16.69,86.41,16.76,86.79Z"/><path class="cls-1" d="M36.45,61c-.48.12-1,.23-1.63.4L33,61.88l-1.84.59c-.58.19-1.12.41-1.58.57s-.84.34-1.11.45l-.41.18.45-.07c.28-.06.69-.12,1.17-.24s1-.23,1.63-.4l1.86-.51L35,61.86c.59-.19,1.12-.41,1.59-.57s.84-.34,1.11-.45l.41-.18-.45.07C37.34,60.79,36.93,60.85,36.45,61Z"/><path class="cls-1" d="M29.22,56.69c.49-.43,1.11-.87,1.77-1.35A22.06,22.06,0,0,1,33.16,54a23,23,0,0,1,2.3-1.11c.76-.29,1.47-.59,2.1-.76s1.15-.35,1.53-.44l.59-.15-.61,0a11.74,11.74,0,0,0-1.59.22,16.87,16.87,0,0,0-2.2.61,22.92,22.92,0,0,0-2.4,1.07,22.41,22.41,0,0,0-2.19,1.44A16.72,16.72,0,0,0,29,56.45a13.4,13.4,0,0,0-1,1.22l-.36.49.44-.41C28.3,57.48,28.71,57.12,29.22,56.69Z"/><path class="cls-1" d="M99,26.42c.41-.06,1-.14,1.71-.27s1.54-.27,2.41-.46l2.75-.58,2.73-.66c.87-.21,1.67-.45,2.37-.63s1.26-.38,1.66-.49l.63-.2-.65.09c-.42.07-1,.14-1.72.27s-1.53.27-2.4.46l-2.75.58-2.73.66c-.87.21-1.68.45-2.37.63s-1.26.38-1.67.49l-.62.2Z"/><path class="cls-1" d="M124.5,18.39l-.51-.46.42.54c.28.33.66.83,1.12,1.41s1,1.27,1.54,2,1.13,1.54,1.68,2.36,1.12,1.63,1.61,2.41,1,1.51,1.33,2.16.71,1.16.92,1.54L133,31l-.25-.64c-.17-.4-.39-1-.72-1.65s-.72-1.46-1.19-2.26-1-1.66-1.56-2.49-1.18-1.61-1.77-2.34-1.18-1.37-1.69-1.91S124.81,18.69,124.5,18.39Z"/><path class="cls-1" d="M154.39,57.58c-.55-.9-1.22-1.93-2-3s-1.67-2.16-2.58-3.23-1.92-2.06-2.87-3-1.89-1.72-2.71-2.38-1.53-1.18-2-1.54l-.79-.55.72.64c.47.39,1.11,1,1.88,1.7s1.64,1.57,2.57,2.49,1.87,2,2.78,3,1.82,2.12,2.62,3.15,1.54,2,2.13,2.88,1.11,1.57,1.44,2.09l.54.8-.44-.86C155.36,59.26,155,58.48,154.39,57.58Z"/><path class="cls-1" d="M138.22,28.4c-.65-.63-1.28-1.16-1.84-1.63s-1-.88-1.47-1.19l-1.31-1,1.23,1.09c.41.34.87.77,1.4,1.28s1.13,1.06,1.76,1.7c1.29,1.24,2.68,2.8,4.15,4.49s2.9,3.6,4.26,5.56,2.61,4,3.69,5.94,2,3.83,2.74,5.47c.37.82.69,1.58,1,2.25s.53,1.26.7,1.76c.37,1,.59,1.54.59,1.54s-.18-.58-.48-1.58q-.22-.76-.6-1.8c-.23-.69-.52-1.47-.87-2.3a58.58,58.58,0,0,0-2.59-5.58c-1.07-2-2.31-4-3.66-6s-2.87-3.86-4.35-5.56A60.52,60.52,0,0,0,138.22,28.4Z"/><path class="cls-1" d="M78.48,69.22a7.17,7.17,0,0,0-1.6,1.39,7.57,7.57,0,0,0-1.21,2.14,7.3,7.3,0,0,0-.32,2.43,6.88,6.88,0,0,0,.44,2.07,5.71,5.71,0,0,0,.69,1.31,5,5,0,0,0,.35.44s-.1-.17-.25-.5a8.68,8.68,0,0,1-.48-1.35,8.45,8.45,0,0,1-.24-2,7,7,0,0,1,.37-2.24,6.94,6.94,0,0,1,1-2,8.72,8.72,0,0,1,1.39-1.44,8.58,8.58,0,0,1,1.2-.79c.31-.17.5-.25.5-.25a5.4,5.4,0,0,0-.54.15A5.82,5.82,0,0,0,78.48,69.22Z"/><path class="cls-1" d="M82.17,84.91a10.19,10.19,0,0,0,2.47-.13,9.22,9.22,0,0,0,5-2.6,10,10,0,0,0,1.51-2,8,8,0,0,0,.72-1.58C92,78.25,92,78,92,78s-.1.22-.29.58a10.63,10.63,0,0,1-.9,1.44,11.38,11.38,0,0,1-1.58,1.77,10.22,10.22,0,0,1-2.21,1.53,9.82,9.82,0,0,1-2.53.94,11.63,11.63,0,0,1-2.35.3,12.38,12.38,0,0,1-1.69-.09c-.41,0-.65-.1-.65-.1s.22.09.62.21A8.54,8.54,0,0,0,82.17,84.91Z"/><path class="cls-1" d="M37,87.62a4.68,4.68,0,0,0,1.43.53,5.69,5.69,0,0,0,2.18,0,5.18,5.18,0,0,0,3.85-3.05A5.68,5.68,0,0,0,44.93,83a4.62,4.62,0,0,0-.19-1.51,4.13,4.13,0,0,0-.13-.41l-.06-.13,0,.14c0,.1,0,.24.05.42a6.11,6.11,0,0,1,0,1.46A6.3,6.3,0,0,1,44,84.88a5.3,5.3,0,0,1-3.49,2.77,6.28,6.28,0,0,1-2,.17,5.67,5.67,0,0,1-1.43-.3,3.19,3.19,0,0,1-.4-.15l-.13-.05.12.08A3.6,3.6,0,0,0,37,87.62Z"/><path class="cls-1" d="M34.67,81.75a3.06,3.06,0,0,0,.08.7c0,.16.07.26.07.26s0-.1,0-.26.08-.4.14-.66a6.56,6.56,0,0,1,.3-.88,3.83,3.83,0,0,1,.49-.91,4,4,0,0,1,.64-.82,6.32,6.32,0,0,1,.69-.62,6,6,0,0,1,.55-.39l.22-.14-.27,0a2.59,2.59,0,0,0-.67.21,3.7,3.7,0,0,0-.87.52,5.53,5.53,0,0,0-.79.87,5,5,0,0,0-.48,1.07A3.82,3.82,0,0,0,34.67,81.75Z"/><path class="cls-1" d="M32.24,118.67l0-.18c0-.11.06-.27.09-.44a5.74,5.74,0,0,1,.2-.58,2.44,2.44,0,0,1,.31-.6,2.7,2.7,0,0,1,.4-.54,4.26,4.26,0,0,1,.44-.42c.14-.11.26-.23.35-.29l.15-.11H34a2,2,0,0,0-.48.11,2.16,2.16,0,0,0-.61.33,3,3,0,0,0-.56.61,3,3,0,0,0-.3.76,2.52,2.52,0,0,0,0,.71,2.42,2.42,0,0,0,.12.47Z"/><path class="cls-1" d="M83.4,119.64a5.12,5.12,0,0,1,1.07-.54,5.59,5.59,0,0,1,.84-.25,2.21,2.21,0,0,1,.33-.06,2.48,2.48,0,0,0-.34-.05,3.29,3.29,0,0,0-.92,0,4.37,4.37,0,0,0-1.24.43,4.83,4.83,0,0,0-1.19,1,4.58,4.58,0,0,0-.75,1.32,4,4,0,0,0-.23,1.29,3.13,3.13,0,0,0,.1.91,2.37,2.37,0,0,0,.1.33,2.19,2.19,0,0,1,0-.34,5.75,5.75,0,0,1,.11-.86,6.09,6.09,0,0,1,.38-1.14,4,4,0,0,1,.73-1.13A4.41,4.41,0,0,1,83.4,119.64Z"/><path class="cls-1" d="M137.79,112.76c-.07-.18-.16-.31-.2-.4l-.08-.14.05.15a4.46,4.46,0,0,1,.12.43,5.48,5.48,0,0,1,.2,1.54,6.28,6.28,0,0,1-.39,2.11,5.33,5.33,0,0,1-1.32,2,5.74,5.74,0,0,1-2,1.31,7,7,0,0,1-2.11.47,6.44,6.44,0,0,1-1.55-.08,4.05,4.05,0,0,1-.44-.08l-.15,0,.14.06c.1,0,.24.11.42.17a5.9,5.9,0,0,0,1.59.3,6.37,6.37,0,0,0,2.28-.31,6.19,6.19,0,0,0,2.29-1.38,5.67,5.67,0,0,0,1.39-2.28,5.57,5.57,0,0,0,.24-2.3A4.69,4.69,0,0,0,137.79,112.76Z"/><path class="cls-1" d="M127.92,112.58a4,4,0,0,0-.3,1.17,3.38,3.38,0,0,0,0,.83c0,.2.07.31.07.31s0-.12,0-.31a5,5,0,0,1,.18-.77,4.71,4.71,0,0,1,.43-1,3.79,3.79,0,0,1,.73-1,4,4,0,0,1,1-.74,5,5,0,0,1,1-.44,7,7,0,0,1,.77-.19l.31,0-.31-.07a3.09,3.09,0,0,0-.84,0,4,4,0,0,0-1.16.31,4.59,4.59,0,0,0-1.16.79A4.34,4.34,0,0,0,127.92,112.58Z"/><path class="cls-1" d="M126.75,74.15a4.35,4.35,0,0,0,1-.36,3.17,3.17,0,0,0,.47-.27,2.72,2.72,0,0,0,.46-.32,3.67,3.67,0,0,0,.43-.37c.13-.13.28-.28.39-.41a4.65,4.65,0,0,0,.94-2,6.31,6.31,0,0,0-.47-3.7l.08.5a10.43,10.43,0,0,1,.08,1.3,7.29,7.29,0,0,1-.21,1.78,5.53,5.53,0,0,1-.33.94A4.21,4.21,0,0,1,129,72a4.14,4.14,0,0,1-.35.38,2.43,2.43,0,0,1-.38.34,2.38,2.38,0,0,1-.4.31,2.63,2.63,0,0,1-.41.27,7,7,0,0,1-3,.86,4.72,4.72,0,0,1-.5,0,5,5,0,0,0,1.84.12A5.2,5.2,0,0,0,126.75,74.15Z"/><path class="cls-1" d="M124.49,31.37l-.17,0a1.52,1.52,0,0,0-.45,0,1.61,1.61,0,0,0-.61.25,1.61,1.61,0,0,0-.74,1.32,1.79,1.79,0,0,0,.1.64,1.67,1.67,0,0,0,.19.4l.09.14,0-.17c0-.1,0-.25,0-.41a2.56,2.56,0,0,1,.09-.53,1.28,1.28,0,0,1,.21-.53,1.72,1.72,0,0,1,.34-.46,2.49,2.49,0,0,1,.4-.34c.14-.08.26-.18.35-.22Z"/><path class="cls-1" d="M49.58,32.1a3.7,3.7,0,0,1-.09-.36l0-.13v.13a1.68,1.68,0,0,0,0,.38A2.46,2.46,0,0,0,50,33.4a2.65,2.65,0,0,0,2.92.83,3,3,0,0,0,1-.64,2.82,2.82,0,0,0,.64-1,2.3,2.3,0,0,0,.13-.59c0-.11,0-.19,0-.28a2.48,2.48,0,0,0,0-.29,2.54,2.54,0,0,0-1-1.76,2.43,2.43,0,0,0-1.28-.53,1.69,1.69,0,0,0-.38,0H52l.13,0a3.1,3.1,0,0,1,.36.09,2.67,2.67,0,0,1,.52.22,2.72,2.72,0,0,1,.55.45,2.36,2.36,0,0,1,.67,1.55,1.61,1.61,0,0,1,0,.22c0,.09,0,.19,0,.26a2.81,2.81,0,0,1-.13.45,2.26,2.26,0,0,1-1.33,1.33,2.29,2.29,0,0,1-.94.15,2.38,2.38,0,0,1-1.54-.67,2.46,2.46,0,0,1-.44-.56A2,2,0,0,1,49.58,32.1Z"/></g></g></svg>