<svg xmlns="http://www.w3.org/2000/svg" viewBox="0 0 21.74 27.31"><defs><style>.cls-1{fill:#595959;fill-rule:evenodd;}</style></defs><g id="Layer_2" data-name="Layer 2"><g id="_13" data-name="13"><path class="cls-1" d="M10.86,1.94a2.67,2.67,0,0,1,2.7,2.68h1.93A4.59,4.59,0,0,0,10.86,0,4.66,4.66,0,0,0,6.24,4.62H8.18a2.65,2.65,0,0,1,2.68-2.68ZM21.74,26.23,20.55,6.46a1.14,1.14,0,0,0-1-1H2.25a1,1,0,0,0-1,1L0,26.23A1.51,1.51,0,0,0,.21,27a1,1,0,0,0,.75.33H20.88a1,1,0,0,0,.86-1v-.11ZM9,8.6a1.22,1.22,0,0,1-1.3,1.18A1.19,1.19,0,0,1,6.56,8.6V7.85A1.2,1.2,0,0,1,7.74,6.66,1.23,1.23,0,0,1,9,7.85Zm6.24,0A1.28,1.28,0,0,1,14,9.78,1.19,1.19,0,0,1,12.8,8.6V7.85A1.2,1.2,0,0,1,14,6.66a1.29,1.29,0,0,1,1.29,1.19Z"/></g></g></svg>