<svg xmlns="http://www.w3.org/2000/svg" viewBox="0 0 370.61 408.54"><defs><style>.cls-1{fill:#404040;}</style></defs><g id="Layer_2" data-name="Layer 2"><g id="Layer_1-2" data-name="Layer 1"><path class="cls-1" d="M353.34,117a44.79,44.79,0,0,0,.91-6.59c0-.48,0-.94,0-1.38a17.2,17.2,0,0,0-.35-3.61,10.52,10.52,0,0,0-1-2.86,8.9,8.9,0,0,0-2.46-2.83,9.55,9.55,0,0,0-.8-.57,14.48,14.48,0,0,0-1.84-1A36.41,36.41,0,0,0,339,95.87c-1-.17-2.09-.32-3.21-.48L334,95.17c-2.35-.3-4.89-.6-7.64-.94q-1.74-.21-3.6-.54l-1.87-.36c-1.26-.25-2.56-.54-3.88-.86-2.63-.63-5.36-1.39-8.13-2.23-1.39-.42-2.79-.86-4.19-1.32l-2.1-.7c-6.31-2.14-12.63-4.59-18.35-6.94l-3.72-1.56c-1.82-.77-3.55-1.51-5.17-2.23l-1.6-.7c-2.59-1.15-4.88-2.2-6.76-3.07a133.27,133.27,0,0,0-21.09-13.58c-1.78-.92-3.57-1.81-5.39-2.65a131.26,131.26,0,0,0-30.08-9.71q-4.2-.81-8.48-1.35l-.65-.09c.09-.17.15-.35.23-.53a10,10,0,0,0-.89-9.67,9.46,9.46,0,0,0-.58-.79,10.38,10.38,0,0,0-3-2.47,10.8,10.8,0,0,0-1.82-.77,10.41,10.41,0,0,0-3-.45H178.06a10.14,10.14,0,0,0-4.85,1.22,10.34,10.34,0,0,0-3,2.47,10.49,10.49,0,0,0-1.1,1.62,10.13,10.13,0,0,0-1.22,4.84A9.71,9.71,0,0,0,168,43a10.31,10.31,0,0,0,.55,2.27,9.75,9.75,0,0,0,.45,1.05,131.72,131.72,0,0,0-22.57,4.79q-4.36,1.34-8.6,3a132.12,132.12,0,0,0-18,8.55c-2,1.16-4.06,2.36-6,3.63q-5.64,3.63-10.9,7.8l-1.21.55c-1.67.77-3.57,1.63-5.66,2.55l-1.59.7C87.32,81,78.47,84.59,69.54,87.68l-2.06.71c-2.06.69-4.12,1.35-6.15,2-.68.21-1.35.41-2,.6-1.34.39-2.67.75-4,1.09s-2.6.64-3.87.92c-2.53.56-5,1-7.23,1.27l-2,.25-2,.23-3.67.46-1.72.22a53.79,53.79,0,0,0-11,2.36c-3.93,1.48-6.32,3.73-7.17,7.66a15.74,15.74,0,0,0-.31,2.31,23.93,23.93,0,0,0,0,2.68,44.79,44.79,0,0,0,.91,6.59,16.78,16.78,0,0,0-3.89,3.76l-.28.36a40.44,40.44,0,0,0-4.47,7.3A69.92,69.92,0,0,0,4.2,140.58q-.17.61-.33,1.26C1.62,150.64,0,162.38,0,177.93c0,25.4,4.32,40.64,8.63,49.52A41.72,41.72,0,0,0,12.55,234c.49.67.95,1.25,1.39,1.75a15.15,15.15,0,0,0,3.33,3.09c-.25,1.25-.46,2.41-.61,3.51s-.25,2.12-.3,3.08a23.75,23.75,0,0,0,0,2.67,16.07,16.07,0,0,0,.31,2.32,9.33,9.33,0,0,0,4.3,6.25c4.49,2.87,12.25,3.58,23.25,4.93,13.64,1.67,32.8,8.95,46.78,14.9q2.63,1.13,5,2.16L99,280l3.88,1.77a133.2,133.2,0,0,0,18,12.08,132.32,132.32,0,0,0,113.45,7.2q5.07-2,9.93-4.47t9.47-5.24q2.31-1.41,4.56-2.9,4.5-3,8.73-6.32c1.34-.62,2.89-1.33,4.6-2.1l1.32-.6,3.37-1.48q2-.89,4.24-1.82l1.83-.78c1.86-.77,3.8-1.57,5.79-2.36s4-1.58,6.09-2.36c4.13-1.55,8.38-3,12.56-4.37,2.09-.67,4.17-1.28,6.21-1.84,2.71-.75,5.36-1.4,7.89-1.91l1.87-.35q1.86-.33,3.6-.54c11-1.35,18.75-2.06,23.25-4.93a7.62,7.62,0,0,0,.8-.56,8.9,8.9,0,0,0,2.46-2.83,10.52,10.52,0,0,0,1-2.86,17.2,17.2,0,0,0,.35-3.61c0-.44,0-.91,0-1.38-.05-1-.15-2-.3-3.08s-.36-2.26-.61-3.51c0,0,6.09-3.58,11-17.12.53-1.42,1-3,1.52-4.61.24-.83.48-1.69.71-2.57.7-2.66,1.34-5.6,1.89-8.83q.56-3.23,1-6.87a180.59,180.59,0,0,0,1.13-20.95h0C370.61,127.14,353.34,117,353.34,117Zm10.4,63.66c0,1.8,0,3.58-.11,5.37,0,.89-.08,1.79-.14,2.68-.11,1.78-.19,3.56-.35,5.3s-.37,3.45-.54,5.14c-.43,3.36-.92,6.61-1.6,9.66-.3,1.52-.63,3-1,4.42s-.71,2.79-1.16,4.08a37.91,37.91,0,0,1-1.27,3.69c-.44,1.16-.9,2.24-1.39,3.24a36.74,36.74,0,0,1-2.78,5,18.15,18.15,0,0,1-2.31,2.85,8.48,8.48,0,0,1-.71.66l-.2.15-.07.05a3.07,3.07,0,0,0,.25-.23c.07-.07.17-.17.27-.29s.23-.26.36-.43a22,22,0,0,0,2-3,35.85,35.85,0,0,0,2.34-5.11c.21-.5.4-1,.59-1.57s.36-1.12.53-1.7.38-1.17.56-1.79.34-1.25.51-1.89c.37-1.28.65-2.65.94-4.06s.59-2.87.81-4.39.51-3.07.66-4.67.44-3.22.55-4.9.28-3.36.42-5.08.17-3.45.25-5.21.16-3.52.17-5.31l0-2.69c0-.9,0-1.8,0-2.7-.09-3.53,0-7.14-.24-10.64-.08-1.76-.17-3.5-.25-5.22s-.28-3.42-.42-5.08c-.37-3.33-.67-6.55-1.21-9.57-.22-1.52-.48-3-.8-4.39s-.58-2.78-.95-4.06-.68-2.53-1.06-3.68-.71-2.27-1.12-3.27c-.19-.51-.38-1-.58-1.47a40.36,40.36,0,0,0-1.77-3.64,22.19,22.19,0,0,0-2-3,5.92,5.92,0,0,0-.88-.94,6.26,6.26,0,0,1,1,.86,18.15,18.15,0,0,1,2.31,2.85c.22.33.44.69.67,1.06s.47.77.7,1.18c.47.84.95,1.75,1.41,2.76s.94,2.08,1.39,3.24.86,2.39,1.27,3.69.8,2.66,1.16,4.08.73,2.9,1,4.42c.69,3.05,1.18,6.3,1.6,9.66.18,1.69.36,3.41.55,5.14s.24,3.51.34,5.28.19,3.57.22,5.37.05,3.61.11,5.44C363.78,178.86,363.76,179.76,363.74,180.65Zm-293,81.58c-4.71-1.62-9.73-3.33-14.82-4.69-2.54-.7-5.1-1.31-7.63-1.78s-5-.8-7.53-1.07-4.91-.63-7.21-1a38.25,38.25,0,0,1-6.43-1.61,13.17,13.17,0,0,1-4.95-2.92,7.73,7.73,0,0,1-1.45-1.94,9.27,9.27,0,0,1-.44-1c-.12-.32-.21-.62-.29-.91a11.85,11.85,0,0,1-.34-2.75c0-.63,0-1,0-1s.05.33.15.95a12.86,12.86,0,0,0,.76,2.56,7.78,7.78,0,0,0,.91,1.61,6,6,0,0,0,.66.79,6.52,6.52,0,0,0,.82.74,9.57,9.57,0,0,0,2.09,1.22c.39.17.81.33,1.24.47s.89.28,1.35.4a62.92,62.92,0,0,0,9.71,1.31l1.82.13,1.84.13c1.24.08,2.52.17,3.83.29s2.64.27,4,.5,2.65.49,4,.78,2.64.61,4,.95c2.62.69,5.19,1.53,7.7,2.38s5,1.79,7.3,2.72c4.68,1.89,9,3.87,12.54,5.69l1.32.67c4.28,2.2,7.47,4.08,9.12,5.1.82.5,1.26.79,1.26.79L83.57,267c-2.8-1.07-6-2.25-9.34-3.48C73.1,263.06,72,262.64,70.78,262.23ZM13.2,224.4c-.53-1-1-2.07-1.5-3.23s-.95-2.39-1.4-3.69S9.42,214.82,9,213.4,8.23,210.49,7.9,209s-.68-3.11-1-4.74-.53-3.28-.76-5-.4-3.42-.61-5.16-.28-3.54-.39-5.34-.2-3.6-.22-5.38-.09-3.59-.14-5.38.09-3.66.14-5.48.09-3.61.23-5.4c.05-.89.1-1.78.17-2.67s.13-1.76.22-2.64c.2-1.74.4-3.47.6-5.17s.48-3.35.77-5,.61-3.21,1-4.74.67-3,1.11-4.44.81-2.79,1.29-4.08c.23-.65.44-1.29.67-1.91s.46-1.21.73-1.78.48-1.14.73-1.68.5-1.06.76-1.55a32.79,32.79,0,0,1,3-5,18.37,18.37,0,0,1,2.46-2.78,6.3,6.3,0,0,1,1-.81l-.06.06a5.13,5.13,0,0,0-.44.48c-.1.13-.21.27-.33.45A12.31,12.31,0,0,0,18,125.2c-.16.26-.32.54-.49.84L17,127a40.78,40.78,0,0,0-2.13,5.16c-.19.51-.36,1-.53,1.58s-.33,1.12-.48,1.7c-.35,1.16-.65,2.39-.95,3.69-.16.64-.3,1.3-.44,2s-.25,1.38-.37,2.08-.27,1.42-.4,2.14-.22,1.48-.32,2.23c-.25,1.5-.43,3.05-.59,4.64s-.31,3.22-.48,4.87-.24,3.35-.36,5.06-.14,3.44-.21,5.19-.14,3.51-.14,5.28,0,3.53-.05,5.29,0,3.6.05,5.39,0,3.57.14,5.29.15,3.47.22,5.17.24,3.4.35,5,.37,3.27.49,4.87c.06.8.15,1.59.26,2.36s.21,1.54.32,2.29.22,1.49.32,2.23.27,1.43.4,2.14c.25,1.41.49,2.77.82,4s.59,2.53.94,3.69.64,2.27,1,3.27c.17.52.35,1,.53,1.48.35.94.72,1.8,1.08,2.58.18.39.35.76.52,1.1a22.4,22.4,0,0,0,1.86,3.1,6.2,6.2,0,0,0,.6.75,3,3,0,0,0,.23.24l-.28-.19a9.24,9.24,0,0,1-.74-.62l-.52-.5c-.19-.18-.39-.39-.6-.62a20.81,20.81,0,0,1-1.34-1.66A32.79,32.79,0,0,1,13.2,224.4ZM23.21,117l1-.14,1.23-.17,6.16-.85c1.41-.19,2.93-.42,4.53-.68l2.46-.43c.83-.16,1.69-.32,2.55-.5,1.73-.34,3.51-.76,5.34-1.17L52,111.8l10.88-2.37,9.5-2c5.57-1.17,9.3-1.87,9.3-1.87s-3.59,1.23-9.08,2.77l-4.43,1.22-2.42.64c-.83.22-1.68.43-2.55.64-3.45.87-7.14,1.73-10.85,2.54s-7.41,1.58-10.95,2.19-6.85.87-9.69,1.1-5.22.28-6.88.36l-2.61.07Zm149-78.78c.05-.24.11-.47.16-.67a7.53,7.53,0,0,1,.32-1,9.42,9.42,0,0,1,.48,1.65,18.34,18.34,0,0,1,.36,3.63,19.14,19.14,0,0,1-.36,3.64,9.42,9.42,0,0,1-.48,1.65,9.42,9.42,0,0,1-.48-1.65c-.05-.25-.1-.52-.14-.8a20.73,20.73,0,0,1-.22-2.84A19.12,19.12,0,0,1,172.22,38.18Zm18.23-1.65,0,.12a9.58,9.58,0,0,1,.44,1.53,18.39,18.39,0,0,1,.35,3.63c0,.33,0,.66,0,1,0,.65-.1,1.28-.19,1.85,0,.28-.09.55-.14.8a9.42,9.42,0,0,1-.48,1.65,9.42,9.42,0,0,1-.48-1.65,17.4,17.4,0,0,1-.33-2.65q0-.49,0-1c0-.66,0-1.32.1-1.93a14.57,14.57,0,0,1,.26-1.7A9.42,9.42,0,0,1,190.45,36.53ZM197,41.81c0,.24,0,.47,0,.69a12,12,0,0,1-.13,1.29c0,.2-.07.39-.11.56s-.08.33-.12.47a6.52,6.52,0,0,1-.23.68s-.1-.26-.22-.68c0-.14-.09-.3-.13-.47s-.07-.36-.1-.56a13.34,13.34,0,0,1-.16-2c0-.23,0-.46,0-.68s0-.45.06-.67a11,11,0,0,1,.18-1.18,8.13,8.13,0,0,1,.35-1.15,6.52,6.52,0,0,1,.23.68c0,.14.08.3.12.47s.08.36.11.56A13.37,13.37,0,0,1,197,41.81Zm57.56,34q1.91,1.27,3.77,2.65a141.47,141.47,0,0,1,14.21,12.15,140.26,140.26,0,0,1,12.15,14.2q1.38,1.86,2.65,3.77t2.47,3.84c1.58,2.57,3.06,5.16,4.46,7.74.66,1.31,1.31,2.61,1.93,3.91s1.21,2.6,1.78,3.89c1.13,2.58,2.15,5.15,3,7.68s1.64,5,2.4,7.43,1.25,4.8,1.73,7.08,1,4.47,1.23,6.58.61,4.09.77,6,.3,3.64.44,5.27.08,3.13.12,4.48c.14,2.7-.09,4.83-.09,6.28,0,1.08-.06,1.78-.07,2.07v.14s0-.19-.05-.57-.08-.92-.14-1.64c-.15-1.44-.23-3.55-.61-6.21-.17-1.33-.35-2.8-.56-4.41s-.57-3.31-.88-5.14c-.7-3.66-1.64-7.75-2.86-12.15-.62-2.19-1.39-4.44-2.13-6.78-.9-2.29-1.64-4.72-2.69-7.11L296,133.26c-.54-1.22-1.15-2.42-1.74-3.66-1.13-2.48-2.52-4.91-3.83-7.42-.7-1.23-1.43-2.46-2.18-3.68-1.51-2.45-3.12-4.89-4.8-7.3-.85-1.21-1.71-2.41-2.6-3.61A139.87,139.87,0,0,0,269.06,94c-2.14-2.12-4.35-4.18-6.61-6.15S257.86,84,255.5,82.2s-4.81-3.46-7.24-5.06-4.89-3.11-7.35-4.52a143.06,143.06,0,0,0-14.73-7.11c-2.39-1.05-4.82-1.79-7.11-2.69-2.34-.74-4.59-1.51-6.78-2.13-4.4-1.21-8.49-2.16-12.15-2.86L195,57l-4.39-.56c-1.33-.19-2.53-.3-3.57-.39l-1.45-.11-1.21-.11-1-.08-1.11-.09-.14,0h.56l1.65-.06c1.45,0,3.56-.23,6.26-.09l4.5.12,5.27.45A117.82,117.82,0,0,1,213,58c2.28.48,4.63,1.12,7.08,1.73,1.2.38,2.43.74,3.67,1.13.63.19,1.25.39,1.88.6s1.25.43,1.88.67c1.27.44,2.54.91,3.83,1.42s2.56,1,3.86,1.6c2.58,1.13,5.18,2.38,7.79,3.71,1.29.7,2.59,1.42,3.88,2.17C249.41,72.5,252,74.08,254.53,75.78Zm90,40.89,1.17.17.9.12.35.05.64.09s-2.75,0-7.06-.27l-1.93-.12c-2-.16-4.3-.36-6.72-.65l-2.48-.33c-3.37-.54-6.87-1.28-10.4-2s-7-1.62-10.27-2.5-6.28-1.81-8.86-2.6c-.64-.21-1.26-.4-1.84-.6l-1.66-.56c-3.11-1.07-5-1.85-5-1.85l8.74,2.09,9,2.08,2.5.58,7.78,1.8c3.49.77,7,1.63,10.27,2.26s6.39,1.12,9.06,1.48l3.64.51ZM282.08,253.41q-2.41,3.09-5,6t-5.37,5.69A124,124,0,0,1,253.56,280q-3.27,2.19-6.66,4.17a122.28,122.28,0,0,1-61.75,16.63q-3.18,0-6.32-.16-4.71-.24-9.33-.83-3.08-.39-6.1-.93a120.85,120.85,0,0,1-20.49-5.54,119.06,119.06,0,0,1-11-4.66q-4-1.94-7.89-4.16-2.56-1.47-5.06-3.08a122.08,122.08,0,0,1-16.39-12.56q-2.19-2-4.27-4.07c-.69-.69-1.38-1.39-2.06-2.11a123.57,123.57,0,0,1-16.14-21.06q-2.31-3.79-4.34-7.77A123.26,123.26,0,0,1,69,137.67q1.32-3.78,2.86-7.45,2.32-5.5,5.16-10.72c.62-1.16,1.27-2.3,1.93-3.44q2-3.41,4.2-6.67c.73-1.09,1.48-2.16,2.25-3.22q2.3-3.19,4.79-6.22a123.72,123.72,0,0,1,19.65-19.1c2.07-1.6,4.19-3.15,6.36-4.62s4.39-2.88,6.66-4.21a119.69,119.69,0,0,0-37.15,35.54q-2.62,3.91-4.83,7.81t-4,7.72c-.6,1.27-1.16,2.53-1.7,3.78a118,118,0,0,0-6.78,20.85c-.23,1-.45,2.07-.64,3.07s-.37,2-.53,2.94c-.33,1.92-.58,3.73-.78,5.44-.3,2.57-.47,4.91-.58,7s-.15,3.91-.21,5.45c0,.52,0,1,0,1.46,0,1.82,0,3.15.06,4,0,.61,0,.91,0,.91s.06-.85.17-2.5c0-.66.1-1.44.16-2.35,0-.45.06-.94.1-1.45.11-1,.24-2.16.4-3.42.08-.62.17-1.28.26-2,.47-3.4,1.16-7.49,2.27-12.13q.33-1.4.72-2.85t.84-3a126,126,0,0,1,7.87-19.87c1.17-2.36,2.47-4.75,3.9-7.15a121.19,121.19,0,0,1,7.27-10.88c1.81-2.41,3.75-4.82,5.82-7.2q1.55-1.78,3.2-3.55,1.89-2,3.91-3.89c1.35-1.27,2.74-2.54,4.18-3.78A116.93,116.93,0,0,0,81.7,124.79c-.92,1.78-1.78,3.57-2.61,5.39a115.56,115.56,0,0,0-9.58,35.17q-.33,3.1-.51,6.25t-.17,6.33A116.33,116.33,0,0,0,227.25,286.37c.93-.37,1.86-.74,2.78-1.13a115.7,115.7,0,0,0,10.76-5.18c.87-.48,1.73-1,2.59-1.46q3.85-2.24,7.52-4.76c.81-.56,1.62-1.13,2.41-1.71q2.4-1.74,4.7-3.6c.77-.61,1.53-1.24,2.28-1.88a116.84,116.84,0,0,0,10.63-10.24c-2.43,2.79-4.93,5.43-7.5,7.89a122.41,122.41,0,0,1-28.77,20.19,126,126,0,0,1-19.87,7.87q-3,.9-5.81,1.56t-5.3,1.14c-5,1-9.15,1.45-12.22,1.8l-6.3.43,2.51,0,3.82.06c1.54-.06,3.37-.11,5.45-.22a105.13,105.13,0,0,0,12.43-1.35c.95-.16,1.93-.33,2.93-.53s2-.41,3.08-.64a116.24,116.24,0,0,0,13.51-3.9c1.19-.42,2.41-.87,3.63-1.35s2.46-1,3.71-1.53A119,119,0,0,0,276.7,259.2a121.28,121.28,0,0,0,8.85-10.76c1.87-2.55,3.67-5.22,5.37-8A124.87,124.87,0,0,1,282.08,253.41ZM62.32,245.53c.84.25,1.67.5,2.47.76,1.6.52,3.12,1.05,4.54,1.55l2.06.73c2.64.93,4.78,1.88,6.28,2.5l1,.44c.87.39,1.34.62,1.34.62s-1.68-.53-4.47-1.36l-1.63-.49-2.81-.82c-1.34-.4-2.79-.8-4.33-1.22l-4.84-1.31-5.19-1.35-5.37-1.34c-2.7-.64-5.42-1.3-8-1.88-.87-.19-1.73-.38-2.58-.54-2.54-.52-5-.93-7.21-1.26l-2.15-.3-1-.15-1.89-.26-.87-.12-3.48-.48-1.3-.18-.49-.07-.17,0,2.56.07,1.35.06c1.47.06,3.31.13,5.4.29,2.79.22,6,.52,9.52,1.06s7.09,1.37,10.74,2.22c1.82.44,3.63.9,5.4,1.38l2.63.73Zm122.83-179a111.37,111.37,0,0,1,95.31,53.66q2.79,4.59,5.15,9.47,1.17,2.43,2.23,4.94a111,111,0,0,1,8.75,43.37,113,113,0,0,1-.57,11.4A111.49,111.49,0,0,1,84.7,226.25a111,111,0,0,1-10.42-36.92,113,113,0,0,1-.57-11.4,111.05,111.05,0,0,1,8.76-43.37c.7-1.67,1.45-3.32,2.23-4.94q2.34-4.87,5.14-9.47A111.39,111.39,0,0,1,185.15,66.49Zm-9.49-30a9.42,9.42,0,0,1,.48,1.65,19.12,19.12,0,0,1,.36,3.63c0,.66,0,1.33-.1,1.94s-.16,1.2-.26,1.7a9.42,9.42,0,0,1-.48,1.65,9.42,9.42,0,0,1-.48-1.65,17.06,17.06,0,0,1-.26-1.7c-.06-.61-.09-1.28-.1-1.94a19.12,19.12,0,0,1,.36-3.63A9.42,9.42,0,0,1,175.66,36.53Zm12.15.76c.06.21.11.45.16.71a20.39,20.39,0,0,1,0,7.63c-.05.26-.11.5-.16.71a8.42,8.42,0,0,1-.32,1,8.42,8.42,0,0,1-.32-1c0-.21-.11-.45-.16-.71A20.39,20.39,0,0,1,187,38a12.59,12.59,0,0,1,.31-1.25c.1-.31.17-.48.17-.48A8.42,8.42,0,0,1,187.81,37.29Zm6,1.25a17,17,0,0,1,.27,2.39c0,.29,0,.59,0,.88,0,.6,0,1.2-.09,1.75,0,.28-.06.55-.09.81s-.08.5-.12.72a8.11,8.11,0,0,1-.4,1.49,8.71,8.71,0,0,1-.39-1.49,19.23,19.23,0,0,1-.3-3.28c0-.59,0-1.19.09-1.75a14.33,14.33,0,0,1,.21-1.52,8.48,8.48,0,0,1,.36-1.39l0-.1a.39.39,0,0,1,0,.1A8.48,8.48,0,0,1,193.8,38.54Zm142.43,202-2.3.36c-1.57.25-3.22.55-4.92.9s-3.44.73-5.23,1.14l-5.38,1.28L313,245.58l-5.19,1.35-2.48.67-2.37.64c-1.54.42-3,.82-4.32,1.22-1.68.48-3.18.93-4.44,1.31-2.79.83-4.48,1.36-4.48,1.36s.84-.42,2.34-1.06,3.65-1.57,6.28-2.5c1.32-.46,2.75-1,4.26-1.5s3.13-1,4.81-1.54l2.55-.75,2.63-.73c1.78-.48,3.59-.94,5.4-1.38,3.66-.85,7.25-1.64,10.75-2.22,2.6-.4,5.08-.67,7.34-.88l2.17-.18c2.79-.21,5.12-.27,6.75-.35h.58l.95,0h1l-.17,0-.49.07-1.87.26-1.34.18-.76.11-4.58.64ZM185,37.4c.06.3.11.63.15,1,.08.69.15,1.46.18,2.25,0,.39,0,.79,0,1.19s0,.81,0,1.2a25,25,0,0,1-.33,3.22,14.1,14.1,0,0,1-.43,1.86c0,.1-.05.15-.05.15a1,1,0,0,1,0-.15c-.06-.19-.17-.55-.28-1-.05-.24-.11-.52-.16-.82s-.1-.63-.14-1a30.5,30.5,0,0,1-.22-3.45,28.07,28.07,0,0,1,.36-4.41c0-.3.11-.58.16-.82a11.47,11.47,0,0,1,.32-1.19A13.65,13.65,0,0,1,185,37.4Zm-2.81,1.14a25.56,25.56,0,0,1,.21,3.27,23.61,23.61,0,0,1-.36,4.21,12.06,12.06,0,0,1-.48,1.91s-.07-.19-.16-.53c0-.16-.1-.37-.16-.6s-.1-.49-.15-.78a23,23,0,0,1-.33-3.06c0-.38,0-.76,0-1.15s0-.76,0-1.14a24.74,24.74,0,0,1,.33-3.06,12.16,12.16,0,0,1,.32-1.38c.09-.34.16-.53.16-.53a11.35,11.35,0,0,1,.49,1.91C182.11,37.9,182.16,38.21,182.2,38.54Zm-2.75,3.27a20.31,20.31,0,0,1-.35,3.82c0,.26-.11.5-.16.71-.17.63-.32,1-.32,1a8.42,8.42,0,0,1-.32-1c-.06-.21-.11-.45-.16-.71a21.11,21.11,0,0,1-.36-3.82c0-.69,0-1.38.1-2,0-.33.07-.64.11-.94s.09-.58.15-.84a11.1,11.1,0,0,1,.43-1.61l.05-.12A10.17,10.17,0,0,1,179.1,38,20.28,20.28,0,0,1,179.45,41.81ZM329,254.69c-2.52.27-5,.57-7.52,1.07s-5.09,1.08-7.63,1.78c-5.1,1.36-10.12,3.07-14.82,4.69s-9.06,3.3-12.8,4.72l-5.1,2-1.11.43-2,.76-2.32.9-2,.76a128,128,0,0,1,11.71-6.56c.89-.45,1.83-.92,2.81-1.39,2-.94,4.07-1.91,6.3-2.87,1.11-.48,2.26-.95,3.43-1.43,2.34-.93,4.77-1.88,7.29-2.72,1.26-.43,2.53-.85,3.81-1.25s2.59-.78,3.9-1.13c2.62-.68,5.27-1.28,7.92-1.73s5.33-.62,7.81-.79l1.85-.13c1.83-.13,3.6-.26,5.29-.44,1.13-.12,2.22-.25,3.26-.41.52-.09,1-.17,1.52-.27s1-.2,1.45-.32.92-.25,1.35-.4.85-.3,1.24-.47a9.9,9.9,0,0,0,2.1-1.22,6.42,6.42,0,0,0,.81-.74,7,7,0,0,0,.67-.79,7.71,7.71,0,0,0,.9-1.61c.11-.26.21-.52.29-.76s.15-.47.21-.69a10.55,10.55,0,0,0,.26-1.11c0-.15.05-.29.07-.41s0-.22,0-.3a2.26,2.26,0,0,1,0-.24v1a12.88,12.88,0,0,1-.16,1.91c-.05.27-.1.54-.18.84a8.88,8.88,0,0,1-.73,1.89,7.73,7.73,0,0,1-1.45,1.94,12,12,0,0,1-3.52,2.35c-.46.21-.93.4-1.42.57a38.62,38.62,0,0,1-6.44,1.61C333.87,254.06,331.46,254.41,329,254.69Z"/><path class="cls-1" d="M227.34,221.68l16.39,6.07-8.63-15.19-5.94-4.46a51.53,51.53,0,0,0,6.64-12.66,50.64,50.64,0,0,0,2.13-7.78,49.32,49.32,0,0,0,.74-5.49,54,54,0,0,0-1.27-16.89,50.17,50.17,0,0,0-1.65-5.58,54,54,0,0,0-3.61-8q-.72-1.29-1.5-2.55a51.58,51.58,0,0,0-27.25-21.77c-.93-.31-1.82-.71-2.76-.94l-2.82-.71q-.69-.21-1.41-.36c-.47-.09-1-.18-1.43-.25-1-.16-1.93-.28-2.88-.43l-1.44-.2-1.38-.08-2.76-.12c-.49,0-.84,0-1.45-.06l-1.4.08-2.79.15a51.69,51.69,0,0,0-20.31,6,52.78,52.78,0,0,0-6.28,4,53.53,53.53,0,0,0-8.52,7.8,48.92,48.92,0,0,0-8.56,13.43q-.36.81-.72,1.59c-.21.54-.37,1.08-.56,1.6q-.53,1.58-1,3c-.54,2-.92,3.82-1.31,5.47-.21,1.68-.4,3.19-.56,4.49a32.49,32.49,0,0,0-.14,3.33c0,1.8,0,2.76,0,2.76l.23-2.76c.05-.44.07-.95.12-1.5,0-.28,0-.57.08-.87s.08-.61.14-.93c.24-1.28.5-2.75.8-4.4.47-1.6.92-3.4,1.54-5.32l1.15-2.92c.2-.5.39-1,.62-1.53l.78-1.53c.24-.53.51-1,.78-1.58.56-1.06,1.18-2.12,1.86-3.19s1.42-2.13,2.22-3.2c1.19-1.59,2.52-3.18,4-4.74a51.32,51.32,0,0,1,14.54-10.9,51.9,51.9,0,0,1,16.84-5q1.29-.17,2.61-.27l2.64-.12,1.33-.06,1.29.07,2.76.15,1.38.08,1.32.21a41.43,41.43,0,0,1,5.29,1l2.65.7c.89.22,1.73.61,2.6.91A51.45,51.45,0,0,1,221,142.1a50.9,50.9,0,0,1,3.73,4.17,52,52,0,0,1,3.25,4.54,50,50,0,0,1,2.73,4.84c.42.83.8,1.67,1.17,2.51s.7,1.71,1,2.57a50.8,50.8,0,0,1,2.19,7.91,51.09,51.09,0,0,1,.76,13.39,53.76,53.76,0,0,1-1.77,10.14c-.22.81-.47,1.62-.73,2.41a49.53,49.53,0,0,1-5.94,12.2L199.55,185.9a15.57,15.57,0,0,0,2.25-6.68,16,16,0,0,0-.81-7,16.85,16.85,0,0,0-.7-1.7,15.65,15.65,0,0,0-6.11-6.84,16.86,16.86,0,0,0-3.32-1.59,14.68,14.68,0,0,0-3.58-.81,14.45,14.45,0,0,0-1.68-.08,16.77,16.77,0,0,0-1.78.08,15.47,15.47,0,0,0-6.25,2A14.94,14.94,0,0,0,175.1,165c-.37.32-.71.65-1,1s-.62.68-.9,1a15,15,0,0,0-1.45,2.11,13.11,13.11,0,0,0-1,2.07c-.14.33-.25.66-.35,1a18.26,18.26,0,0,0-.53,2.58c0,.51-.06,1-.07,1.35a7.13,7.13,0,0,0,0,1c0,.4,0,.66,0,.76v.05s0-.27.13-.8a18.28,18.28,0,0,1,.49-2.2c.16-.46.34-1,.56-1.5.11-.26.23-.54.37-.82s.28-.56.44-.84A13.47,13.47,0,0,1,173,170a18.19,18.19,0,0,1,1.52-1.7,14,14,0,0,1,1.9-1.56,14.19,14.19,0,0,1,2.25-1.3,14.62,14.62,0,0,1,5.36-1.31,13.06,13.06,0,0,1,1.4,0,13.71,13.71,0,0,1,1.55.16,15.25,15.25,0,0,1,2.79.75,13.93,13.93,0,0,1,5,3.23,13.74,13.74,0,0,1,1.89,2.34A13.57,13.57,0,0,1,198,173.3a14.88,14.88,0,0,1,.91,4.3,12.18,12.18,0,0,1,0,1.48,14.8,14.8,0,0,1-1.3,5.31l0,.05L192,180.27a7.35,7.35,0,0,0,.3-1.14,6,6,0,0,0,.12-1.2,7.19,7.19,0,0,0-.15-1.47A7.31,7.31,0,0,0,180,172.77a7.41,7.41,0,0,0-2,3.69,8,8,0,0,0-.14,1.47,7.26,7.26,0,0,0,1.82,4.79l-15.52,30.95,3,12.91,10.69-7.85,8.34-33.6a7.35,7.35,0,0,0,2.37-.78l5.27,5.08a14,14,0,0,1-2.51,1.78,17.16,17.16,0,0,1-3.16,1.37,19.22,19.22,0,0,1-2.21.5l-.8.13h0l.76,0a14.53,14.53,0,0,0,2.33,0,15,15,0,0,0,3.56-.88,13.88,13.88,0,0,0,3.24-1.7l25.42,24.47-.89.86c-1,1-2.09,1.87-3.15,2.72-.53.42-1.06.84-1.59,1.24-1.06.79-2.13,1.53-3.2,2.21-.53.34-1.06.67-1.59,1-1.07.62-2.13,1.17-3.18,1.67l-1.52.78c-.51.22-1,.41-1.54.61l-2.92,1.15c-1.91.62-3.71,1.08-5.32,1.55l-4.4.79c-1.29.26-2.4.24-3.3.35l-2,.17-.53,0-.18,0,2.77-.05c.9,0,2,0,3.33-.14l4.49-.56c1.64-.4,3.49-.77,5.47-1.31l3-1c.53-.18,1.07-.35,1.6-.55l1.6-.72c1.1-.45,2.21-1,3.33-1.55.56-.3,1.12-.6,1.69-.93a52.43,52.43,0,0,0,8.41-6.08c.34-.29.67-.61,1-.92Zm-52.49-5.51-5.65,4.91-1.1-7.41L181,184a7.22,7.22,0,0,0,3.32,1.19Zm16.61-34.63,40.14,32,5.5,8.56-9.33-4.06-38.05-34.48A7.26,7.26,0,0,0,191.46,181.54Z"/><path class="cls-1" d="M94,130.62a102.25,102.25,0,0,0-9.32,25.89c-.2.91-.38,1.83-.55,2.75a102.67,102.67,0,0,0-1.6,14.13,7.15,7.15,0,0,0,0,9.09c.12,2.88.37,5.73.73,8.55a101.33,101.33,0,0,0,8.35,29.31c.38.83.76,1.65,1.16,2.47s.81,1.63,1.23,2.44a7.17,7.17,0,0,0,4.61,7.94c1,1.57,2,3.1,3.13,4.61a106.25,106.25,0,0,0,7,8.67,104.15,104.15,0,0,0,21.14,18,7.13,7.13,0,0,0,3.14,3.75,7.23,7.23,0,0,0,4.8.85,101.48,101.48,0,0,0,20.46,8q4,1.09,8.18,1.87,2.76.51,5.58.87c2.81.36,5.67.6,8.55.73a7.15,7.15,0,0,0,9.09,0A101.91,101.91,0,0,0,232.47,269a7.15,7.15,0,0,0,7.94-4.6,103.79,103.79,0,0,0,31.24-31.25,7.14,7.14,0,0,0,4.61-7.94,101.77,101.77,0,0,0,11.31-39.9c.07-.95.13-1.91.17-2.87a7.65,7.65,0,0,0,.68-1,7.11,7.11,0,0,0,0-7.1,7.54,7.54,0,0,0-.68-1c0-1-.1-1.92-.17-2.87a101.77,101.77,0,0,0-11.31-39.9,7.62,7.62,0,0,0,0-2.43,7.08,7.08,0,0,0-1.6-3.42,7.29,7.29,0,0,0-3-2.09,103.46,103.46,0,0,0-31.24-31.25,7.74,7.74,0,0,0-1.22-2.12,9.23,9.23,0,0,0-.88-.89,7.3,7.3,0,0,0-1.05-.74,7.21,7.21,0,0,0-4.79-.85c-.81-.42-1.62-.83-2.44-1.23s-1.65-.79-2.48-1.17q-2.49-1.14-5.05-2.14c-2.56-1-5.17-1.91-7.82-2.71a102.1,102.1,0,0,0-25-4.23,7.15,7.15,0,0,0-9.09,0,101.63,101.63,0,0,0-35.35,8q-3.8,1.61-7.42,3.5a7.23,7.23,0,0,0-4.8.85,7.3,7.3,0,0,0-1,.74,8.09,8.09,0,0,0-.87.89,7.5,7.5,0,0,0-1.22,2.12,103.49,103.49,0,0,0-31.25,31.25A7.17,7.17,0,0,0,94,130.62Zm15.47-19.7,5.81,5.23c-1.8,2-3.52,4.13-5.14,6.31l-6.32-4.59Q106.53,114.27,109.51,110.92Zm7.41-7.55,5.23,5.81q-3,2.75-5.75,5.75l-5.81-5.22Q113.62,106.4,116.92,103.37Zm8.17-6.72,4.59,6.31c-2.18,1.62-4.28,3.34-6.31,5.14l-5.23-5.8Q121.49,99.33,125.09,96.65Zm4.33-3a7.48,7.48,0,0,0,.17,2,7,7,0,0,0,.78,2,7.27,7.27,0,0,0,2.9,2.77c-.77.52-1.51,1.06-2.27,1.6l-4.59-6.32C127.4,95,128.4,94.3,129.42,93.62Zm23.73-11.56,2.4,7.41c-2.58.87-5.12,1.84-7.6,2.92l-3.17-7.12c1.37-.6,2.75-1.16,4.14-1.7S151.72,82.54,153.15,82.06Zm62.47-.52L213.21,89c-2.57-.82-5.2-1.5-7.87-2.09L207,79.24C209.89,79.89,212.79,80.65,215.62,81.54Zm5.76,2c1.4.54,2.78,1.1,4.14,1.7l-3.17,7.12c-2.48-1.08-5-2-7.6-2.92l2.41-7.41C218.58,82.54,220,83,221.38,83.57ZM243.89,95.7,239.3,102c-.75-.54-1.5-1.08-2.27-1.6a7.21,7.21,0,0,0,2.9-2.77,7,7,0,0,0,.78-2,7.49,7.49,0,0,0,.18-2C241.9,94.3,242.9,95,243.89,95.7Zm8.28,6.59-5.23,5.81c-2-1.8-4.13-3.52-6.32-5.14l4.6-6.31C247.62,98.43,249.93,100.32,252.17,102.29Zm7.54,7.41-5.81,5.23c-.91-1-1.85-2-2.81-2.93s-1.94-1.9-2.94-2.82l5.23-5.81C255.58,105.39,257.7,107.5,259.71,109.7Zm6.73,8.17-6.32,4.59c-1.62-2.18-3.34-4.28-5.13-6.31l5.8-5.23Q263.76,114.28,266.44,117.87Zm.94,118.8-6.32-4.59c.54-.75,1.09-1.5,1.6-2.27a7.38,7.38,0,0,0,1.16,1.62,6.59,6.59,0,0,0,1.62,1.28,7.19,7.19,0,0,0,4,1C268.79,234.69,268.09,235.68,267.38,236.67ZM260.79,245,255,239.72c1.8-2,3.52-4.13,5.14-6.31l6.32,4.59Q263.77,241.6,260.79,245Zm-7.41,7.55-5.23-5.81q3-2.76,5.75-5.76l5.81,5.23C257.7,248.37,255.58,250.48,253.38,252.5Zm-8.16,6.72-4.6-6.32c2.19-1.61,4.29-3.33,6.32-5.13l5.22,5.81C249.93,255.55,247.62,257.44,245.22,259.22Zm-4.33,3a7.49,7.49,0,0,0-.18-2.05,7.17,7.17,0,0,0-2.06-3.6,6.61,6.61,0,0,0-.77-.63,8.53,8.53,0,0,0-.85-.53c.77-.51,1.52-1.06,2.27-1.59l4.59,6.31C242.9,260.87,241.9,261.57,240.89,262.25ZM207,276.62,205.34,269c2.67-.59,5.3-1.28,7.87-2.09l2.41,7.41C212.79,275.22,209.89,276,207,276.62Zm-10.44,1.74-.81-7.74c2.72-.3,5.4-.71,8-1.25l1.61,7.61C202.47,277.57,199.51,278,196.52,278.36Zm-1.61.17c-1.21.12-2.42.21-3.64.28a7.26,7.26,0,0,0,1.18-4,7.17,7.17,0,0,0-.08-1,7.53,7.53,0,0,0-.57-1.93,7.3,7.3,0,0,0-.47-.87c.93-.06,1.85-.12,2.77-.21Zm-15.88.28c-1.21-.07-2.43-.16-3.63-.28l.81-7.73c.91.09,1.84.15,2.76.21a9.09,9.09,0,0,0-.47.87,7.53,7.53,0,0,0-.57,1.93,7.17,7.17,0,0,0-.07,1A7.25,7.25,0,0,0,179,278.81ZM164.93,277l1.62-7.61c1.32.27,2.65.51,4,.71s2.69.39,4.05.54l-.81,7.74C170.79,278,167.83,277.57,164.93,277Zm-10.24-2.65,2.4-7.41c1.29.41,2.59.78,3.9,1.13s2.64.67,4,1l-1.62,7.62C160.41,276,157.52,275.22,154.69,274.33Zm-28.28-14.17,4.59-6.31c.76.53,1.5,1.08,2.27,1.59a7.4,7.4,0,0,0-.84.53,7.19,7.19,0,0,0-2.06,2.25,7.18,7.18,0,0,0-1,4C128.4,261.57,127.4,260.87,126.41,260.16Zm-15.82-14,5.81-5.23q2.75,3,5.75,5.76l-5.23,5.81Q113.62,249.47,110.59,246.16ZM92.48,137.57l7.13,3.17c-1.09,2.47-2,5-2.92,7.6l-7.41-2.41C90.23,143.08,91.29,140.29,92.48,137.57Zm2.25-4.79a7,7,0,0,0,.52.88,8.53,8.53,0,0,0,.65.81,7,7,0,0,0,1.67,1.32,7.25,7.25,0,0,0,3.89,1c-.41.82-.8,1.66-1.18,2.51l-7.13-3.18C93.66,135,94.18,133.87,94.73,132.78Zm8.19-13.59,6.32,4.6c-.54.75-1.08,1.5-1.6,2.27a7.19,7.19,0,0,0-6.8-3.86C101.51,121.18,102.21,120.19,102.92,119.19Zm38-31.16a7.81,7.81,0,0,0-.88-.52c1.09-.55,2.19-1.07,3.3-1.58l3.17,7.13c-.84.38-1.68.77-2.51,1.18a5.46,5.46,0,0,0,0-1,6.8,6.8,0,0,0-.16-1,7.19,7.19,0,0,0-.76-1.91,7,7,0,0,0-.61-.89A7.34,7.34,0,0,0,140.88,88Zm13.81-6.49c2.83-.89,5.72-1.65,8.65-2.3L165,86.86c-2.66.59-5.29,1.27-7.87,2.09Zm14.63-3.44c1.48-.22,3-.42,4.46-.59l.81,7.73c-1.36.16-2.71.34-4.05.55s-2.67.44-4,.71l-1.62-7.61C166.38,78.59,167.85,78.33,169.32,78.1Zm22-1c1.22.07,2.43.16,3.64.28l-.81,7.73c-.92-.09-1.84-.15-2.77-.21a7.18,7.18,0,0,0,.81-5.94A7.54,7.54,0,0,0,191.27,77.06Zm14.11,1.83-1.62,7.61c-2.65-.54-5.33-1-8-1.26l.81-7.73C199.51,77.85,202.47,78.3,205.38,78.89Zm75.64,67-7.4,2.41c-.87-2.59-1.84-5.13-2.92-7.6l7.12-3.17Q279.61,141.65,281,145.93Zm2.82,10.2-7.61,1.61c-.59-2.66-1.28-5.29-2.09-7.86l7.41-2.41Q282.89,151.72,283.84,156.13Zm-1,48c-.38,1.44-.8,2.87-1.24,4.29L274.14,206c.81-2.57,1.5-5.2,2.09-7.86l7.61,1.61C283.52,201.21,283.17,202.67,282.79,204.11Zm-5,14.19-7.12-3.17q1.62-3.72,2.92-7.6l7.4,2.41Q279.61,214.21,277.82,218.3Zm-2.24,4.79a7.24,7.24,0,0,0-6.73-4c.4-.83.79-1.66,1.18-2.51l7.12,3.18C276.65,220.9,276.12,222,275.58,223.09ZM230.3,268.36c-1.09.55-2.19,1.07-3.3,1.57l-3.17-7.12c.84-.39,1.68-.77,2.51-1.18a7.82,7.82,0,0,0,.19,2,7.54,7.54,0,0,0,.76,1.91A7.32,7.32,0,0,0,230.3,268.36Zm-13.14,5.45-2.41-7.41c2.58-.87,5.12-1.84,7.6-2.92l3.17,7.12Q221.43,272.39,217.16,273.81ZM140,268.36a6.63,6.63,0,0,0,.88-.53,7.07,7.07,0,0,0,2.13-2.31,7.41,7.41,0,0,0,.46-.94,9,9,0,0,0,.3-1,7,7,0,0,0,.19-2c.83.41,1.67.8,2.51,1.18l-3.17,7.12C142.19,269.43,141.09,268.91,140,268.36Zm-21.86-14.79,5.23-5.8c2,1.8,4.13,3.52,6.31,5.13l-4.59,6.32Q121.49,256.55,118.14,253.57Zm-17.3-19.9a7.22,7.22,0,0,0,4-1,6.24,6.24,0,0,0,.86-.59,7.16,7.16,0,0,0,1.91-2.31c.52.77,1.06,1.52,1.6,2.27l-6.32,4.59C102.21,235.68,101.51,234.69,100.84,233.67Zm-6.11-10.58c-.55-1.09-1.07-2.19-1.58-3.31l7.13-3.17c.38.84.77,1.68,1.18,2.51a7.25,7.25,0,0,0-3.89,1A7.14,7.14,0,0,0,94.73,223.09Zm-5.45-13.15,7.41-2.41c.87,2.59,1.83,5.12,2.92,7.6l-7.13,3.17C91.29,215.58,90.23,212.79,89.28,209.94Zm-2.82-10.2,7.61-1.61c.3,1.33.62,2.65,1,4s.72,2.62,1.13,3.9l-7.41,2.41c-.45-1.42-.86-2.85-1.24-4.29S86.78,201.21,86.46,199.74ZM286,184.05c-.08,1.22-.16,2.43-.28,3.64l-7.73-.81c.09-.92.15-1.84.21-2.77a7.19,7.19,0,0,0,7.8-.06ZM185.15,267.56a7.27,7.27,0,0,0-4.9,1.92,91.11,91.11,0,0,1-36.63-9.82,7.21,7.21,0,0,0-8.47-4.9,90.63,90.63,0,0,1-7.72-5.63,92.14,92.14,0,0,1-19.11-21.2,7.2,7.2,0,0,0-4.89-8.46,91.16,91.16,0,0,1-9.82-36.64,7.12,7.12,0,0,0,1.4-2.22,7.2,7.2,0,0,0-1.4-7.58,91.15,91.15,0,0,1,9.82-36.63,7.19,7.19,0,0,0,4.89-8.47,92.14,92.14,0,0,1,26.83-26.82,7.21,7.21,0,0,0,8.47-4.9,91.11,91.11,0,0,1,36.63-9.82,7.21,7.21,0,0,0,9.8,0,91.4,91.4,0,0,1,14.44,1.92c1.56.34,3.11.71,4.64,1.13a90.94,90.94,0,0,1,17.55,6.77,7.21,7.21,0,0,0,8.47,4.9A91.83,91.83,0,0,1,259.26,124c.94,1.28,1.85,2.6,2.72,3.93a7.22,7.22,0,0,0,.79,5.19,6.57,6.57,0,0,0,.8,1.13,7.82,7.82,0,0,0,1,.93,7.22,7.22,0,0,0,2.33,1.22A91.15,91.15,0,0,1,276.7,173a7.19,7.19,0,0,0,0,9.8,91.16,91.16,0,0,1-9.82,36.64,7.62,7.62,0,0,0-1.22.5,8.11,8.11,0,0,0-1.11.72,7.11,7.11,0,0,0-1.78,2.06,7.19,7.19,0,0,0-.79,5.18,92.1,92.1,0,0,1-19.1,21.2,89.23,89.23,0,0,1-7.73,5.63,7.21,7.21,0,0,0-8.47,4.9,91.11,91.11,0,0,1-36.63,9.82A7.23,7.23,0,0,0,185.15,267.56ZM88.76,147.47l7.41,2.41c-.82,2.57-1.51,5.2-2.1,7.86l-7.61-1.61C87.11,153.19,87.86,150.3,88.76,147.47Zm56,123.13,3.17-7.12c2.48,1.08,5,2,7.6,2.92l-2.4,7.41Q148.88,272.39,144.78,270.6ZM284.2,198.16l-7.61-1.62c.54-2.64.94-5.33,1.25-8l7.73.82C285.24,192.3,284.79,195.25,284.2,198.16Zm.93-26.84a7.26,7.26,0,0,0-3.06-.68,6.78,6.78,0,0,0-2,.3,7.23,7.23,0,0,0-1.81.82c-.06-.93-.12-1.85-.21-2.77l7.73-.81c.12,1.2.2,2.42.28,3.64A7.92,7.92,0,0,0,285.13,171.32Zm-8-35.24L270,139.26c-.39-.85-.78-1.69-1.18-2.51a7.24,7.24,0,0,0,3.88-1,7.35,7.35,0,0,0,2.85-3C276.12,133.87,276.64,135,277.15,136.08ZM227.29,90.35a7.18,7.18,0,0,0-.95,3.89c-.83-.41-1.67-.8-2.51-1.18L227,85.94c1.11.5,2.22,1,3.3,1.57A7.32,7.32,0,0,0,227.29,90.35ZM177.86,81a7.11,7.11,0,0,0,.64,3,8.18,8.18,0,0,0,.47.88c-.92.06-1.85.12-2.76.21l-.81-7.73c1.2-.12,2.42-.21,3.63-.28A7.22,7.22,0,0,0,177.86,81ZM86.1,157.71l7.62,1.62c-.54,2.64-1,5.33-1.26,8l-7.73-.82C85.06,163.57,85.51,160.62,86.1,157.71Zm-1.55,10.47,7.74.81c-.09.92-.15,1.84-.22,2.77a7.17,7.17,0,0,0-3.84-1.12,7.29,7.29,0,0,0-3.06.68,7,7,0,0,0-.89.5C84.35,170.6,84.44,169.38,84.55,168.18Zm3.68,17a7.17,7.17,0,0,0,3-.65,6.6,6.6,0,0,0,.87-.47c.07.93.13,1.85.22,2.77l-7.74.81c-.11-1.2-.2-2.42-.27-3.64A7.22,7.22,0,0,0,88.23,185.23Zm-3.5,4.08,7.73-.82c.31,2.72.72,5.41,1.26,8l-7.62,1.62C85.51,195.25,85.06,192.3,84.73,189.31ZM103.86,238l6.32-4.59c1.62,2.18,3.34,4.28,5.14,6.31L109.51,245Q106.54,241.59,103.86,238Zm181.71-71.44-7.73.82c-.31-2.72-.71-5.41-1.25-8l7.61-1.62C284.79,160.62,285.24,163.57,285.57,166.56Zm-20.13-43.4a7.23,7.23,0,0,0-2.78,2.9c-.51-.77-1.06-1.52-1.6-2.27l6.32-4.6c.71,1,1.41,2,2.08,3A7.19,7.19,0,0,0,265.44,123.16Z"/><path class="cls-1" d="M106.59,184.78c.15-.12-.06-.58.07-.74s.52-.19.66-.24l3.12-1.14a7.8,7.8,0,0,1,2.13-.77,6.75,6.75,0,0,1,1.84.65l3.1,1.09c.39.14.54.25.59.43a1.23,1.23,0,0,1,0,.35c0,.14,0,.31,0,.52a20.16,20.16,0,0,0,3,0c.47-.07.28.11.39-.28a7.32,7.32,0,0,0,0-1.75c0-.17.13-1.12,0-1.25s-1,0-1.12,0c-.6,0-1.22,0-1.82,0-.36,0-.45,0-.47.18s0,.17,0,.3L114.59,181l3.52-1.29c-.09.46,1.36.24,1.7.24s1.52.17,1.7,0,0-1.91,0-2.3c0-.18.12-.9,0-1.06s-.07,0-.33-.09a11.78,11.78,0,0,0-2.3,0c-.13,0-.63-.08-.74,0s.06.52,0,.69-.67.32-.9.41l-2.19.87-2.2.87a3.39,3.39,0,0,1-.91.36,5.31,5.31,0,0,1-1.36-.5l-2.38-.87c-.31-.12-1.3-.29-1.51-.56s.13-.91-.09-1.1-1.68,0-2,0-1.17-.13-1.31.06,0,1.71,0,2.11c0,.16-.1.76,0,.9s0,0,.22.1a7.31,7.31,0,0,0,2.24,0c.5,0,1.07.22.94-.44l3.47,1.23-3.47,1.26c.08-.42-.56-.24-.85-.24h-1.86c-.28,0-.57-.07-.69.1a.65.65,0,0,0-.07.31,3.53,3.53,0,0,0,0,.46c0,.33.07.66.07.82s-.15,1.23,0,1.42.35.06.54.06h1.74C105.66,184.78,106.46,184.9,106.59,184.78Z"/><path class="cls-1" d="M121.51,176a.51.51,0,0,0,.07-.26c0-.12,0-.27,0-.42,0-.3-.06-.6-.06-.72,0-.6,0-1.21,0-1.81,0-.22,0-.3,0-.34s-.06,0-.2-.1a5.24,5.24,0,0,0-1.63,0,5.23,5.23,0,0,0-1.58,0,.87.87,0,0,0-.2.1c-.1.07,0,.11-.06.55-.07.29.06.2-.11.31a6.13,6.13,0,0,1-2,0h-6.61a9.15,9.15,0,0,1-2.28,0c-.12,0-.22,0-.28-.05s0-.28,0-.46.06-.37,0-.45-1,0-1.18,0H103.8c-.18,0-.52-.05-.61.05a.44.44,0,0,0,0,.23c0,.32,0,.84,0,1h0v1.7h0c0,.08,0,.4,0,.6a.21.21,0,0,0,0,.13c.11.11.88,0,1,0h1.61c.19,0,.67.07.77,0s-.15-.73,0-.87,1.3,0,1.57,0h9.11c.64,0,.57.11.54.66,0,.08,0,.17,0,.26h2.94C121,176,121.41,176.08,121.51,176Z"/><path class="cls-1" d="M103.19,170.87h0c0,.08,0,.4,0,.6a.21.21,0,0,0,0,.13c.11.11.88,0,1,0h1.61c.19,0,.67.07.77,0s-.15-.73,0-.87,1.3,0,1.57,0h9.35c.44,0,.29.23.29.91h2.94c.19,0,.63.07.73,0s0-1.17,0-1.41c0-.59,0-1.21,0-1.8,0-.22,0-.3,0-.34s-.06,0-.2-.1a5.24,5.24,0,0,0-1.63,0,5.23,5.23,0,0,0-1.58,0,.59.59,0,0,0-.2.1c-.1.07,0,.11-.06.55-.07.29.06.2-.11.3-.37.22-1.54,0-2,0h-6.61a8.7,8.7,0,0,1-2.28,0c-.12,0-.22,0-.28,0s0-.49,0-.73a.21.21,0,0,0,0-.18c-.14-.13-1,0-1.18,0H103.8c-.18,0-.52-.06-.61,0s0,1,0,1.21Z"/><path class="cls-1" d="M112.35,138.81c-.12.15,0,1,0,1.21v1.7c0,.11-.08.65,0,.74s.88,0,1,0H115c.19,0,.67.07.77-.05s0-.48,0-.7,0-.14.06-.17c.22-.18,1.31,0,1.58,0h9.11a1.85,1.85,0,0,1,.39,0c.25.08.13.3.13.89H130c.19,0,.62.06.72-.06s0-1.16,0-1.4,0-.6,0-.9,0-.61,0-.91V139c0-.16,0-.11-.2-.2a5.24,5.24,0,0,0-1.63,0,5.23,5.23,0,0,0-1.58,0c-.43.18-.11.06-.26.65-.07.29.06.2-.11.3-.37.22-1.54,0-2,0h-6.62a8.7,8.7,0,0,1-2.28,0c-.12,0-.22,0-.28,0s.13-.76,0-.91-1,0-1.18,0H113C112.78,138.76,112.44,138.7,112.35,138.81Z"/><path class="cls-1" d="M139.12,117.42c0,.11-.09.66,0,.74s.87,0,1,0h1.6c.19,0,.67.07.77,0s0-.27,0-.45-.06-.35,0-.42,1.31,0,1.58,0h9.11c.36,0,.49,0,.53.17a3.51,3.51,0,0,1,0,.75h2.94c.19,0,.62.06.73,0s0-1.17,0-1.41c0-.6,0-1.21,0-1.81,0-.33,0-.34-.06-.37l-.15-.06a5.24,5.24,0,0,0-1.63,0,5.23,5.23,0,0,0-1.58,0c-.43.18-.11.06-.25.65-.08.29.06.2-.12.3-.37.22-1.54,0-2,0h-6.62a8.63,8.63,0,0,1-2.27,0c-.12,0-.23,0-.29,0s.13-.75,0-.91-1,0-1.18,0h-1.58c-.18,0-.52-.06-.6.05s0,1,0,1.21Z"/><path class="cls-1" d="M139.12,113h0s0,.08,0,.15a2,2,0,0,1,0,.23c0,.16,0,.32,0,.36s.87,0,1,0h1.6c.19,0,.67.07.77,0s-.14-.74,0-.87,1.31,0,1.58,0h9.11c.73,0,.53.13.53.92h2.94c.19,0,.62.06.73-.06s0-1.16,0-1.4c0-.6,0-1.21,0-1.81,0-.44.08-.31-.21-.44a5.56,5.56,0,0,0-1.63,0,5.57,5.57,0,0,0-1.58,0c-.43.19-.11.07-.25.66-.08.29.06.2-.12.3-.37.22-1.54,0-2,0h-6.62a8.63,8.63,0,0,1-2.27,0c-.12,0-.23,0-.29,0s.13-.76,0-.92-1,0-1.18,0h-1.58c-.18,0-.52-.05-.6.06a.4.4,0,0,0-.06.23c0,.31.06.83.06,1Z"/><path class="cls-1" d="M180.05,109h9.11c.73,0,.53.13.53.91h2.94c.19,0,.63.07.73-.05a.41.41,0,0,0,.06-.26c0-.36-.06-1-.06-1.14,0-.6,0-1.21,0-1.81,0-.22,0-.3,0-.34s0,0,0,0l-.15-.06a5.24,5.24,0,0,0-1.63,0,5.23,5.23,0,0,0-1.58,0c-.43.18-.11.07-.25.65-.07.3.06.2-.12.31a6.07,6.07,0,0,1-1.95,0H181a9.15,9.15,0,0,1-2.28,0c-.12,0-.22,0-.29,0s0-.28,0-.47a2.6,2.6,0,0,0,0-.26.27.27,0,0,0-.05-.19c-.14-.13-1,0-1.19,0h-1.57c-.19,0-.52,0-.61.06s0,1,0,1.21v1.7c0,.1-.08.65,0,.73s.88,0,1,0h1.6c.19,0,.67.07.77-.05s-.14-.73,0-.86S179.78,109,180.05,109Z"/><path class="cls-1" d="M175,101.87c-.13.16,0,1,0,1.22v1.7c0,.1-.08.65,0,.73s.88,0,1,0h1.6c.19,0,.67.07.77,0a.23.23,0,0,0,0-.19c0-.24-.14-.57,0-.68s1.31,0,1.58,0h9.11c.73,0,.53.14.53.92h2.94c.19,0,.63.07.73,0a1.52,1.52,0,0,0,.06-.68c0-.15,0-.3,0-.43s0-.24,0-.29c0-.6,0-1.22,0-1.81,0-.22,0-.3,0-.34s0,0-.2-.1a5.24,5.24,0,0,0-1.63,0,5.23,5.23,0,0,0-1.58,0c-.43.18-.11.07-.25.65-.07.29.06.2-.12.3-.37.22-1.53,0-1.95,0H181a8.7,8.7,0,0,1-2.28,0c-.12,0-.22,0-.29,0s0-.28,0-.46,0-.19,0-.27a.26.26,0,0,0-.05-.18c-.14-.13-1,0-1.19,0h-1.57C175.46,101.82,175.13,101.76,175,101.87Z"/><path class="cls-1" d="M175.65,97.41c-.19,0-.52-.06-.61,0s0,1,0,1.21v1.71c0,.1-.08.65,0,.73s.88,0,1,0h1.6c.19,0,.67.07.77,0s-.14-.73,0-.87,1.31,0,1.58,0h9.11c.73,0,.53.14.53.92h2.94c.19,0,.63.07.73,0s0-1.17,0-1.41c0-.6,0-1.21,0-1.8s.08-.32-.21-.44a5.24,5.24,0,0,0-1.63,0,5.23,5.23,0,0,0-1.58,0c-.43.18-.11.07-.25.65-.07.29.06.2-.12.3-.37.22-1.53,0-1.95,0H181a8.7,8.7,0,0,1-2.28,0c-.12,0-.22,0-.29,0s.14-.75,0-.91-1,0-1.19,0Z"/><path class="cls-1" d="M215.11,115.47c-.12.16,0,1,0,1.21v1.71c0,.08,0,.4,0,.6a.21.21,0,0,0,0,.13c.11.11.88,0,1,0h1.6c.19,0,.67.07.77-.05s0-.27,0-.45a2.42,2.42,0,0,1,0-.25.24.24,0,0,1,.06-.17c.22-.17,1.31,0,1.58,0h9.11a1.28,1.28,0,0,1,.39,0c.25.07.13.29.13.88h3c.19,0,.62.07.72-.05s0-1.17,0-1.4c0-.6,0-1.22,0-1.81,0-.44.09-.31-.2-.44a5.24,5.24,0,0,0-1.63,0,5.23,5.23,0,0,0-1.58,0c-.43.18-.11.07-.26.65,0,.15,0,.2,0,.22s0,0-.1.08c-.37.22-1.54,0-2,0h-6.62a8.7,8.7,0,0,1-2.28,0c-.11,0-.22,0-.28,0s.13-.75,0-.91-1,0-1.18,0h-1.58C215.54,115.42,215.2,115.36,215.11,115.47Z"/><path class="cls-1" d="M224.63,108.72l-5.41-.94c-.55-.1-.57,0-.67-.46s.15-.55-.22-.71a4,4,0,0,0-1.29,0c-.52,0-1.68-.21-1.9.17a5.1,5.1,0,0,0,0,1.56,4.49,4.49,0,0,0,0,1.32c.15.33-.1.12.33.22a6.57,6.57,0,0,0,1.47,0c.33,0,1.16.16,1.44,0a.48.48,0,0,0,.13-.09.25.25,0,0,0,0-.12,2.56,2.56,0,0,0,0-.4l8.58,1.37-8.58,1.47c.21-.68-.71-.41-1.13-.41s-1.8-.26-2.18,0c-.2.13-.23.8-.2,1.51,0,.53.07,1.09.09,1.46,0,.13,0,.23,0,.31,1,0,2,0,3,0,.69,0,.21,0,.46-.53.13-.29-.06-.06.19-.22a7,7,0,0,1,2-.37l3.35-.65,6.5-1.25,2.24-.43c.52-.1.56,0,.67-.42.2-.72.06-.76-.43-.92a15.08,15.08,0,0,0-2-.35Z"/><path class="cls-1" d="M242.45,142.89l0,.54c0,.52.07,1,.07,1.23,1,0,2,.06,2.95,0,.69,0,.21,0,.46-.52.12-.3-.06-.07.18-.22a1.29,1.29,0,0,1,.43-.17,3.89,3.89,0,0,1,.53-.09c.37,0,.74-.07,1-.12l3.35-.64,6.51-1.25,2.24-.43c.52-.1.56,0,.67-.43.19-.72.06-.76-.43-.92a6.1,6.1,0,0,0-1-.21c-.34,0-.69-.08-1-.14L252,138.4l-5.4-.94c-.55-.1-.57,0-.67-.45a1.16,1.16,0,0,1,0-.3c0-.23.09-.3-.19-.42a4.29,4.29,0,0,0-1.29,0c-.52,0-1.68-.2-1.9.18s0,1.22,0,1.56c0,.16,0,.42-.05.66a1.46,1.46,0,0,0,.05.65c.14.33-.1.13.33.23a7.22,7.22,0,0,0,1.47,0c.33,0,1.15.16,1.43,0s.18-.22.18-.62l8.58,1.37L246,141.8c.21-.69-.71-.42-1.13-.42s-1.8-.26-2.19,0C242.45,141.51,242.42,142.18,242.45,142.89Z"/><path class="cls-1" d="M268.06,180.69a2.37,2.37,0,0,0,.08-.43.34.34,0,0,0-.21-.38,2.45,2.45,0,0,0-.3-.11,15.23,15.23,0,0,0-2-.35l-6.39-1.12-5.4-.94a3.57,3.57,0,0,1-.51-.09c-.09,0-.12-.13-.17-.37a1.56,1.56,0,0,1,0-.48.13.13,0,0,0,0-.12.4.4,0,0,0-.18-.11,4,4,0,0,0-1.29,0c-.52,0-1.67-.21-1.89.17a4.8,4.8,0,0,0,0,1.56,4.17,4.17,0,0,0,0,1.32c.14.33-.1.12.33.22a6.57,6.57,0,0,0,1.47,0c.32,0,1.15.16,1.43,0a.48.48,0,0,0,.13-.09.45.45,0,0,0,.05-.28c0-.06,0-.14,0-.24l8.58,1.37-8.58,1.47c.21-.68-.71-.41-1.12-.41s-1.81-.26-2.19,0c-.15.1-.2.5-.2,1,0,.16,0,.34,0,.52,0,.71.11,1.46.11,1.77,1,0,2,.05,2.94,0l.33,0h.06s0,0,0-.09,0-.05,0-.09a.82.82,0,0,1,.08-.31c.13-.29-.06-.06.19-.22a2.68,2.68,0,0,1,.95-.26c.37,0,.75-.06,1-.11l3.35-.65,6.51-1.25,2.23-.43C267.91,181,267.94,181.12,268.06,180.69Z"/><path class="cls-1" d="M262.29,173h-6.61a8.7,8.7,0,0,1-2.28,0c-.12,0-.22,0-.29,0s0-.49,0-.73a.24.24,0,0,0,0-.18c-.14-.13-1,0-1.19,0h-1.57c-.19,0-.52-.06-.61.05s0,1,0,1.21V175c0,.1-.08.65,0,.73s.88,0,1,0h1.6c.19,0,.67.07.77-.05s0-.48,0-.7a.24.24,0,0,1,.06-.17c.22-.18,1.31,0,1.58,0h9.11c.73,0,.53.14.53.92h2.94c.19,0,.63.07.73-.05a.43.43,0,0,0,.06-.26c0-.37-.06-1-.06-1.15,0-.6,0-1.21,0-1.8,0-.23,0-.3,0-.34s0,0-.2-.1a5.24,5.24,0,0,0-1.63,0,5.23,5.23,0,0,0-1.58,0,.71.71,0,0,0-.2.1c-.1.07.06.11-.05.55-.07.29.06.2-.12.3C263.87,173.21,262.71,173,262.29,173Z"/><path class="cls-1" d="M250.9,222.64l6.51-1.25,2.23-.43.31,0c.24,0,.28-.06.37-.38.19-.72.05-.76-.44-.92a14.81,14.81,0,0,0-2-.35l-6.39-1.12-5.41-.94-.32-.05c-.24,0-.27,0-.35-.41s.16-.55-.22-.71a4,4,0,0,0-1.29,0c-.52,0-1.68-.21-1.89.17a.61.61,0,0,0-.07.32,6.85,6.85,0,0,0,0,.9,2.61,2.61,0,0,1,0,.34,4.17,4.17,0,0,0,0,1.32c.14.33-.1.12.33.22a6.57,6.57,0,0,0,1.47,0c.32,0,1.15.16,1.43,0a.28.28,0,0,0,.18-.21c0-.09,0-.21,0-.4l8.58,1.37-8.58,1.47c.21-.68-.71-.41-1.12-.41s-1.81-.26-2.19,0a.35.35,0,0,0-.12.19,15.11,15.11,0,0,0,0,3.09c1,0,2,.05,2.94,0a1.77,1.77,0,0,0,.39,0s-.08-.14.07-.49-.06-.06.19-.22a7,7,0,0,1,2-.37Z"/><path class="cls-1" d="M260.29,212.33c0-.11,0-.19,0-.24a.16.16,0,0,0,0-.1s0,0-.2-.1a5.24,5.24,0,0,0-1.63,0,5.23,5.23,0,0,0-1.58,0c-.43.18-.11.07-.25.65-.06.22,0,.22,0,.25a.21.21,0,0,1-.08.05c-.37.22-1.53,0-1.95,0h-6.61a8.7,8.7,0,0,1-2.28,0c-.12,0-.22,0-.29,0s.13-.75,0-.91-1,0-1.18,0h-1.58c-.18,0-.51-.06-.6.05s0,1,0,1.21v1.71c0,.1-.08.65,0,.73s.88,0,1,0h1.6c.19,0,.67.07.77-.05a.27.27,0,0,0,0-.19c0-.24-.14-.58,0-.68s1.31,0,1.58,0h9.11a1.79,1.79,0,0,1,.39,0c.25.08.14.3.14.89h2.94c.19,0,.63.07.73-.05a1.42,1.42,0,0,0,0-.68c0-.3,0-.61,0-.73C260.29,213.53,260.33,212.92,260.29,212.33Z"/><path class="cls-1" d="M260.29,207.91a2.3,2.3,0,0,1,0-.23c0-.11,0-.12,0-.14l-.15-.06a5.24,5.24,0,0,0-1.63,0,5.23,5.23,0,0,0-1.58,0c-.43.18-.11.06-.25.65a.64.64,0,0,0,0,.15c0,.11,0,.07-.09.15-.37.22-1.53,0-1.95,0h-6.61a8.7,8.7,0,0,1-2.28,0c-.12,0-.22,0-.29,0s.13-.75,0-.91-1,0-1.18,0h-1.58c-.18,0-.51-.06-.6.05s0,1,0,1.21v1.71c0,.1-.08.65,0,.73s.88,0,1,0h1.6c.19,0,.67.07.77-.05s-.14-.73,0-.87,1.31,0,1.58,0h9.11c.73,0,.53.14.53.92h2.94c.19,0,.63.06.73-.05a2.8,2.8,0,0,0,0-1.11c0-.13,0-.24,0-.3C260.29,209.12,260.33,208.51,260.29,207.91Z"/><path class="cls-1" d="M231,251.39a.24.24,0,0,0,.1-.1,1.18,1.18,0,0,0,.08-.23,1.73,1.73,0,0,0,.08-.43.39.39,0,0,0,0-.25c-.07-.12-.23-.17-.47-.24a15.08,15.08,0,0,0-2-.35l-6.4-1.12-5.4-.95-.32,0-.19,0c-.08,0-.11-.13-.17-.37-.1-.49.16-.55-.21-.72a4.29,4.29,0,0,0-1.29,0c-.52,0-1.68-.2-1.9.18a.84.84,0,0,0-.07.32,5.49,5.49,0,0,0,0,.9c0,.14,0,.26,0,.34a4.49,4.49,0,0,0,0,1.32c.14.32-.1.12.33.22a7.22,7.22,0,0,0,1.47,0c.33,0,1.15.16,1.43,0s.17-.22.17-.62l8.59,1.37-8.59,1.48c.22-.68-.71-.42-1.12-.42s-1.8-.25-2.19,0c-.1.07-.15.27-.18.54a6.27,6.27,0,0,0,0,1c0,.35,0,.72.06,1s0,.58,0,.73c1,0,2,.06,2.94,0,.7,0,.22,0,.46-.52.13-.29-.05-.07.19-.22a6.68,6.68,0,0,1,2-.38l3.35-.64,6.51-1.25,2.24-.43A3.71,3.71,0,0,0,231,251.39Z"/><path class="cls-1" d="M217.79,245.19h9.34l.16,0c.25.08.14.3.14.89h2.94c.19,0,.63.06.73-.06s0-1.16,0-1.4c0-.6,0-1.21,0-1.81,0-.22,0-.3,0-.33s-.06,0-.2-.1a5.24,5.24,0,0,0-1.63,0,5.23,5.23,0,0,0-1.58,0c-.44.18-.11.06-.26.65a.5.5,0,0,0,0,.15v.07s0,0-.09.08c-.37.22-1.54,0-2,0h-6.61a8.7,8.7,0,0,1-2.28,0c-.12,0-.22,0-.29,0s0-.49,0-.73a.23.23,0,0,0,0-.18c-.14-.14-1,0-1.18,0h-1.58c-.18,0-.52-.06-.61.05a.41.41,0,0,0-.05.23c0,.31.05.83.05,1v1.7c0,.11-.08.65,0,.74s.88,0,1,0h1.61c.19,0,.67.07.76-.05s-.14-.73,0-.87S217.52,245.19,217.79,245.19Z"/><path class="cls-1" d="M231.1,241.64c.15-.18,0-1.16,0-1.4,0-.6,0-1.21,0-1.81,0-.44.08-.31-.2-.44a5.56,5.56,0,0,0-1.63,0,5.23,5.23,0,0,0-1.58,0c-.33.14-.23.11-.22.33a1.15,1.15,0,0,1,0,.33c-.07.29.06.2-.11.3a6.13,6.13,0,0,1-2,0h-6.61a8.7,8.7,0,0,1-2.28,0c-.12,0-.22,0-.29,0s.14-.76,0-.92-1,0-1.18,0h-1.58c-.18,0-.52-.05-.61.06a2.42,2.42,0,0,0,0,1c0,.11,0,.2,0,.25V241c0,.11-.08.65,0,.74s.88,0,1,0h1.61c.19,0,.67.07.76,0s-.14-.74,0-.87,1.3,0,1.57,0h9.34c.2,0,.28.06.31.16a.82.82,0,0,1,0,.28c0,.06,0,.13,0,.21a2.26,2.26,0,0,0,0,.27h2.94C230.56,241.7,231,241.76,231.1,241.64Z"/><path class="cls-1" d="M212.78,236.55a1,1,0,0,1,0,.15,3.39,3.39,0,0,0,0,.45.21.21,0,0,0,0,.13c.11.12.88,0,1,0h1.61c.19,0,.67.08.76-.05s-.14-.73,0-.86,1.3,0,1.57,0h9.34c.45,0,.3.23.3.91h2.94c.19,0,.63.07.73-.05s0-1.17,0-1.4c0-.6,0-1.21,0-1.81,0-.22,0-.3,0-.34s-.06,0-.2-.1a5.24,5.24,0,0,0-1.63,0,5.23,5.23,0,0,0-1.58,0c-.44.18-.11.07-.26.65-.07.29.06.2-.11.31a6.13,6.13,0,0,1-2,0h-6.61a9.15,9.15,0,0,1-2.28,0c-.12,0-.22,0-.29,0a.34.34,0,0,1,0-.19c0-.25.14-.6,0-.72s-1,0-1.18,0h-1.58c-.18,0-.52-.05-.61,0a.44.44,0,0,0-.05.23,6.19,6.19,0,0,0,0,.74c0,.11,0,.2,0,.25Z"/><path class="cls-1" d="M192.4,258.61c.15-.18,0-1.16,0-1.4,0-.6,0-1.21,0-1.81a2.3,2.3,0,0,1,0-.23.19.19,0,0,0,0-.11s0,0-.2-.1a5.56,5.56,0,0,0-1.63,0,5.57,5.57,0,0,0-1.58,0c-.32.14-.22.11-.21.33a1.68,1.68,0,0,1,0,.33c-.08.29.06.2-.12.3-.37.22-1.53,0-2,0h-6.61a8.7,8.7,0,0,1-2.28,0c-.12,0-.22,0-.29,0s.13-.76,0-.92-1,0-1.18,0h-1.58c-.18,0-.51-.05-.6.06a1.07,1.07,0,0,0-.05.59c0,.13,0,.26,0,.37s0,.2,0,.25v1.7s0,.08,0,.15a1.64,1.64,0,0,0,0,.23.7.7,0,0,0,0,.36c.1.11.88,0,1,0h1.6c.19,0,.67.07.77-.05a.3.3,0,0,0,0-.19,1.27,1.27,0,0,0,0-.26c0-.18-.06-.35,0-.42s1.31,0,1.58,0h9.11c.73,0,.53.13.53.92h2.94C191.86,258.67,192.3,258.73,192.4,258.61Z"/><path class="cls-1" d="M192.46,253.83c0-.3,0-.62,0-.92,0-.15,0-.29,0-.42s.13-1.12,0-1.25-1,0-1.13,0c-.6,0-1.22-.05-1.82,0s-.48-.07-.46.48l-3.52-1.13L189,249.3c-.09.46,1.37.24,1.71.24s1.51.17,1.7,0,0-1.92,0-2.3c0-.18.11-.91,0-1.06s-.08,0-.33-.1a11.89,11.89,0,0,0-2.31,0c-.13,0-.63-.08-.73,0s.06.53,0,.69-.67.32-.89.41l-2.2.87-2.19.88a3.49,3.49,0,0,1-.91.35,5,5,0,0,1-1.37-.5l-2.38-.87c-.31-.11-1.3-.28-1.51-.55s.14-.92-.09-1.11-1.68,0-2,0-1.17-.12-1.31.06,0,1.72,0,2.11c0,.17-.1.77,0,.91s0,0,.21.1a7.38,7.38,0,0,0,2.25,0c.49,0,1.07.22.94-.45l3.46,1.23-3.46,1.27c.08-.42-.56-.24-.85-.24h-1.87c-.27,0-.57-.07-.68.1s0,1.27,0,1.58-.15,1.23,0,1.43.34.06.53.06h1.75c.16,0,1,.12,1.08,0s.06-.21.05-.36a.62.62,0,0,1,0-.39l.12-.08c.17-.07.44-.12.54-.16l3.13-1.13a8,8,0,0,1,2.12-.78,2.84,2.84,0,0,1,.94.26c.33.14.65.3.91.39l3.09,1.1a2.16,2.16,0,0,1,.25.1c.21.1.31.19.35.33a4.82,4.82,0,0,1,0,.87,21.6,21.6,0,0,0,3,0c.47-.07.29.11.4-.28A2.52,2.52,0,0,0,192.46,253.83Z"/><path class="cls-1" d="M145.9,244.05c.48.14,1,.44,1.4.58l3.09,1.09.25.1c.49.23.35.45.35,1.2a21.6,21.6,0,0,0,3,0c.47-.07.28.11.4-.28a7.32,7.32,0,0,0,0-1.75s0-.13,0-.25a5,5,0,0,0,0-.77.39.39,0,0,0,0-.23c-.12-.11-1,0-1.13,0-.6,0-1.22-.05-1.82,0s-.48-.07-.46.48l-3.52-1.13L151,241.8c-.09.46,1.37.24,1.7.24s1.52.17,1.71,0a.8.8,0,0,0,.1-.42c0-.6-.1-1.59-.1-1.88s.11-.9,0-1.06-.08,0-.33-.09a11.15,11.15,0,0,0-2.31,0c-.13,0-.63-.09-.73,0s.06.52,0,.68a.41.41,0,0,1-.15.14l-.25.11-.5.16-2.19.88-2.19.87c-.19.07-.46.23-.69.31a.6.6,0,0,1-.22,0,4.72,4.72,0,0,1-1.37-.5l-2.38-.87c-.31-.11-1.3-.28-1.51-.55a.46.46,0,0,1-.06-.25c0-.2.06-.45.05-.64a.27.27,0,0,0-.08-.22c-.27-.23-1.68,0-2,0s-1.17-.12-1.31.07,0,1.71,0,2.1c0,.17-.11.77,0,.91s0,0,.21.1a7.38,7.38,0,0,0,2.25,0c.49,0,1.07.22.94-.45l3.46,1.23-3.46,1.27c.08-.42-.56-.24-.86-.24h-1.86c-.28,0-.57-.07-.68.1a.61.61,0,0,0-.08.31,3.61,3.61,0,0,0,0,.46c0,.33.07.66.07.81s-.15,1.23,0,1.43.34.06.53.06h1.75c.16,0,1,.12,1.08,0s.05-.08.06-.15a1.83,1.83,0,0,0,0-.21.65.65,0,0,1,0-.38,1.16,1.16,0,0,1,.51-.2l.15,0,3.13-1.14a7.62,7.62,0,0,1,2.12-.77A1.9,1.9,0,0,1,145.9,244.05Z"/><path class="cls-1" d="M130.68,213.41c-.11-.15-.08,0-.33-.1a11.89,11.89,0,0,0-2.31,0c-.13,0-.63-.08-.73,0s.06.53,0,.69-.67.32-.9.41l-2.19.87-2.19.88a3.48,3.48,0,0,0-.45.21,1.33,1.33,0,0,1-.46.14,5.38,5.38,0,0,1-1.37-.5l-2.38-.87c-.31-.11-1.3-.28-1.51-.55s.14-.92-.09-1.11-1.68,0-2,0-1.17-.12-1.31.06a.81.81,0,0,0-.11.41,7.79,7.79,0,0,0,0,.94c0,.32.07.61.07.76s-.11.77,0,.9,0,0,.21.1a7.07,7.07,0,0,0,2.25,0c.49,0,1.07.22.94-.44l3.46,1.23-3.46,1.26c.07-.41-.56-.23-.86-.23h-1.86c-.28,0-.57-.08-.68.09s0,1.28,0,1.59-.15,1.23,0,1.43.34.06.53.06h1.75c.16,0,1,.11,1.08,0s-.06-.58.07-.75a.41.41,0,0,1,.12-.08c.17-.07.44-.12.54-.16l3.13-1.14a8.31,8.31,0,0,1,2.12-.77,7.41,7.41,0,0,1,1.85.65l3.09,1.1a1.75,1.75,0,0,1,.43.2.46.46,0,0,1,.17.23,4.82,4.82,0,0,1,0,.87,21.6,21.6,0,0,0,3,0c.47-.07.28.11.4-.28a2.7,2.7,0,0,0,.06-.41c0-.15,0-.31,0-.46,0-.31,0-.63,0-.88s.13-1.12,0-1.25-1,0-1.13,0c-.6,0-1.22,0-1.82,0s-.48-.07-.46.48l-3.52-1.13,3.52-1.3c-.09.47,1.37.24,1.7.24s1.52.18,1.71,0,0-1.92,0-2.31C130.68,214.29,130.79,213.56,130.68,213.41Z"/><path class="cls-1" d="M130.68,212.81c.15-.18,0-1.16,0-1.4,0-.6,0-1.21,0-1.81,0-.44.08-.31-.21-.43a5.24,5.24,0,0,0-1.63,0,5.23,5.23,0,0,0-1.58,0c-.43.18-.11.06-.25.65a.64.64,0,0,0,0,.15c0,.1,0,.07-.09.15-.37.22-1.54,0-2,0h-6.61a8.7,8.7,0,0,1-2.28,0c-.12,0-.23,0-.29,0s.13-.76,0-.91-1,0-1.18,0H113c-.18,0-.51-.06-.6.05s0,.63,0,1c0,.11,0,.2,0,.25v1.7s0,.08,0,.15a1.54,1.54,0,0,0,0,.59c.1.11.88,0,1,0H115c.19,0,.67.07.77-.05s-.14-.73,0-.87,1.31,0,1.58,0h9.11a1.85,1.85,0,0,1,.39,0,.22.22,0,0,1,.15.13.49.49,0,0,1,0,.12c0,.14,0,.34,0,.64H130C130.14,212.87,130.58,212.93,130.68,212.81Z"/><path class="cls-1" d="M135.28,81.63A110,110,0,0,0,105,105.28a106.82,106.82,0,0,0-17.67,27.21A109.7,109.7,0,0,0,80.92,151c-.23.93-.45,1.84-.64,2.73s-.37,1.76-.53,2.61A106.83,106.83,0,0,0,78,170.79c0,.52-.06,1-.08,1.47,0,1.85,0,3.27,0,4.22l0,1.45s.09-2,.24-5.67c.2-2.3.46-5.28,1-8.83.21-1.43.46-2.94.77-4.54.15-.8.31-1.63.5-2.47a107.16,107.16,0,0,1,20.42-43.31c.87-1.11,1.76-2.22,2.69-3.31s1.88-2.2,2.87-3.29,2-2.14,3.09-3.2,2.15-2.1,3.28-3.13A106.87,106.87,0,0,1,221,78.43,104,104,0,0,1,231.62,83a105.68,105.68,0,0,1,10.09,5.71,107,107,0,0,1,42.94,53.41,105.13,105.13,0,0,1,4.49,16.51q.51,2.78.89,5.58a107.56,107.56,0,0,1,.61,22.22c-.28,3.63-.75,7.22-1.38,10.75a107.16,107.16,0,0,1-7.72,25c-.7,1.55-1.43,3.08-2.2,4.57a107.81,107.81,0,0,1-22.77,30,110.06,110.06,0,0,1-26.48,17.94c-1.08.51-2.15,1-3.22,1.47a105.78,105.78,0,0,1-20.2,6.58c-.85.18-1.67.35-2.47.5-3.2.61-6.06,1-8.52,1.27-1.85.21-3.48.35-4.86.47l-4.22.18-1.45.06h.09l4.28-.05h1.31l1.47-.09c2.58-.15,5.83-.37,9.64-.9,1.53-.21,3.15-.48,4.85-.81a107.48,107.48,0,0,0,23.81-7.57,103.06,103.06,0,0,0,10.13-5.23c1.14-.67,2.29-1.37,3.43-2.11a107.51,107.51,0,0,0,13.64-10.34,110.77,110.77,0,0,0,9.7-9.88q1.56-1.8,3.06-3.69A110.14,110.14,0,0,0,279,232.27c.85-1.46,1.69-2.94,2.49-4.46s1.57-3.07,2.31-4.64a106,106,0,0,0,9.69-36.59A109.38,109.38,0,0,0,287.52,141a107.88,107.88,0,0,0-12.07-23.86,109.92,109.92,0,0,0-11.21-14.08c-.68-.74-1.38-1.46-2.08-2.17q-2.15-2.12-4.39-4.11c-.75-.67-1.51-1.32-2.27-2a110.9,110.9,0,0,0-14.65-10.42c-.86-.51-1.72-1-2.59-1.49-2.6-1.46-5.27-2.81-8-4s-5.46-2.34-8.25-3.34a109.47,109.47,0,0,0-45.55-5.94A106.24,106.24,0,0,0,135.28,81.63Z"/><path class="cls-1" d="M18.62,63.14,26.26,72a16.91,16.91,0,0,0-1.21,2.08l.59.42q3.25-2.86,6.59-5.6L31.57,68c-.91.59-1.83,1.2-2.73,1.81l-2.5-3,2.59-2.15a8.25,8.25,0,0,0,2.82-4A4,4,0,0,0,31.21,57a3.87,3.87,0,0,0-3.62-1.42,8.82,8.82,0,0,0-4.82,2.18q-3.3,2.82-6.52,5.78l.71.84ZM24.81,58a2.88,2.88,0,0,1,1.92.05,3.5,3.5,0,0,1,1.58,1.12A3,3,0,0,1,29,61.54a4,4,0,0,1-1.64,2.51,23.93,23.93,0,0,1-2.07,1.5l-3.69-4.39C22.63,60.11,23.71,59.07,24.81,58Z"/><path class="cls-1" d="M38.35,47.68l6.72,9.52-1.4,2,.54.48c2.18-1.57,4.37-3.09,6.58-4.58-.19-.3-.38-.61-.58-.91l-2.36,1.26c-.8-1.18-1.61-2.35-2.42-3.53l2.28-1.57Q50.88,51.62,54,53q2-1.27,4-2.51c-.18-.31-.36-.63-.55-.94l-1.59.79c-1.86-.72-3.74-1.41-5.64-2.09a6.08,6.08,0,0,0,1.43-2.93,3.72,3.72,0,0,0-.47-2.62,3.58,3.58,0,0,0-3.32-1.6,9.1,9.1,0,0,0-4.94,1.76c-2.31,1.62-4.6,3.29-6.87,5,.2.31.41.61.61.91Zm6.54-4.39a2.88,2.88,0,0,1,3.2,1.35,2.92,2.92,0,0,1,.4,2.35,4.68,4.68,0,0,1-2.17,2.5,17.38,17.38,0,0,1-1.83,1L41.41,46Q43.14,44.65,44.89,43.29Z"/><path class="cls-1" d="M61,33.39l5.69,10.18-1.58,1.8.49.53q5.67-3.24,11.49-6.15a20.22,20.22,0,0,0-1.58-3.87l-1.68.73c.12.82.25,1.65.37,2.48q-2.37,1.36-4.73,2.8-1.16-2.12-2.29-4.23,2.7-1.35,5.43-2.63l-.94-1.85c-1.74,1-3.48,2.1-5.19,3.18-.8-1.46-1.59-2.93-2.38-4.39,1.66-.8,3.34-1.57,5-2.33l1.34,1.7c.56-.29,1.12-.58,1.69-.86A15.18,15.18,0,0,0,71,27.37l-.3-.54q-6.09,3.06-12,6.45c.17.32.35.64.52,1Z"/><path class="cls-1" d="M83.65,22.34,87.82,33A21.05,21.05,0,0,0,86,34.72l.43.58q3.11-1.39,6.24-2.69l-.37-1-2.18.58-2.58-6.56-1.84-3.14q4.89,4.52,9.57,9.2c.75-.49,1.5-1,2.26-1.44l0,0q.26-6.39.75-12.8c.3,1.2.61,2.41.92,3.62.82,2.15,1.65,4.29,2.47,6.44A16.36,16.36,0,0,0,99.86,29l.39.6c2.38-.89,4.77-1.75,7.18-2.56-.11-.33-.21-.66-.31-1l-2.48.5-4-10.78a17.2,17.2,0,0,0,1.78-1.39l-.39-.62q-2.7.95-5.4,1.93-.43,6.23-.66,12.43-4.35-4.41-8.9-8.68c-2,.82-4,1.67-5.92,2.55l.39.95Z"/><path class="cls-1" d="M114.23,11.19l3.24,11.14-1.89,1.39c.11.21.23.42.35.63q3.66-1.09,7.35-2.07c-.09-.35-.17-.7-.26-1.05l-2.45.39-3.08-11.15a21.43,21.43,0,0,0,2-1.37l-.34-.64q-3.66,1-7.31,2.07c.1.35.19.69.28,1Z"/><path class="cls-1" d="M130.37,7.08l1.47,6.67a6.41,6.41,0,0,0,3,4.37,8.14,8.14,0,0,0,5.67.69c4.12-.77,5.89-3.25,5.29-7.61q-.54-3.33-1.07-6.65a23,23,0,0,0,2.15-1.14c-.08-.23-.17-.45-.26-.67-2.3.34-4.6.73-6.89,1.14.05.35.11.71.16,1.06l2.37-.16,1.17,6.83c.36,2.11.09,3.59-.79,4.46a6,6,0,0,1-2.24.87,4.76,4.76,0,0,1-3.5-.49,4.45,4.45,0,0,1-1.86-3q-.72-3.42-1.42-6.84a21.33,21.33,0,0,0,2.11-1.23l-.3-.66c-2.47.49-4.94,1-7.4,1.58l.21,1.05Z"/><path class="cls-1" d="M158.61,2.62q.36,5.73.76,11.46a22.37,22.37,0,0,0-2.17,1.06l.24.68c2.21-.25,4.43-.48,6.65-.67,0-.35-.05-.69-.07-1l-2.21-.1c-.17-2.34-.33-4.69-.5-7-.26-1.19-.53-2.37-.8-3.56q3.27,5.79,6.28,11.66l2.55-.69v0q2.11-6,4.48-12c-.07,1.24-.14,2.49-.2,3.73L174,13a15,15,0,0,0-2.18.91c.07.23.13.46.2.69q3.75-.2,7.52-.29v-1L177.09,13q-.3-5.76-.63-11.51A15.36,15.36,0,0,0,178.55.7l-.18-.7c-1.88.05-3.77.12-5.65.21q-2.26,5.82-4.3,11.66-2.79-5.5-5.8-11c-2.11.18-4.21.4-6.32.63l.09,1Z"/><path class="cls-1" d="M211.08,16.05l1.31.05q3.74,2.16,7.35,4.42c.56-.78,1.13-1.55,1.71-2.33q-3.24-1.28-6.53-2.48a7.24,7.24,0,0,0,3.41-2.12,7.22,7.22,0,0,0,1.74-3.95,7.1,7.1,0,0,0-1.62-5.92A8.73,8.73,0,0,0,212.53.83a8.4,8.4,0,0,0-6.24,1.58,7.06,7.06,0,0,0-2.78,5.37,7.08,7.08,0,0,0,1.9,5.64A8.74,8.74,0,0,0,211.08,16.05ZM207,7.71a8.36,8.36,0,0,1,.88-3.14,4.31,4.31,0,0,1,1.8-1.95A7.67,7.67,0,0,1,212,2.5a4.79,4.79,0,0,1,3.69,2.15,6.64,6.64,0,0,1,.89,4.63,7.66,7.66,0,0,1-1.09,3.16,4.71,4.71,0,0,1-2,1.9,8.44,8.44,0,0,1-1.74,0A5,5,0,0,1,208,12.29,6.7,6.7,0,0,1,207,7.71Z"/><path class="cls-1" d="M231.46,12.28a6.41,6.41,0,0,0,1.07,5.21,8.11,8.11,0,0,0,4.95,2.86c4.09.91,6.7-.67,7.87-4.91.54-2.19,1.09-4.36,1.63-6.54a23.66,23.66,0,0,0,2.45-.2c0-.24,0-.48,0-.72q-3.39-.89-6.8-1.66l-.27,1,2.25.78L243,14.88c-.5,2.08-1.33,3.33-2.48,3.79a6.14,6.14,0,0,1-2.41-.08,4.74,4.74,0,0,1-3-1.83,4.43,4.43,0,0,1-.52-3.51C235,11,235.49,8.68,236,6.4q1.7-.15,2.43-.3c0-.24,0-.49,0-.73q-3.71-.78-7.42-1.45c-.07.35-.15.7-.22,1l2,.6C232.31,7.81,231.89,10,231.46,12.28Z"/><path class="cls-1" d="M259,24.59l-2.35-1c.69-.78,1.39-1.56,2.1-2.33q3.19,1,6.37,2.09c.1,1,.2,1.95.29,2.92a15.87,15.87,0,0,0-2.54,0c0,.24-.05.47-.08.71,2.39.81,4.76,1.66,7.13,2.54l.4-1-1.7-.84q-.75-7.55-1.9-15.13c-1-.09-2-.18-2.95-.25l.09.6q-4.86,4.86-9.45,9.88a14.66,14.66,0,0,0-2.29.13c0,.24,0,.48,0,.72,2.19.64,4.39,1.3,6.57,2Zm5.19-9.2q.4,3.13.74,6.26c-1.68-.57-3.38-1.13-5.07-1.66C261.27,18.44,262.72,16.91,264.18,15.39Z"/><path class="cls-1" d="M291.83,33.71l-1.69-.93-2,2.24q-2.72-1.1-5.44-2.11,2.26-5.16,4.51-10.32a21.92,21.92,0,0,0,2.47.23c0-.24.09-.48.14-.71q-3.51-1.58-7.05-3c-.15.33-.29.66-.44,1l1.87,1q-2.25,5.36-4.51,10.7c-.79-.05-1.57-.09-2.36-.12l-.12.71q6.19,2.55,12.29,5.46A21.53,21.53,0,0,0,291.83,33.71Z"/><path class="cls-1" d="M305.28,44.88c-.69-.49-1.38-1-2.08-1.46q2.82-5.06,5.62-10.11c1.13.26,1.95.41,2.46.47.06-.24.13-.47.2-.7q-3.37-1.92-6.8-3.72l-.53.94,1.79,1.2-5.5,10.22-2.36-.36c-.07.24-.13.47-.19.7q3.44,1.81,6.83,3.75C304.9,45.5,305.09,45.19,305.28,44.88Z"/><path class="cls-1" d="M322.87,55.94,320.62,54l6.48-9.65c1.1.81,2.2,1.63,3.3,2.47l-1.13,2.25,1.56,1.09a17.63,17.63,0,0,0,2.41-2.71c.11-.16.21-.32.31-.49-2.2-1.49-4.54-3.07-7.05-4.73s-4.74-3.16-7.14-4.67l-.39.59a16.44,16.44,0,0,0-1.49,3.16l1.58,1,1.63-1.92,3.54,2.07L318,52.07l-.85-.26-2-.54-.24.68c2.46,1.58,4.9,3.19,7.32,4.86Z"/><path class="cls-1" d="M342.08,70.66c-.52-.55-1.05-1.1-1.58-1.64.91-1.11,1.83-2.21,2.74-3.31,2.87-.81,5.76-1.58,8.69-2.3a16.72,16.72,0,0,0,2.09.89c.12-.21.23-.43.34-.64-1.69-1.48-3.38-2.94-5.1-4.37l-.71.81,1.55,1.59c-2.3.68-4.59,1.4-6.85,2.14l-.11-.09.57-1.9c.15-1.68.29-3.38.41-5.07l1.74.63c.1-.22.2-.44.31-.66q-2.76-2.24-5.57-4.38l-.68.84,1.31,1.23c-.16,3.1-.37,6.19-.64,9.25l-2.54,3.15a18.19,18.19,0,0,0-2.15-.76c-.11.21-.21.43-.31.65,1.94,1.55,3.87,3.13,5.77,4.75Z"/><path class="cls-1" d="M142.48,391.78c-1.07-1.25-1.69-2.16-1.69-3.45,0-1.54,1.4-2.41,3.6-2.41a6.77,6.77,0,0,1,3.61.84,2.36,2.36,0,0,0,.74-1.61c0-1-1.33-1.74-4.82-1.74-4.09,0-6.34,2.06-6.34,5,0,1.67.63,3.11,2.32,5l3.68,4.08c1.66,1.82,2.18,3,2.18,4.61,0,2.13-1,3.56-3.65,3.56a5.74,5.74,0,0,1-3.79-1.22,3.44,3.44,0,0,0-.77,2c0,.94,1.51,2.06,4.86,2.06,5,0,6.55-3,6.55-6.56,0-2.17-.55-3.74-2.47-5.9Z"/><path class="cls-1" d="M173.55,384.31v9.39h-5.89v-9.94c-3,0-3,0-3,.55v23.88c3,0,3,0,3-.56V396.36h5.89v11.83c3,0,2.94,0,2.94-.56V383.76C173.51,383.76,173.55,383.76,173.55,384.31Z"/><path class="cls-1" d="M199.57,383.41c-4.79,0-7.07,3.14-7.07,12.42,0,10.06,1.88,12.71,6.66,12.71s6.92-3.21,6.92-12.81C206.08,386.3,204.32,383.41,199.57,383.41Zm-.3,22.23c-2.65,0-3.42-2.58-3.42-9.11,0-7.57,1-10.23,3.64-10.23s3.39,2.48,3.39,9.5S202,405.64,199.27,405.64Z"/><path class="cls-1" d="M226.29,383.76h-3.64c-.48,0-.59.17-.59.55v23.88c2.9,0,2.94,0,2.94-.56v-9.35h1.33c3.64,0,6.73-1.89,6.73-7.65C233.06,385.82,230.93,383.76,226.29,383.76Zm.33,11.9H225v-9.43h1.84c2.21,0,2.95,1.61,2.95,4.09C229.79,394.23,228.72,395.66,226.62,395.66Z"/><polygon class="cls-1" points="248.02 383.75 248.02 407.53 353.54 407.53 348.26 395.64 353.54 383.75 248.02 383.75"/><polygon class="cls-1" points="22.35 395.64 17.07 407.53 122.58 407.53 122.58 383.75 17.07 383.75 22.35 395.64"/><path class="cls-1" d="M86.11,321.77a21.24,21.24,0,0,1,8.29,1.41,10.11,10.11,0,0,1,4.95,4.2,13.83,13.83,0,0,1,1.64,7.05,15.69,15.69,0,0,1-.64,4.6,12.41,12.41,0,0,1-1.94,3.84,13.46,13.46,0,0,1-3.25,3.07l8.94,18.67H92.88l-6.71-16.09H84.85v16.09H74.65V321.77ZM86,330.3H84.85v10.31h1.08a4.17,4.17,0,0,0,3.43-1.4A6.67,6.67,0,0,0,90.5,335a4.8,4.8,0,0,0-1.13-3.5A4.53,4.53,0,0,0,86,330.3Z"/><path class="cls-1" d="M158.27,343.13a38.71,38.71,0,0,1-1,9.51,19.63,19.63,0,0,1-3.1,6.91,13.29,13.29,0,0,1-5.1,4.22,18,18,0,0,1-14,0,13.52,13.52,0,0,1-5.13-4.24,19.6,19.6,0,0,1-3.13-6.93,38.74,38.74,0,0,1-1.06-9.52,34.08,34.08,0,0,1,1.86-12A16,16,0,0,1,151,323.59a15.13,15.13,0,0,1,5.47,7.4A34.74,34.74,0,0,1,158.27,343.13Zm-22,0a34.8,34.8,0,0,0,.64,7.3,9.82,9.82,0,0,0,1.92,4.38,4.22,4.22,0,0,0,6.33,0,9.35,9.35,0,0,0,1.85-4.32,37.69,37.69,0,0,0,.6-7.4c0-4.53-.47-7.87-1.39-10s-2.34-3.24-4.24-3.24a4,4,0,0,0-3.15,1.48,10.05,10.05,0,0,0-1.92,4.42A35.32,35.32,0,0,0,136.3,343.13Z"/><path class="cls-1" d="M183.71,364.61V321.77H193.9v34.08h11.17v8.76Z"/><path class="cls-1" d="M260.33,343.13a39.2,39.2,0,0,1-1,9.51,19.64,19.64,0,0,1-3.11,6.91,13.29,13.29,0,0,1-5.1,4.22,18,18,0,0,1-14,0,13.41,13.41,0,0,1-5.12-4.24,19.61,19.61,0,0,1-3.14-6.93,38.77,38.77,0,0,1-1.05-9.52,34.08,34.08,0,0,1,1.86-12,14.36,14.36,0,0,1,14.46-9.93,15.44,15.44,0,0,1,9,2.49,15.12,15.12,0,0,1,5.46,7.4A34.72,34.72,0,0,1,260.33,343.13Zm-22,0a34.73,34.73,0,0,0,.65,7.3,9.82,9.82,0,0,0,1.92,4.38,4.21,4.21,0,0,0,6.32,0,9.35,9.35,0,0,0,1.85-4.32,37.69,37.69,0,0,0,.6-7.4q0-6.79-1.39-10t-4.23-3.24a4,4,0,0,0-3.15,1.48,10.05,10.05,0,0,0-1.92,4.42A35.25,35.25,0,0,0,238.35,343.13ZM254.61,309v.62q-.62.75-1.59,1.86c-.66.73-1.37,1.51-2.14,2.34s-1.57,1.66-2.38,2.49-1.58,1.6-2.32,2.3H239v-.85c.64-1.05,1.24-2.08,1.78-3.09s1.07-2,1.56-2.93.93-1.86,1.34-2.74Z"/><path class="cls-1" d="M285.76,364.61V321.77H296v42.84Z"/></g></g></svg>